M48
; DRILL file {KiCad 7.0.7} date Mon Jan  8 08:14:43 2024
; FORMAT={-:-/ absolute / inch / decimal}
; #@! TF.CreationDate,2024-01-08T08:14:43+08:00
; #@! TF.GenerationSoftware,Kicad,Pcbnew,7.0.7
; #@! TF.FileFunction,Plated,1,2,PTH
FMAT,2
INCH
; #@! TA.AperFunction,Plated,PTH,ComponentDrill
T1C0.0394
%
G90
G05
T1
X3.9614Y-3.2012
X4.0614Y-3.2012
X4.1614Y-3.2012
X4.2614Y-3.2012
X4.3614Y-3.2012
X4.4614Y-3.2012
X5.1885Y-3.1961
X5.2885Y-3.1961
X5.3885Y-3.1961
X5.4885Y-3.1961
X5.5885Y-3.1961
X5.6885Y-3.1961
X6.689Y-3.1704
X6.789Y-3.1704
X6.889Y-3.1704
X6.989Y-3.1704
X7.089Y-3.1704
X7.189Y-3.1704
X7.289Y-3.1704
X7.389Y-3.1704
T0
M30
