%TF.GenerationSoftware,KiCad,Pcbnew,7.0.7*%
%TF.CreationDate,2024-01-08T08:14:43+08:00*%
%TF.ProjectId,IIDX_Cap_Controller,49494458-5f43-4617-905f-436f6e74726f,rev?*%
%TF.SameCoordinates,Original*%
%TF.FileFunction,Drillmap*%
%TF.FilePolarity,Positive*%
%FSLAX45Y45*%
G04 Gerber Fmt 4.5, Leading zero omitted, Abs format (unit mm)*
G04 Created by KiCad (PCBNEW 7.0.7) date 2024-01-08 08:14:43*
%MOMM*%
%LPD*%
G01*
G04 APERTURE LIST*
%ADD10C,0.100000*%
%ADD11C,0.200000*%
G04 APERTURE END LIST*
D10*
X9730003Y-3177291D02*
X19636003Y-3177291D01*
X19636003Y-13083291D01*
X9730003Y-13083291D01*
X9730003Y-3177291D01*
D11*
D10*
X10011964Y-8081006D02*
X10111964Y-8181006D01*
X10111964Y-8081006D02*
X10011964Y-8181006D01*
X10265964Y-8081006D02*
X10365964Y-8181006D01*
X10365964Y-8081006D02*
X10265964Y-8181006D01*
X10519964Y-8081006D02*
X10619964Y-8181006D01*
X10619964Y-8081006D02*
X10519964Y-8181006D01*
X10773964Y-8081006D02*
X10873964Y-8181006D01*
X10873964Y-8081006D02*
X10773964Y-8181006D01*
X11027964Y-8081006D02*
X11127964Y-8181006D01*
X11127964Y-8081006D02*
X11027964Y-8181006D01*
X11281964Y-8081006D02*
X11381964Y-8181006D01*
X11381964Y-8081006D02*
X11281964Y-8181006D01*
X13128851Y-8068027D02*
X13228851Y-8168027D01*
X13228851Y-8068027D02*
X13128851Y-8168027D01*
X13382851Y-8068027D02*
X13482851Y-8168027D01*
X13482851Y-8068027D02*
X13382851Y-8168027D01*
X13636851Y-8068027D02*
X13736851Y-8168027D01*
X13736851Y-8068027D02*
X13636851Y-8168027D01*
X13890851Y-8068027D02*
X13990851Y-8168027D01*
X13990851Y-8068027D02*
X13890851Y-8168027D01*
X14144851Y-8068027D02*
X14244851Y-8168027D01*
X14244851Y-8068027D02*
X14144851Y-8168027D01*
X14398851Y-8068027D02*
X14498851Y-8168027D01*
X14498851Y-8068027D02*
X14398851Y-8168027D01*
X16939983Y-8002733D02*
X17039983Y-8102733D01*
X17039983Y-8002733D02*
X16939983Y-8102733D01*
X17193983Y-8002733D02*
X17293983Y-8102733D01*
X17293983Y-8002733D02*
X17193983Y-8102733D01*
X17447983Y-8002733D02*
X17547983Y-8102733D01*
X17547983Y-8002733D02*
X17447983Y-8102733D01*
X17701983Y-8002733D02*
X17801983Y-8102733D01*
X17801983Y-8002733D02*
X17701983Y-8102733D01*
X17955983Y-8002733D02*
X18055983Y-8102733D01*
X18055983Y-8002733D02*
X17955983Y-8102733D01*
X18209983Y-8002733D02*
X18309983Y-8102733D01*
X18309983Y-8002733D02*
X18209983Y-8102733D01*
X18463983Y-8002733D02*
X18563983Y-8102733D01*
X18563983Y-8002733D02*
X18463983Y-8102733D01*
X18717983Y-8002733D02*
X18817983Y-8102733D01*
X18817983Y-8002733D02*
X18717983Y-8102733D01*
D11*
X9985779Y-13399775D02*
X9985779Y-13199775D01*
X9985779Y-13199775D02*
X10033398Y-13199775D01*
X10033398Y-13199775D02*
X10061970Y-13209299D01*
X10061970Y-13209299D02*
X10081018Y-13228346D01*
X10081018Y-13228346D02*
X10090541Y-13247394D01*
X10090541Y-13247394D02*
X10100065Y-13285489D01*
X10100065Y-13285489D02*
X10100065Y-13314061D01*
X10100065Y-13314061D02*
X10090541Y-13352156D01*
X10090541Y-13352156D02*
X10081018Y-13371204D01*
X10081018Y-13371204D02*
X10061970Y-13390251D01*
X10061970Y-13390251D02*
X10033398Y-13399775D01*
X10033398Y-13399775D02*
X9985779Y-13399775D01*
X10185779Y-13399775D02*
X10185779Y-13266442D01*
X10185779Y-13304537D02*
X10195303Y-13285489D01*
X10195303Y-13285489D02*
X10204827Y-13275965D01*
X10204827Y-13275965D02*
X10223875Y-13266442D01*
X10223875Y-13266442D02*
X10242922Y-13266442D01*
X10309589Y-13399775D02*
X10309589Y-13266442D01*
X10309589Y-13199775D02*
X10300065Y-13209299D01*
X10300065Y-13209299D02*
X10309589Y-13218823D01*
X10309589Y-13218823D02*
X10319113Y-13209299D01*
X10319113Y-13209299D02*
X10309589Y-13199775D01*
X10309589Y-13199775D02*
X10309589Y-13218823D01*
X10433398Y-13399775D02*
X10414351Y-13390251D01*
X10414351Y-13390251D02*
X10404827Y-13371204D01*
X10404827Y-13371204D02*
X10404827Y-13199775D01*
X10538160Y-13399775D02*
X10519113Y-13390251D01*
X10519113Y-13390251D02*
X10509589Y-13371204D01*
X10509589Y-13371204D02*
X10509589Y-13199775D01*
X10766732Y-13399775D02*
X10766732Y-13199775D01*
X10766732Y-13199775D02*
X10833399Y-13342632D01*
X10833399Y-13342632D02*
X10900065Y-13199775D01*
X10900065Y-13199775D02*
X10900065Y-13399775D01*
X11081018Y-13399775D02*
X11081018Y-13295013D01*
X11081018Y-13295013D02*
X11071494Y-13275965D01*
X11071494Y-13275965D02*
X11052446Y-13266442D01*
X11052446Y-13266442D02*
X11014351Y-13266442D01*
X11014351Y-13266442D02*
X10995303Y-13275965D01*
X11081018Y-13390251D02*
X11061970Y-13399775D01*
X11061970Y-13399775D02*
X11014351Y-13399775D01*
X11014351Y-13399775D02*
X10995303Y-13390251D01*
X10995303Y-13390251D02*
X10985779Y-13371204D01*
X10985779Y-13371204D02*
X10985779Y-13352156D01*
X10985779Y-13352156D02*
X10995303Y-13333108D01*
X10995303Y-13333108D02*
X11014351Y-13323585D01*
X11014351Y-13323585D02*
X11061970Y-13323585D01*
X11061970Y-13323585D02*
X11081018Y-13314061D01*
X11176256Y-13266442D02*
X11176256Y-13466442D01*
X11176256Y-13275965D02*
X11195303Y-13266442D01*
X11195303Y-13266442D02*
X11233398Y-13266442D01*
X11233398Y-13266442D02*
X11252446Y-13275965D01*
X11252446Y-13275965D02*
X11261970Y-13285489D01*
X11261970Y-13285489D02*
X11271494Y-13304537D01*
X11271494Y-13304537D02*
X11271494Y-13361680D01*
X11271494Y-13361680D02*
X11261970Y-13380727D01*
X11261970Y-13380727D02*
X11252446Y-13390251D01*
X11252446Y-13390251D02*
X11233398Y-13399775D01*
X11233398Y-13399775D02*
X11195303Y-13399775D01*
X11195303Y-13399775D02*
X11176256Y-13390251D01*
X11357208Y-13380727D02*
X11366732Y-13390251D01*
X11366732Y-13390251D02*
X11357208Y-13399775D01*
X11357208Y-13399775D02*
X11347684Y-13390251D01*
X11347684Y-13390251D02*
X11357208Y-13380727D01*
X11357208Y-13380727D02*
X11357208Y-13399775D01*
X11357208Y-13275965D02*
X11366732Y-13285489D01*
X11366732Y-13285489D02*
X11357208Y-13295013D01*
X11357208Y-13295013D02*
X11347684Y-13285489D01*
X11347684Y-13285489D02*
X11357208Y-13275965D01*
X11357208Y-13275965D02*
X11357208Y-13295013D01*
D10*
X9625003Y-13678291D02*
X9725003Y-13778291D01*
X9725003Y-13678291D02*
X9625003Y-13778291D01*
D11*
X10090541Y-13819775D02*
X9976256Y-13819775D01*
X10033398Y-13819775D02*
X10033398Y-13619775D01*
X10033398Y-13619775D02*
X10014351Y-13648346D01*
X10014351Y-13648346D02*
X9995303Y-13667394D01*
X9995303Y-13667394D02*
X9976256Y-13676918D01*
X10176256Y-13800727D02*
X10185779Y-13810251D01*
X10185779Y-13810251D02*
X10176256Y-13819775D01*
X10176256Y-13819775D02*
X10166732Y-13810251D01*
X10166732Y-13810251D02*
X10176256Y-13800727D01*
X10176256Y-13800727D02*
X10176256Y-13819775D01*
X10309589Y-13619775D02*
X10328637Y-13619775D01*
X10328637Y-13619775D02*
X10347684Y-13629299D01*
X10347684Y-13629299D02*
X10357208Y-13638823D01*
X10357208Y-13638823D02*
X10366732Y-13657870D01*
X10366732Y-13657870D02*
X10376256Y-13695965D01*
X10376256Y-13695965D02*
X10376256Y-13743585D01*
X10376256Y-13743585D02*
X10366732Y-13781680D01*
X10366732Y-13781680D02*
X10357208Y-13800727D01*
X10357208Y-13800727D02*
X10347684Y-13810251D01*
X10347684Y-13810251D02*
X10328637Y-13819775D01*
X10328637Y-13819775D02*
X10309589Y-13819775D01*
X10309589Y-13819775D02*
X10290541Y-13810251D01*
X10290541Y-13810251D02*
X10281018Y-13800727D01*
X10281018Y-13800727D02*
X10271494Y-13781680D01*
X10271494Y-13781680D02*
X10261970Y-13743585D01*
X10261970Y-13743585D02*
X10261970Y-13695965D01*
X10261970Y-13695965D02*
X10271494Y-13657870D01*
X10271494Y-13657870D02*
X10281018Y-13638823D01*
X10281018Y-13638823D02*
X10290541Y-13629299D01*
X10290541Y-13629299D02*
X10309589Y-13619775D01*
X10500065Y-13619775D02*
X10519113Y-13619775D01*
X10519113Y-13619775D02*
X10538160Y-13629299D01*
X10538160Y-13629299D02*
X10547684Y-13638823D01*
X10547684Y-13638823D02*
X10557208Y-13657870D01*
X10557208Y-13657870D02*
X10566732Y-13695965D01*
X10566732Y-13695965D02*
X10566732Y-13743585D01*
X10566732Y-13743585D02*
X10557208Y-13781680D01*
X10557208Y-13781680D02*
X10547684Y-13800727D01*
X10547684Y-13800727D02*
X10538160Y-13810251D01*
X10538160Y-13810251D02*
X10519113Y-13819775D01*
X10519113Y-13819775D02*
X10500065Y-13819775D01*
X10500065Y-13819775D02*
X10481018Y-13810251D01*
X10481018Y-13810251D02*
X10471494Y-13800727D01*
X10471494Y-13800727D02*
X10461970Y-13781680D01*
X10461970Y-13781680D02*
X10452446Y-13743585D01*
X10452446Y-13743585D02*
X10452446Y-13695965D01*
X10452446Y-13695965D02*
X10461970Y-13657870D01*
X10461970Y-13657870D02*
X10471494Y-13638823D01*
X10471494Y-13638823D02*
X10481018Y-13629299D01*
X10481018Y-13629299D02*
X10500065Y-13619775D01*
X10690541Y-13619775D02*
X10709589Y-13619775D01*
X10709589Y-13619775D02*
X10728637Y-13629299D01*
X10728637Y-13629299D02*
X10738160Y-13638823D01*
X10738160Y-13638823D02*
X10747684Y-13657870D01*
X10747684Y-13657870D02*
X10757208Y-13695965D01*
X10757208Y-13695965D02*
X10757208Y-13743585D01*
X10757208Y-13743585D02*
X10747684Y-13781680D01*
X10747684Y-13781680D02*
X10738160Y-13800727D01*
X10738160Y-13800727D02*
X10728637Y-13810251D01*
X10728637Y-13810251D02*
X10709589Y-13819775D01*
X10709589Y-13819775D02*
X10690541Y-13819775D01*
X10690541Y-13819775D02*
X10671494Y-13810251D01*
X10671494Y-13810251D02*
X10661970Y-13800727D01*
X10661970Y-13800727D02*
X10652446Y-13781680D01*
X10652446Y-13781680D02*
X10642922Y-13743585D01*
X10642922Y-13743585D02*
X10642922Y-13695965D01*
X10642922Y-13695965D02*
X10652446Y-13657870D01*
X10652446Y-13657870D02*
X10661970Y-13638823D01*
X10661970Y-13638823D02*
X10671494Y-13629299D01*
X10671494Y-13629299D02*
X10690541Y-13619775D01*
X10842922Y-13819775D02*
X10842922Y-13686442D01*
X10842922Y-13705489D02*
X10852446Y-13695965D01*
X10852446Y-13695965D02*
X10871494Y-13686442D01*
X10871494Y-13686442D02*
X10900065Y-13686442D01*
X10900065Y-13686442D02*
X10919113Y-13695965D01*
X10919113Y-13695965D02*
X10928637Y-13715013D01*
X10928637Y-13715013D02*
X10928637Y-13819775D01*
X10928637Y-13715013D02*
X10938160Y-13695965D01*
X10938160Y-13695965D02*
X10957208Y-13686442D01*
X10957208Y-13686442D02*
X10985779Y-13686442D01*
X10985779Y-13686442D02*
X11004827Y-13695965D01*
X11004827Y-13695965D02*
X11014351Y-13715013D01*
X11014351Y-13715013D02*
X11014351Y-13819775D01*
X11109589Y-13819775D02*
X11109589Y-13686442D01*
X11109589Y-13705489D02*
X11119113Y-13695965D01*
X11119113Y-13695965D02*
X11138160Y-13686442D01*
X11138160Y-13686442D02*
X11166732Y-13686442D01*
X11166732Y-13686442D02*
X11185779Y-13695965D01*
X11185779Y-13695965D02*
X11195303Y-13715013D01*
X11195303Y-13715013D02*
X11195303Y-13819775D01*
X11195303Y-13715013D02*
X11204827Y-13695965D01*
X11204827Y-13695965D02*
X11223875Y-13686442D01*
X11223875Y-13686442D02*
X11252446Y-13686442D01*
X11252446Y-13686442D02*
X11271494Y-13695965D01*
X11271494Y-13695965D02*
X11281018Y-13715013D01*
X11281018Y-13715013D02*
X11281018Y-13819775D01*
X11671494Y-13610251D02*
X11500065Y-13867394D01*
X11928637Y-13619775D02*
X11947684Y-13619775D01*
X11947684Y-13619775D02*
X11966732Y-13629299D01*
X11966732Y-13629299D02*
X11976256Y-13638823D01*
X11976256Y-13638823D02*
X11985780Y-13657870D01*
X11985780Y-13657870D02*
X11995303Y-13695965D01*
X11995303Y-13695965D02*
X11995303Y-13743585D01*
X11995303Y-13743585D02*
X11985780Y-13781680D01*
X11985780Y-13781680D02*
X11976256Y-13800727D01*
X11976256Y-13800727D02*
X11966732Y-13810251D01*
X11966732Y-13810251D02*
X11947684Y-13819775D01*
X11947684Y-13819775D02*
X11928637Y-13819775D01*
X11928637Y-13819775D02*
X11909589Y-13810251D01*
X11909589Y-13810251D02*
X11900065Y-13800727D01*
X11900065Y-13800727D02*
X11890541Y-13781680D01*
X11890541Y-13781680D02*
X11881018Y-13743585D01*
X11881018Y-13743585D02*
X11881018Y-13695965D01*
X11881018Y-13695965D02*
X11890541Y-13657870D01*
X11890541Y-13657870D02*
X11900065Y-13638823D01*
X11900065Y-13638823D02*
X11909589Y-13629299D01*
X11909589Y-13629299D02*
X11928637Y-13619775D01*
X12081018Y-13800727D02*
X12090541Y-13810251D01*
X12090541Y-13810251D02*
X12081018Y-13819775D01*
X12081018Y-13819775D02*
X12071494Y-13810251D01*
X12071494Y-13810251D02*
X12081018Y-13800727D01*
X12081018Y-13800727D02*
X12081018Y-13819775D01*
X12214351Y-13619775D02*
X12233399Y-13619775D01*
X12233399Y-13619775D02*
X12252446Y-13629299D01*
X12252446Y-13629299D02*
X12261970Y-13638823D01*
X12261970Y-13638823D02*
X12271494Y-13657870D01*
X12271494Y-13657870D02*
X12281018Y-13695965D01*
X12281018Y-13695965D02*
X12281018Y-13743585D01*
X12281018Y-13743585D02*
X12271494Y-13781680D01*
X12271494Y-13781680D02*
X12261970Y-13800727D01*
X12261970Y-13800727D02*
X12252446Y-13810251D01*
X12252446Y-13810251D02*
X12233399Y-13819775D01*
X12233399Y-13819775D02*
X12214351Y-13819775D01*
X12214351Y-13819775D02*
X12195303Y-13810251D01*
X12195303Y-13810251D02*
X12185780Y-13800727D01*
X12185780Y-13800727D02*
X12176256Y-13781680D01*
X12176256Y-13781680D02*
X12166732Y-13743585D01*
X12166732Y-13743585D02*
X12166732Y-13695965D01*
X12166732Y-13695965D02*
X12176256Y-13657870D01*
X12176256Y-13657870D02*
X12185780Y-13638823D01*
X12185780Y-13638823D02*
X12195303Y-13629299D01*
X12195303Y-13629299D02*
X12214351Y-13619775D01*
X12347684Y-13619775D02*
X12471494Y-13619775D01*
X12471494Y-13619775D02*
X12404827Y-13695965D01*
X12404827Y-13695965D02*
X12433399Y-13695965D01*
X12433399Y-13695965D02*
X12452446Y-13705489D01*
X12452446Y-13705489D02*
X12461970Y-13715013D01*
X12461970Y-13715013D02*
X12471494Y-13734061D01*
X12471494Y-13734061D02*
X12471494Y-13781680D01*
X12471494Y-13781680D02*
X12461970Y-13800727D01*
X12461970Y-13800727D02*
X12452446Y-13810251D01*
X12452446Y-13810251D02*
X12433399Y-13819775D01*
X12433399Y-13819775D02*
X12376256Y-13819775D01*
X12376256Y-13819775D02*
X12357208Y-13810251D01*
X12357208Y-13810251D02*
X12347684Y-13800727D01*
X12566732Y-13819775D02*
X12604827Y-13819775D01*
X12604827Y-13819775D02*
X12623875Y-13810251D01*
X12623875Y-13810251D02*
X12633399Y-13800727D01*
X12633399Y-13800727D02*
X12652446Y-13772156D01*
X12652446Y-13772156D02*
X12661970Y-13734061D01*
X12661970Y-13734061D02*
X12661970Y-13657870D01*
X12661970Y-13657870D02*
X12652446Y-13638823D01*
X12652446Y-13638823D02*
X12642922Y-13629299D01*
X12642922Y-13629299D02*
X12623875Y-13619775D01*
X12623875Y-13619775D02*
X12585780Y-13619775D01*
X12585780Y-13619775D02*
X12566732Y-13629299D01*
X12566732Y-13629299D02*
X12557208Y-13638823D01*
X12557208Y-13638823D02*
X12547684Y-13657870D01*
X12547684Y-13657870D02*
X12547684Y-13705489D01*
X12547684Y-13705489D02*
X12557208Y-13724537D01*
X12557208Y-13724537D02*
X12566732Y-13734061D01*
X12566732Y-13734061D02*
X12585780Y-13743585D01*
X12585780Y-13743585D02*
X12623875Y-13743585D01*
X12623875Y-13743585D02*
X12642922Y-13734061D01*
X12642922Y-13734061D02*
X12652446Y-13724537D01*
X12652446Y-13724537D02*
X12661970Y-13705489D01*
X12833399Y-13686442D02*
X12833399Y-13819775D01*
X12785780Y-13610251D02*
X12738161Y-13753108D01*
X12738161Y-13753108D02*
X12861970Y-13753108D01*
X12928637Y-13619775D02*
X12928637Y-13657870D01*
X13004827Y-13619775D02*
X13004827Y-13657870D01*
X13300065Y-13895965D02*
X13290542Y-13886442D01*
X13290542Y-13886442D02*
X13271494Y-13857870D01*
X13271494Y-13857870D02*
X13261970Y-13838823D01*
X13261970Y-13838823D02*
X13252446Y-13810251D01*
X13252446Y-13810251D02*
X13242923Y-13762632D01*
X13242923Y-13762632D02*
X13242923Y-13724537D01*
X13242923Y-13724537D02*
X13252446Y-13676918D01*
X13252446Y-13676918D02*
X13261970Y-13648346D01*
X13261970Y-13648346D02*
X13271494Y-13629299D01*
X13271494Y-13629299D02*
X13290542Y-13600727D01*
X13290542Y-13600727D02*
X13300065Y-13591204D01*
X13366732Y-13638823D02*
X13376256Y-13629299D01*
X13376256Y-13629299D02*
X13395303Y-13619775D01*
X13395303Y-13619775D02*
X13442923Y-13619775D01*
X13442923Y-13619775D02*
X13461970Y-13629299D01*
X13461970Y-13629299D02*
X13471494Y-13638823D01*
X13471494Y-13638823D02*
X13481018Y-13657870D01*
X13481018Y-13657870D02*
X13481018Y-13676918D01*
X13481018Y-13676918D02*
X13471494Y-13705489D01*
X13471494Y-13705489D02*
X13357208Y-13819775D01*
X13357208Y-13819775D02*
X13481018Y-13819775D01*
X13604827Y-13619775D02*
X13623875Y-13619775D01*
X13623875Y-13619775D02*
X13642923Y-13629299D01*
X13642923Y-13629299D02*
X13652446Y-13638823D01*
X13652446Y-13638823D02*
X13661970Y-13657870D01*
X13661970Y-13657870D02*
X13671494Y-13695965D01*
X13671494Y-13695965D02*
X13671494Y-13743585D01*
X13671494Y-13743585D02*
X13661970Y-13781680D01*
X13661970Y-13781680D02*
X13652446Y-13800727D01*
X13652446Y-13800727D02*
X13642923Y-13810251D01*
X13642923Y-13810251D02*
X13623875Y-13819775D01*
X13623875Y-13819775D02*
X13604827Y-13819775D01*
X13604827Y-13819775D02*
X13585780Y-13810251D01*
X13585780Y-13810251D02*
X13576256Y-13800727D01*
X13576256Y-13800727D02*
X13566732Y-13781680D01*
X13566732Y-13781680D02*
X13557208Y-13743585D01*
X13557208Y-13743585D02*
X13557208Y-13695965D01*
X13557208Y-13695965D02*
X13566732Y-13657870D01*
X13566732Y-13657870D02*
X13576256Y-13638823D01*
X13576256Y-13638823D02*
X13585780Y-13629299D01*
X13585780Y-13629299D02*
X13604827Y-13619775D01*
X13909589Y-13819775D02*
X13909589Y-13619775D01*
X13995304Y-13819775D02*
X13995304Y-13715013D01*
X13995304Y-13715013D02*
X13985780Y-13695965D01*
X13985780Y-13695965D02*
X13966732Y-13686442D01*
X13966732Y-13686442D02*
X13938161Y-13686442D01*
X13938161Y-13686442D02*
X13919113Y-13695965D01*
X13919113Y-13695965D02*
X13909589Y-13705489D01*
X14119113Y-13819775D02*
X14100065Y-13810251D01*
X14100065Y-13810251D02*
X14090542Y-13800727D01*
X14090542Y-13800727D02*
X14081018Y-13781680D01*
X14081018Y-13781680D02*
X14081018Y-13724537D01*
X14081018Y-13724537D02*
X14090542Y-13705489D01*
X14090542Y-13705489D02*
X14100065Y-13695965D01*
X14100065Y-13695965D02*
X14119113Y-13686442D01*
X14119113Y-13686442D02*
X14147685Y-13686442D01*
X14147685Y-13686442D02*
X14166732Y-13695965D01*
X14166732Y-13695965D02*
X14176256Y-13705489D01*
X14176256Y-13705489D02*
X14185780Y-13724537D01*
X14185780Y-13724537D02*
X14185780Y-13781680D01*
X14185780Y-13781680D02*
X14176256Y-13800727D01*
X14176256Y-13800727D02*
X14166732Y-13810251D01*
X14166732Y-13810251D02*
X14147685Y-13819775D01*
X14147685Y-13819775D02*
X14119113Y-13819775D01*
X14300065Y-13819775D02*
X14281018Y-13810251D01*
X14281018Y-13810251D02*
X14271494Y-13791204D01*
X14271494Y-13791204D02*
X14271494Y-13619775D01*
X14452446Y-13810251D02*
X14433399Y-13819775D01*
X14433399Y-13819775D02*
X14395304Y-13819775D01*
X14395304Y-13819775D02*
X14376256Y-13810251D01*
X14376256Y-13810251D02*
X14366732Y-13791204D01*
X14366732Y-13791204D02*
X14366732Y-13715013D01*
X14366732Y-13715013D02*
X14376256Y-13695965D01*
X14376256Y-13695965D02*
X14395304Y-13686442D01*
X14395304Y-13686442D02*
X14433399Y-13686442D01*
X14433399Y-13686442D02*
X14452446Y-13695965D01*
X14452446Y-13695965D02*
X14461970Y-13715013D01*
X14461970Y-13715013D02*
X14461970Y-13734061D01*
X14461970Y-13734061D02*
X14366732Y-13753108D01*
X14538161Y-13810251D02*
X14557208Y-13819775D01*
X14557208Y-13819775D02*
X14595304Y-13819775D01*
X14595304Y-13819775D02*
X14614351Y-13810251D01*
X14614351Y-13810251D02*
X14623875Y-13791204D01*
X14623875Y-13791204D02*
X14623875Y-13781680D01*
X14623875Y-13781680D02*
X14614351Y-13762632D01*
X14614351Y-13762632D02*
X14595304Y-13753108D01*
X14595304Y-13753108D02*
X14566732Y-13753108D01*
X14566732Y-13753108D02*
X14547685Y-13743585D01*
X14547685Y-13743585D02*
X14538161Y-13724537D01*
X14538161Y-13724537D02*
X14538161Y-13715013D01*
X14538161Y-13715013D02*
X14547685Y-13695965D01*
X14547685Y-13695965D02*
X14566732Y-13686442D01*
X14566732Y-13686442D02*
X14595304Y-13686442D01*
X14595304Y-13686442D02*
X14614351Y-13695965D01*
X14690542Y-13895965D02*
X14700066Y-13886442D01*
X14700066Y-13886442D02*
X14719113Y-13857870D01*
X14719113Y-13857870D02*
X14728637Y-13838823D01*
X14728637Y-13838823D02*
X14738161Y-13810251D01*
X14738161Y-13810251D02*
X14747685Y-13762632D01*
X14747685Y-13762632D02*
X14747685Y-13724537D01*
X14747685Y-13724537D02*
X14738161Y-13676918D01*
X14738161Y-13676918D02*
X14728637Y-13648346D01*
X14728637Y-13648346D02*
X14719113Y-13629299D01*
X14719113Y-13629299D02*
X14700066Y-13600727D01*
X14700066Y-13600727D02*
X14690542Y-13591204D01*
M02*
