%TF.GenerationSoftware,KiCad,Pcbnew,7.0.7*%
%TF.CreationDate,2024-01-08T08:14:44+08:00*%
%TF.ProjectId,IIDX_Cap_Controller,49494458-5f43-4617-905f-436f6e74726f,rev?*%
%TF.SameCoordinates,Original*%
%TF.FileFunction,Drillmap*%
%TF.FilePolarity,Positive*%
%FSLAX45Y45*%
G04 Gerber Fmt 4.5, Leading zero omitted, Abs format (unit mm)*
G04 Created by KiCad (PCBNEW 7.0.7) date 2024-01-08 08:14:44*
%MOMM*%
%LPD*%
G01*
G04 APERTURE LIST*
%ADD10C,0.100000*%
%ADD11C,0.200000*%
G04 APERTURE END LIST*
D10*
X9730003Y-3177291D02*
X19636003Y-3177291D01*
X19636003Y-13083291D01*
X9730003Y-13083291D01*
X9730003Y-3177291D01*
D11*
X9985779Y-13399775D02*
X9985779Y-13199775D01*
X9985779Y-13199775D02*
X10033398Y-13199775D01*
X10033398Y-13199775D02*
X10061970Y-13209299D01*
X10061970Y-13209299D02*
X10081018Y-13228346D01*
X10081018Y-13228346D02*
X10090541Y-13247394D01*
X10090541Y-13247394D02*
X10100065Y-13285489D01*
X10100065Y-13285489D02*
X10100065Y-13314061D01*
X10100065Y-13314061D02*
X10090541Y-13352156D01*
X10090541Y-13352156D02*
X10081018Y-13371204D01*
X10081018Y-13371204D02*
X10061970Y-13390251D01*
X10061970Y-13390251D02*
X10033398Y-13399775D01*
X10033398Y-13399775D02*
X9985779Y-13399775D01*
X10185779Y-13399775D02*
X10185779Y-13266442D01*
X10185779Y-13304537D02*
X10195303Y-13285489D01*
X10195303Y-13285489D02*
X10204827Y-13275965D01*
X10204827Y-13275965D02*
X10223875Y-13266442D01*
X10223875Y-13266442D02*
X10242922Y-13266442D01*
X10309589Y-13399775D02*
X10309589Y-13266442D01*
X10309589Y-13199775D02*
X10300065Y-13209299D01*
X10300065Y-13209299D02*
X10309589Y-13218823D01*
X10309589Y-13218823D02*
X10319113Y-13209299D01*
X10319113Y-13209299D02*
X10309589Y-13199775D01*
X10309589Y-13199775D02*
X10309589Y-13218823D01*
X10433398Y-13399775D02*
X10414351Y-13390251D01*
X10414351Y-13390251D02*
X10404827Y-13371204D01*
X10404827Y-13371204D02*
X10404827Y-13199775D01*
X10538160Y-13399775D02*
X10519113Y-13390251D01*
X10519113Y-13390251D02*
X10509589Y-13371204D01*
X10509589Y-13371204D02*
X10509589Y-13199775D01*
X10766732Y-13399775D02*
X10766732Y-13199775D01*
X10766732Y-13199775D02*
X10833399Y-13342632D01*
X10833399Y-13342632D02*
X10900065Y-13199775D01*
X10900065Y-13199775D02*
X10900065Y-13399775D01*
X11081018Y-13399775D02*
X11081018Y-13295013D01*
X11081018Y-13295013D02*
X11071494Y-13275965D01*
X11071494Y-13275965D02*
X11052446Y-13266442D01*
X11052446Y-13266442D02*
X11014351Y-13266442D01*
X11014351Y-13266442D02*
X10995303Y-13275965D01*
X11081018Y-13390251D02*
X11061970Y-13399775D01*
X11061970Y-13399775D02*
X11014351Y-13399775D01*
X11014351Y-13399775D02*
X10995303Y-13390251D01*
X10995303Y-13390251D02*
X10985779Y-13371204D01*
X10985779Y-13371204D02*
X10985779Y-13352156D01*
X10985779Y-13352156D02*
X10995303Y-13333108D01*
X10995303Y-13333108D02*
X11014351Y-13323585D01*
X11014351Y-13323585D02*
X11061970Y-13323585D01*
X11061970Y-13323585D02*
X11081018Y-13314061D01*
X11176256Y-13266442D02*
X11176256Y-13466442D01*
X11176256Y-13275965D02*
X11195303Y-13266442D01*
X11195303Y-13266442D02*
X11233398Y-13266442D01*
X11233398Y-13266442D02*
X11252446Y-13275965D01*
X11252446Y-13275965D02*
X11261970Y-13285489D01*
X11261970Y-13285489D02*
X11271494Y-13304537D01*
X11271494Y-13304537D02*
X11271494Y-13361680D01*
X11271494Y-13361680D02*
X11261970Y-13380727D01*
X11261970Y-13380727D02*
X11252446Y-13390251D01*
X11252446Y-13390251D02*
X11233398Y-13399775D01*
X11233398Y-13399775D02*
X11195303Y-13399775D01*
X11195303Y-13399775D02*
X11176256Y-13390251D01*
X11357208Y-13380727D02*
X11366732Y-13390251D01*
X11366732Y-13390251D02*
X11357208Y-13399775D01*
X11357208Y-13399775D02*
X11347684Y-13390251D01*
X11347684Y-13390251D02*
X11357208Y-13380727D01*
X11357208Y-13380727D02*
X11357208Y-13399775D01*
X11357208Y-13275965D02*
X11366732Y-13285489D01*
X11366732Y-13285489D02*
X11357208Y-13295013D01*
X11357208Y-13295013D02*
X11347684Y-13285489D01*
X11347684Y-13285489D02*
X11357208Y-13275965D01*
X11357208Y-13275965D02*
X11357208Y-13295013D01*
M02*
