%TF.GenerationSoftware,KiCad,Pcbnew,7.0.7*%
%TF.CreationDate,2024-01-08T08:14:38+08:00*%
%TF.ProjectId,IIDX_Cap_Controller,49494458-5f43-4617-905f-436f6e74726f,rev?*%
%TF.SameCoordinates,Original*%
%TF.FileFunction,Copper,L2,Bot*%
%TF.FilePolarity,Positive*%
%FSLAX46Y46*%
G04 Gerber Fmt 4.6, Leading zero omitted, Abs format (unit mm)*
G04 Created by KiCad (PCBNEW 7.0.7) date 2024-01-08 08:14:38*
%MOMM*%
%LPD*%
G01*
G04 APERTURE LIST*
G04 Aperture macros list*
%AMRoundRect*
0 Rectangle with rounded corners*
0 $1 Rounding radius*
0 $2 $3 $4 $5 $6 $7 $8 $9 X,Y pos of 4 corners*
0 Add a 4 corners polygon primitive as box body*
4,1,4,$2,$3,$4,$5,$6,$7,$8,$9,$2,$3,0*
0 Add four circle primitives for the rounded corners*
1,1,$1+$1,$2,$3*
1,1,$1+$1,$4,$5*
1,1,$1+$1,$6,$7*
1,1,$1+$1,$8,$9*
0 Add four rect primitives between the rounded corners*
20,1,$1+$1,$2,$3,$4,$5,0*
20,1,$1+$1,$4,$5,$6,$7,0*
20,1,$1+$1,$6,$7,$8,$9,0*
20,1,$1+$1,$8,$9,$2,$3,0*%
G04 Aperture macros list end*
%TA.AperFunction,ComponentPad*%
%ADD10R,1.700000X1.700000*%
%TD*%
%TA.AperFunction,ComponentPad*%
%ADD11O,1.700000X1.700000*%
%TD*%
%TA.AperFunction,SMDPad,CuDef*%
%ADD12RoundRect,6.782594X6.782593X14.585156X-6.782593X14.585156X-6.782593X-14.585156X6.782593X-14.585156X0*%
%TD*%
%TA.AperFunction,SMDPad,CuDef*%
%ADD13R,1.000000X2.510000*%
%TD*%
%TA.AperFunction,SMDPad,CuDef*%
%ADD14R,1.700000X3.500000*%
%TD*%
%TA.AperFunction,SMDPad,CuDef*%
%ADD15R,3.500000X1.700000*%
%TD*%
%TA.AperFunction,Conductor*%
%ADD16C,0.250000*%
%TD*%
%TA.AperFunction,Conductor*%
%ADD17C,1.000000*%
%TD*%
G04 APERTURE END LIST*
D10*
%TO.P,J8,1,Pin_1*%
%TO.N,Net-(J12-Pin_1)*%
X169899833Y-80527328D03*
D11*
%TO.P,J8,2,Pin_2*%
%TO.N,Net-(J1-Pin_1)*%
X172439833Y-80527328D03*
%TO.P,J8,3,Pin_3*%
%TO.N,Net-(J12-Pin_3)*%
X174979833Y-80527328D03*
%TO.P,J8,4,Pin_4*%
%TO.N,Net-(J12-Pin_4)*%
X177519833Y-80527328D03*
%TO.P,J8,5,Pin_5*%
%TO.N,Net-(J12-Pin_5)*%
X180059833Y-80527328D03*
%TO.P,J8,6,Pin_6*%
%TO.N,Net-(J12-Pin_6)*%
X182599833Y-80527328D03*
%TO.P,J8,7,Pin_7*%
%TO.N,Net-(J12-Pin_7)*%
X185139833Y-80527328D03*
%TO.P,J8,8,Pin_8*%
%TO.N,Net-(J12-Pin_8)*%
X187679833Y-80527328D03*
%TD*%
D12*
%TO.P,J7,1,Pin_1*%
%TO.N,Net-(J12-Pin_8)*%
X171931753Y-109775786D03*
%TD*%
D13*
%TO.P,J12,1,Pin_1*%
%TO.N,Net-(J12-Pin_1)*%
X133827731Y-122713728D03*
%TO.P,J12,2,Pin_2*%
%TO.N,Net-(J1-Pin_1)*%
X136367731Y-126023728D03*
%TO.P,J12,3,Pin_3*%
%TO.N,Net-(J12-Pin_3)*%
X138907731Y-122713728D03*
%TO.P,J12,4,Pin_4*%
%TO.N,Net-(J12-Pin_4)*%
X141447731Y-126023728D03*
%TO.P,J12,5,Pin_5*%
%TO.N,Net-(J12-Pin_5)*%
X143987731Y-122713728D03*
%TO.P,J12,6,Pin_6*%
%TO.N,Net-(J12-Pin_6)*%
X146527731Y-126023728D03*
%TO.P,J12,7,Pin_7*%
%TO.N,Net-(J12-Pin_7)*%
X149067731Y-122713728D03*
%TO.P,J12,8,Pin_8*%
%TO.N,Net-(J12-Pin_8)*%
X151607731Y-126023728D03*
%TD*%
D10*
%TO.P,J11,1,Pin_1*%
%TO.N,+3.3V*%
X131788508Y-81180273D03*
D11*
%TO.P,J11,2,Pin_2*%
%TO.N,unconnected-(J11-Pin_2-Pad2)*%
X134328508Y-81180273D03*
%TO.P,J11,3,Pin_3*%
%TO.N,/SCL2*%
X136868508Y-81180273D03*
%TO.P,J11,4,Pin_4*%
%TO.N,/SDA2*%
X139408508Y-81180273D03*
%TO.P,J11,5,Pin_5*%
%TO.N,unconnected-(J11-Pin_5-Pad5)*%
X141948508Y-81180273D03*
%TO.P,J11,6,Pin_6*%
%TO.N,GND*%
X144488508Y-81180273D03*
%TD*%
D14*
%TO.P,RP0,1,Pin_1*%
%TO.N,unconnected-(RP0-Pin_1-Pad1)*%
X100864654Y-50985093D03*
%TO.P,RP0,2,Pin_2*%
%TO.N,unconnected-(RP0-Pin_2-Pad2)*%
X103404654Y-50985093D03*
%TO.P,RP0,3,Pin_3*%
%TO.N,unconnected-(RP0-Pin_3-Pad3)*%
X105944654Y-50985093D03*
%TO.P,RP0,4,Pin_4*%
%TO.N,unconnected-(RP0-Pin_4-Pad4)*%
X108484654Y-50985093D03*
%TO.P,RP0,5,Pin_5*%
%TO.N,unconnected-(RP0-Pin_5-Pad5)*%
X111024654Y-50985093D03*
%TO.P,RP0,6,Pin_6*%
%TO.N,unconnected-(RP0-Pin_6-Pad6)*%
X113564654Y-50985093D03*
%TO.P,RP0,7,Pin_7*%
%TO.N,unconnected-(RP0-Pin_7-Pad7)*%
X116104654Y-50985093D03*
%TO.P,RP0,8,Pin_8*%
%TO.N,unconnected-(RP0-Pin_8-Pad8)*%
X118644654Y-50985093D03*
%TO.P,RP0,9,Pin_9*%
%TO.N,unconnected-(RP0-Pin_9-Pad9)*%
X121184654Y-50985093D03*
%TO.P,RP0,10,Pin_10*%
%TO.N,unconnected-(RP0-Pin_10-Pad10)*%
X123724654Y-50985093D03*
%TO.P,RP0,11,Pin_11*%
%TO.N,unconnected-(RP0-Pin_11-Pad11)*%
X126264654Y-50985093D03*
%TO.P,RP0,12,Pin_12*%
%TO.N,unconnected-(RP0-Pin_12-Pad12)*%
X128804654Y-50985093D03*
%TO.P,RP0,13,Pin_13*%
%TO.N,unconnected-(RP0-Pin_13-Pad13)*%
X131344654Y-50985093D03*
%TO.P,RP0,14,Pin_14*%
%TO.N,unconnected-(RP0-Pin_14-Pad14)*%
X133884654Y-50985093D03*
%TO.P,RP0,15,Pin_15*%
%TO.N,unconnected-(RP0-Pin_15-Pad15)*%
X136424654Y-50985093D03*
%TO.P,RP0,16,Pin_16*%
%TO.N,unconnected-(RP0-Pin_16-Pad16)*%
X138964654Y-50985093D03*
%TO.P,RP0,17,Pin_17*%
%TO.N,unconnected-(RP0-Pin_17-Pad17)*%
X141504654Y-50985093D03*
%TO.P,RP0,18,Pin_18*%
%TO.N,unconnected-(RP0-Pin_18-Pad18)*%
X144044654Y-50985093D03*
%TO.P,RP0,19,Pin_19*%
%TO.N,unconnected-(RP0-Pin_19-Pad19)*%
X146584654Y-50985093D03*
%TO.P,RP0,20,Pin_20*%
%TO.N,unconnected-(RP0-Pin_20-Pad20)*%
X149124654Y-50985093D03*
%TO.P,RP0,21,Pin_21*%
%TO.N,unconnected-(RP0-Pin_21-Pad21)*%
X149124654Y-70565093D03*
%TO.P,RP0,22,Pin_22*%
%TO.N,unconnected-(RP0-Pin_22-Pad22)*%
X146584654Y-70565093D03*
%TO.P,RP0,23,Pin_23*%
%TO.N,unconnected-(RP0-Pin_23-Pad23)*%
X144044654Y-70565093D03*
%TO.P,RP0,24,Pin_24*%
%TO.N,unconnected-(RP0-Pin_24-Pad24)*%
X141504654Y-70565093D03*
%TO.P,RP0,25,Pin_25*%
%TO.N,unconnected-(RP0-Pin_25-Pad25)*%
X138964654Y-70565093D03*
%TO.P,RP0,26,Pin_26*%
%TO.N,/SDA2*%
X136424654Y-70565093D03*
%TO.P,RP0,27,Pin_27*%
%TO.N,/SCL2*%
X133884654Y-70565093D03*
%TO.P,RP0,28,Pin_28*%
%TO.N,GND*%
X131344654Y-70565093D03*
%TO.P,RP0,29,Pin_29*%
%TO.N,unconnected-(RP0-Pin_29-Pad29)*%
X128804654Y-70565093D03*
%TO.P,RP0,30,Pin_30*%
%TO.N,unconnected-(RP0-Pin_30-Pad30)*%
X126264654Y-70565093D03*
%TO.P,RP0,31,Pin_31*%
%TO.N,/SDA1*%
X123724654Y-70565093D03*
%TO.P,RP0,32,Pin_32*%
%TO.N,/SCL1*%
X121184654Y-70565093D03*
%TO.P,RP0,33,Pin_33*%
%TO.N,unconnected-(RP0-Pin_33-Pad33)*%
X118644654Y-70565093D03*
%TO.P,RP0,34,Pin_34*%
%TO.N,unconnected-(RP0-Pin_34-Pad34)*%
X116104654Y-70565093D03*
%TO.P,RP0,35,Pin_35*%
%TO.N,unconnected-(RP0-Pin_35-Pad35)*%
X113564654Y-70565093D03*
%TO.P,RP0,36,Pin_36*%
%TO.N,+3.3V*%
X111024654Y-70565093D03*
%TO.P,RP0,37,Pin_37*%
%TO.N,unconnected-(RP0-Pin_37-Pad37)*%
X108484654Y-70565093D03*
%TO.P,RP0,38,Pin_38*%
%TO.N,GND*%
X105944654Y-70565093D03*
%TO.P,RP0,39,Pin_39*%
%TO.N,unconnected-(RP0-Pin_39-Pad39)*%
X103404654Y-70565093D03*
%TO.P,RP0,40,Pin_40*%
%TO.N,unconnected-(RP0-Pin_40-Pad40)*%
X100864654Y-70565093D03*
D15*
%TO.P,RP0,41*%
%TO.N,N/C*%
X149794654Y-58235093D03*
%TO.P,RP0,42*%
X149794654Y-60775093D03*
%TO.P,RP0,43*%
X149794654Y-63315093D03*
%TD*%
D12*
%TO.P,J6,1,Pin_1*%
%TO.N,Net-(J12-Pin_7)*%
X188726723Y-53989715D03*
%TD*%
D10*
%TO.P,J10,1,Pin_1*%
%TO.N,+3.3V*%
X100619644Y-81310065D03*
D11*
%TO.P,J10,2,Pin_2*%
%TO.N,unconnected-(J10-Pin_2-Pad2)*%
X103159644Y-81310065D03*
%TO.P,J10,3,Pin_3*%
%TO.N,/SCL1*%
X105699644Y-81310065D03*
%TO.P,J10,4,Pin_4*%
%TO.N,/SDA1*%
X108239644Y-81310065D03*
%TO.P,J10,5,Pin_5*%
%TO.N,unconnected-(J10-Pin_5-Pad5)*%
X110779644Y-81310065D03*
%TO.P,J10,6,Pin_6*%
%TO.N,GND*%
X113319644Y-81310065D03*
%TD*%
D16*
%TO.N,Net-(J12-Pin_7)*%
X149067731Y-122713728D02*
X149054561Y-122700558D01*
X149054561Y-122700558D02*
X149054561Y-95143401D01*
X149054561Y-95143401D02*
X158951804Y-85246158D01*
X158951804Y-85246158D02*
X180421003Y-85246158D01*
X180421003Y-85246158D02*
X185139833Y-80527328D01*
%TO.N,Net-(J12-Pin_6)*%
X158765408Y-84796158D02*
X146527731Y-97033835D01*
X182599833Y-80527328D02*
X178331003Y-84796158D01*
X178331003Y-84796158D02*
X158765408Y-84796158D01*
X146527731Y-97033835D02*
X146527731Y-126023728D01*
%TO.N,GND*%
X108399757Y-67209990D02*
X128889551Y-67209990D01*
X128889551Y-67209990D02*
X131344654Y-69665093D01*
X105944654Y-69665093D02*
X108399757Y-67209990D01*
%TO.N,Net-(J1-Pin_1)*%
X136367731Y-104506017D02*
X136367731Y-126023728D01*
X169971003Y-82996158D02*
X157877590Y-82996158D01*
X157877590Y-82996158D02*
X136367731Y-104506017D01*
X172439833Y-80527328D02*
X169971003Y-82996158D01*
%TO.N,/SCL2*%
X133884654Y-78196419D02*
X133884654Y-69665093D01*
X136868508Y-81180273D02*
X133884654Y-78196419D01*
%TO.N,/SDA2*%
X136424654Y-78196419D02*
X136424654Y-69665093D01*
X139408508Y-81180273D02*
X136424654Y-78196419D01*
%TO.N,GND*%
X148275314Y-65582731D02*
X135427016Y-65582731D01*
X121309682Y-81310065D02*
X131344654Y-71275093D01*
X150981441Y-74687340D02*
X150981441Y-68288858D01*
X113319644Y-81310065D02*
X121309682Y-81310065D01*
X135427016Y-65582731D02*
X131344654Y-69665093D01*
X144488508Y-81180273D02*
X150981441Y-74687340D01*
X131344654Y-71275093D02*
X131344654Y-69665093D01*
X150981441Y-68288858D02*
X148275314Y-65582731D01*
%TO.N,/SCL1*%
X105699644Y-81310065D02*
X114369616Y-72640093D01*
X121184654Y-71275093D02*
X121184654Y-69665093D01*
X119819654Y-72640093D02*
X121184654Y-71275093D01*
X114369616Y-72640093D02*
X119819654Y-72640093D01*
%TO.N,/SDA1*%
X115452782Y-80135065D02*
X123724654Y-71863193D01*
X109414644Y-80135065D02*
X115452782Y-80135065D01*
X108239644Y-81310065D02*
X109414644Y-80135065D01*
X123724654Y-71863193D02*
X123724654Y-69665093D01*
%TO.N,+3.3V*%
X101794644Y-82485065D02*
X130483716Y-82485065D01*
X130483716Y-82485065D02*
X131788508Y-81180273D01*
X100619644Y-81310065D02*
X100989682Y-81310065D01*
X100989682Y-81310065D02*
X111024654Y-71275093D01*
X100619644Y-81310065D02*
X101794644Y-82485065D01*
X111024654Y-71275093D02*
X111024654Y-69665093D01*
%TO.N,Net-(J12-Pin_3)*%
X158206220Y-83446158D02*
X138907731Y-102744647D01*
X174979833Y-80527328D02*
X172061003Y-83446158D01*
X138907731Y-102744647D02*
X138907731Y-122713728D01*
X172061003Y-83446158D02*
X158206220Y-83446158D01*
%TO.N,Net-(J12-Pin_4)*%
X177519833Y-80527328D02*
X174151003Y-83896158D01*
X174151003Y-83896158D02*
X158392616Y-83896158D01*
X141447731Y-100841043D02*
X141447731Y-126023728D01*
X158392616Y-83896158D02*
X141447731Y-100841043D01*
%TO.N,Net-(J12-Pin_5)*%
X176241003Y-84346158D02*
X158579012Y-84346158D01*
X158579012Y-84346158D02*
X143987731Y-98937439D01*
X180059833Y-80527328D02*
X176241003Y-84346158D01*
X143987731Y-98937439D02*
X143987731Y-122713728D01*
D17*
%TO.N,Net-(J12-Pin_7)*%
X185707434Y-80560786D02*
X185707434Y-57009004D01*
X185707434Y-57009004D02*
X188726723Y-53989715D01*
D16*
%TO.N,Net-(J12-Pin_8)*%
X151607731Y-126023728D02*
X155683811Y-126023728D01*
D17*
X187679833Y-80527328D02*
X187699426Y-80546921D01*
X187699426Y-94008113D02*
X171931753Y-109775786D01*
X187699426Y-80546921D02*
X187699426Y-94008113D01*
D16*
X155683811Y-126023728D02*
X171931753Y-109775786D01*
%TO.N,Net-(J12-Pin_1)*%
X133827731Y-122713728D02*
X133827731Y-106409621D01*
X157691194Y-82546158D02*
X167881003Y-82546158D01*
X133827731Y-106409621D02*
X157691194Y-82546158D01*
X167881003Y-82546158D02*
X169899833Y-80527328D01*
%TD*%
M02*
