%TF.GenerationSoftware,KiCad,Pcbnew,7.0.7*%
%TF.CreationDate,2024-01-08T08:14:38+08:00*%
%TF.ProjectId,IIDX_Cap_Controller,49494458-5f43-4617-905f-436f6e74726f,rev?*%
%TF.SameCoordinates,Original*%
%TF.FileFunction,Legend,Bot*%
%TF.FilePolarity,Positive*%
%FSLAX46Y46*%
G04 Gerber Fmt 4.6, Leading zero omitted, Abs format (unit mm)*
G04 Created by KiCad (PCBNEW 7.0.7) date 2024-01-08 08:14:38*
%MOMM*%
%LPD*%
G01*
G04 APERTURE LIST*
%ADD10C,0.150000*%
%ADD11C,0.200000*%
%ADD12C,0.120000*%
G04 APERTURE END LIST*
D10*
X162768051Y-44955199D02*
X165285380Y-44955199D01*
X165285380Y-46214962D01*
X162768051Y-46214962D01*
X162768051Y-44955199D01*
X127301449Y-35053676D02*
X128561212Y-35053676D01*
X128561212Y-37571005D01*
X127301449Y-37571005D01*
X127301449Y-35053676D01*
X121875496Y-33885833D02*
X137137118Y-33885833D01*
X137137118Y-41464733D01*
X121875496Y-41464733D01*
X121875496Y-33885833D01*
X158874323Y-39529246D02*
X166453223Y-39529246D01*
X166453223Y-54790868D01*
X158874323Y-54790868D01*
X158874323Y-39529246D01*
D11*
X123206259Y-78740000D02*
X153507784Y-78740000D01*
X153507784Y-118888093D01*
X123206259Y-118888093D01*
X123206259Y-78740000D01*
D10*
X165625189Y-51097823D02*
G75*
G03*
X165625189Y-51097823I-2919393J0D01*
G01*
X122804388Y-38071247D02*
X124064151Y-38071247D01*
X124064151Y-40588576D01*
X122804388Y-40588576D01*
X122804388Y-38071247D01*
X159783989Y-42297978D02*
X162261949Y-42297978D01*
X162261949Y-43523866D01*
X159783989Y-43523866D01*
X159783989Y-42297978D01*
X125485047Y-35088832D02*
X126744810Y-35088832D01*
X126744810Y-37606161D01*
X125485047Y-37606161D01*
X125485047Y-35088832D01*
X154832506Y-31418221D02*
X154950635Y-130471881D01*
X136363466Y-37633260D02*
G75*
G03*
X136363466Y-37633260I-2919393J0D01*
G01*
X159803215Y-45901485D02*
X162232653Y-45901485D01*
X162232653Y-47184685D01*
X159803215Y-47184685D01*
X159803215Y-45901485D01*
D11*
X92020682Y-78736795D02*
X122322207Y-78736795D01*
X122322207Y-118884888D01*
X92020682Y-118884888D01*
X92020682Y-78736795D01*
D10*
X159750480Y-40458138D02*
X162267809Y-40458138D01*
X162267809Y-41717901D01*
X159750480Y-41717901D01*
X159750480Y-40458138D01*
X123656926Y-35088832D02*
X124916689Y-35088832D01*
X124916689Y-37606161D01*
X123656926Y-37606161D01*
X123656926Y-35088832D01*
X124644228Y-38077107D02*
X125870116Y-38077107D01*
X125870116Y-40555067D01*
X124644228Y-40555067D01*
X124644228Y-38077107D01*
X126466489Y-38082966D02*
X127709223Y-38082966D01*
X127709223Y-40555067D01*
X126466489Y-40555067D01*
X126466489Y-38082966D01*
X162732895Y-41310676D02*
X165250224Y-41310676D01*
X165250224Y-42570439D01*
X162732895Y-42570439D01*
X162732895Y-41310676D01*
X159783989Y-44120239D02*
X162256090Y-44120239D01*
X162256090Y-45362973D01*
X159783989Y-45362973D01*
X159783989Y-44120239D01*
X162732895Y-43138797D02*
X165250224Y-43138797D01*
X165250224Y-44398560D01*
X162732895Y-44398560D01*
X162732895Y-43138797D01*
X128247735Y-38106403D02*
X129530935Y-38106403D01*
X129530935Y-40535841D01*
X128247735Y-40535841D01*
X128247735Y-38106403D01*
X117728374Y-38950206D02*
X118061707Y-38474015D01*
X118299802Y-38950206D02*
X118299802Y-37950206D01*
X118299802Y-37950206D02*
X117918850Y-37950206D01*
X117918850Y-37950206D02*
X117823612Y-37997825D01*
X117823612Y-37997825D02*
X117775993Y-38045444D01*
X117775993Y-38045444D02*
X117728374Y-38140682D01*
X117728374Y-38140682D02*
X117728374Y-38283539D01*
X117728374Y-38283539D02*
X117775993Y-38378777D01*
X117775993Y-38378777D02*
X117823612Y-38426396D01*
X117823612Y-38426396D02*
X117918850Y-38474015D01*
X117918850Y-38474015D02*
X118299802Y-38474015D01*
X117299802Y-38950206D02*
X117299802Y-37950206D01*
X117299802Y-37950206D02*
X116918850Y-37950206D01*
X116918850Y-37950206D02*
X116823612Y-37997825D01*
X116823612Y-37997825D02*
X116775993Y-38045444D01*
X116775993Y-38045444D02*
X116728374Y-38140682D01*
X116728374Y-38140682D02*
X116728374Y-38283539D01*
X116728374Y-38283539D02*
X116775993Y-38378777D01*
X116775993Y-38378777D02*
X116823612Y-38426396D01*
X116823612Y-38426396D02*
X116918850Y-38474015D01*
X116918850Y-38474015D02*
X117299802Y-38474015D01*
X116299802Y-38950206D02*
X116299802Y-38283539D01*
X116299802Y-37950206D02*
X116347421Y-37997825D01*
X116347421Y-37997825D02*
X116299802Y-38045444D01*
X116299802Y-38045444D02*
X116252183Y-37997825D01*
X116252183Y-37997825D02*
X116299802Y-37950206D01*
X116299802Y-37950206D02*
X116299802Y-38045444D01*
X115061707Y-38950206D02*
X115061707Y-37950206D01*
X115061707Y-37950206D02*
X114680755Y-37950206D01*
X114680755Y-37950206D02*
X114585517Y-37997825D01*
X114585517Y-37997825D02*
X114537898Y-38045444D01*
X114537898Y-38045444D02*
X114490279Y-38140682D01*
X114490279Y-38140682D02*
X114490279Y-38283539D01*
X114490279Y-38283539D02*
X114537898Y-38378777D01*
X114537898Y-38378777D02*
X114585517Y-38426396D01*
X114585517Y-38426396D02*
X114680755Y-38474015D01*
X114680755Y-38474015D02*
X115061707Y-38474015D01*
X114061707Y-38950206D02*
X114061707Y-38283539D01*
X114061707Y-37950206D02*
X114109326Y-37997825D01*
X114109326Y-37997825D02*
X114061707Y-38045444D01*
X114061707Y-38045444D02*
X114014088Y-37997825D01*
X114014088Y-37997825D02*
X114061707Y-37950206D01*
X114061707Y-37950206D02*
X114061707Y-38045444D01*
X113156946Y-38902587D02*
X113252184Y-38950206D01*
X113252184Y-38950206D02*
X113442660Y-38950206D01*
X113442660Y-38950206D02*
X113537898Y-38902587D01*
X113537898Y-38902587D02*
X113585517Y-38854967D01*
X113585517Y-38854967D02*
X113633136Y-38759729D01*
X113633136Y-38759729D02*
X113633136Y-38474015D01*
X113633136Y-38474015D02*
X113585517Y-38378777D01*
X113585517Y-38378777D02*
X113537898Y-38331158D01*
X113537898Y-38331158D02*
X113442660Y-38283539D01*
X113442660Y-38283539D02*
X113252184Y-38283539D01*
X113252184Y-38283539D02*
X113156946Y-38331158D01*
X112585517Y-38950206D02*
X112680755Y-38902587D01*
X112680755Y-38902587D02*
X112728374Y-38854967D01*
X112728374Y-38854967D02*
X112775993Y-38759729D01*
X112775993Y-38759729D02*
X112775993Y-38474015D01*
X112775993Y-38474015D02*
X112728374Y-38378777D01*
X112728374Y-38378777D02*
X112680755Y-38331158D01*
X112680755Y-38331158D02*
X112585517Y-38283539D01*
X112585517Y-38283539D02*
X112442660Y-38283539D01*
X112442660Y-38283539D02*
X112347422Y-38331158D01*
X112347422Y-38331158D02*
X112299803Y-38378777D01*
X112299803Y-38378777D02*
X112252184Y-38474015D01*
X112252184Y-38474015D02*
X112252184Y-38759729D01*
X112252184Y-38759729D02*
X112299803Y-38854967D01*
X112299803Y-38854967D02*
X112347422Y-38902587D01*
X112347422Y-38902587D02*
X112442660Y-38950206D01*
X112442660Y-38950206D02*
X112585517Y-38950206D01*
X110490279Y-38854967D02*
X110537898Y-38902587D01*
X110537898Y-38902587D02*
X110680755Y-38950206D01*
X110680755Y-38950206D02*
X110775993Y-38950206D01*
X110775993Y-38950206D02*
X110918850Y-38902587D01*
X110918850Y-38902587D02*
X111014088Y-38807348D01*
X111014088Y-38807348D02*
X111061707Y-38712110D01*
X111061707Y-38712110D02*
X111109326Y-38521634D01*
X111109326Y-38521634D02*
X111109326Y-38378777D01*
X111109326Y-38378777D02*
X111061707Y-38188301D01*
X111061707Y-38188301D02*
X111014088Y-38093063D01*
X111014088Y-38093063D02*
X110918850Y-37997825D01*
X110918850Y-37997825D02*
X110775993Y-37950206D01*
X110775993Y-37950206D02*
X110680755Y-37950206D01*
X110680755Y-37950206D02*
X110537898Y-37997825D01*
X110537898Y-37997825D02*
X110490279Y-38045444D01*
X109633136Y-38950206D02*
X109633136Y-38426396D01*
X109633136Y-38426396D02*
X109680755Y-38331158D01*
X109680755Y-38331158D02*
X109775993Y-38283539D01*
X109775993Y-38283539D02*
X109966469Y-38283539D01*
X109966469Y-38283539D02*
X110061707Y-38331158D01*
X109633136Y-38902587D02*
X109728374Y-38950206D01*
X109728374Y-38950206D02*
X109966469Y-38950206D01*
X109966469Y-38950206D02*
X110061707Y-38902587D01*
X110061707Y-38902587D02*
X110109326Y-38807348D01*
X110109326Y-38807348D02*
X110109326Y-38712110D01*
X110109326Y-38712110D02*
X110061707Y-38616872D01*
X110061707Y-38616872D02*
X109966469Y-38569253D01*
X109966469Y-38569253D02*
X109728374Y-38569253D01*
X109728374Y-38569253D02*
X109633136Y-38521634D01*
X109156945Y-38283539D02*
X109156945Y-39283539D01*
X109156945Y-38331158D02*
X109061707Y-38283539D01*
X109061707Y-38283539D02*
X108871231Y-38283539D01*
X108871231Y-38283539D02*
X108775993Y-38331158D01*
X108775993Y-38331158D02*
X108728374Y-38378777D01*
X108728374Y-38378777D02*
X108680755Y-38474015D01*
X108680755Y-38474015D02*
X108680755Y-38759729D01*
X108680755Y-38759729D02*
X108728374Y-38854967D01*
X108728374Y-38854967D02*
X108775993Y-38902587D01*
X108775993Y-38902587D02*
X108871231Y-38950206D01*
X108871231Y-38950206D02*
X109061707Y-38950206D01*
X109061707Y-38950206D02*
X109156945Y-38902587D01*
X108395040Y-38283539D02*
X108014088Y-38283539D01*
X108252183Y-37950206D02*
X108252183Y-38807348D01*
X108252183Y-38807348D02*
X108204564Y-38902587D01*
X108204564Y-38902587D02*
X108109326Y-38950206D01*
X108109326Y-38950206D02*
X108014088Y-38950206D01*
X107537897Y-38950206D02*
X107633135Y-38902587D01*
X107633135Y-38902587D02*
X107680754Y-38854967D01*
X107680754Y-38854967D02*
X107728373Y-38759729D01*
X107728373Y-38759729D02*
X107728373Y-38474015D01*
X107728373Y-38474015D02*
X107680754Y-38378777D01*
X107680754Y-38378777D02*
X107633135Y-38331158D01*
X107633135Y-38331158D02*
X107537897Y-38283539D01*
X107537897Y-38283539D02*
X107395040Y-38283539D01*
X107395040Y-38283539D02*
X107299802Y-38331158D01*
X107299802Y-38331158D02*
X107252183Y-38378777D01*
X107252183Y-38378777D02*
X107204564Y-38474015D01*
X107204564Y-38474015D02*
X107204564Y-38759729D01*
X107204564Y-38759729D02*
X107252183Y-38854967D01*
X107252183Y-38854967D02*
X107299802Y-38902587D01*
X107299802Y-38902587D02*
X107395040Y-38950206D01*
X107395040Y-38950206D02*
X107537897Y-38950206D01*
X106347421Y-38283539D02*
X106347421Y-38950206D01*
X106775992Y-38283539D02*
X106775992Y-38807348D01*
X106775992Y-38807348D02*
X106728373Y-38902587D01*
X106728373Y-38902587D02*
X106633135Y-38950206D01*
X106633135Y-38950206D02*
X106490278Y-38950206D01*
X106490278Y-38950206D02*
X106395040Y-38902587D01*
X106395040Y-38902587D02*
X106347421Y-38854967D01*
X105442659Y-38902587D02*
X105537897Y-38950206D01*
X105537897Y-38950206D02*
X105728373Y-38950206D01*
X105728373Y-38950206D02*
X105823611Y-38902587D01*
X105823611Y-38902587D02*
X105871230Y-38854967D01*
X105871230Y-38854967D02*
X105918849Y-38759729D01*
X105918849Y-38759729D02*
X105918849Y-38474015D01*
X105918849Y-38474015D02*
X105871230Y-38378777D01*
X105871230Y-38378777D02*
X105823611Y-38331158D01*
X105823611Y-38331158D02*
X105728373Y-38283539D01*
X105728373Y-38283539D02*
X105537897Y-38283539D01*
X105537897Y-38283539D02*
X105442659Y-38331158D01*
X105014087Y-38950206D02*
X105014087Y-37950206D01*
X104585516Y-38950206D02*
X104585516Y-38426396D01*
X104585516Y-38426396D02*
X104633135Y-38331158D01*
X104633135Y-38331158D02*
X104728373Y-38283539D01*
X104728373Y-38283539D02*
X104871230Y-38283539D01*
X104871230Y-38283539D02*
X104966468Y-38331158D01*
X104966468Y-38331158D02*
X105014087Y-38378777D01*
X103014087Y-38426396D02*
X102871230Y-38474015D01*
X102871230Y-38474015D02*
X102823611Y-38521634D01*
X102823611Y-38521634D02*
X102775992Y-38616872D01*
X102775992Y-38616872D02*
X102775992Y-38759729D01*
X102775992Y-38759729D02*
X102823611Y-38854967D01*
X102823611Y-38854967D02*
X102871230Y-38902587D01*
X102871230Y-38902587D02*
X102966468Y-38950206D01*
X102966468Y-38950206D02*
X103347420Y-38950206D01*
X103347420Y-38950206D02*
X103347420Y-37950206D01*
X103347420Y-37950206D02*
X103014087Y-37950206D01*
X103014087Y-37950206D02*
X102918849Y-37997825D01*
X102918849Y-37997825D02*
X102871230Y-38045444D01*
X102871230Y-38045444D02*
X102823611Y-38140682D01*
X102823611Y-38140682D02*
X102823611Y-38235920D01*
X102823611Y-38235920D02*
X102871230Y-38331158D01*
X102871230Y-38331158D02*
X102918849Y-38378777D01*
X102918849Y-38378777D02*
X103014087Y-38426396D01*
X103014087Y-38426396D02*
X103347420Y-38426396D01*
X102204563Y-38950206D02*
X102299801Y-38902587D01*
X102299801Y-38902587D02*
X102347420Y-38854967D01*
X102347420Y-38854967D02*
X102395039Y-38759729D01*
X102395039Y-38759729D02*
X102395039Y-38474015D01*
X102395039Y-38474015D02*
X102347420Y-38378777D01*
X102347420Y-38378777D02*
X102299801Y-38331158D01*
X102299801Y-38331158D02*
X102204563Y-38283539D01*
X102204563Y-38283539D02*
X102061706Y-38283539D01*
X102061706Y-38283539D02*
X101966468Y-38331158D01*
X101966468Y-38331158D02*
X101918849Y-38378777D01*
X101918849Y-38378777D02*
X101871230Y-38474015D01*
X101871230Y-38474015D02*
X101871230Y-38759729D01*
X101871230Y-38759729D02*
X101918849Y-38854967D01*
X101918849Y-38854967D02*
X101966468Y-38902587D01*
X101966468Y-38902587D02*
X102061706Y-38950206D01*
X102061706Y-38950206D02*
X102204563Y-38950206D01*
X101014087Y-38950206D02*
X101014087Y-38426396D01*
X101014087Y-38426396D02*
X101061706Y-38331158D01*
X101061706Y-38331158D02*
X101156944Y-38283539D01*
X101156944Y-38283539D02*
X101347420Y-38283539D01*
X101347420Y-38283539D02*
X101442658Y-38331158D01*
X101014087Y-38902587D02*
X101109325Y-38950206D01*
X101109325Y-38950206D02*
X101347420Y-38950206D01*
X101347420Y-38950206D02*
X101442658Y-38902587D01*
X101442658Y-38902587D02*
X101490277Y-38807348D01*
X101490277Y-38807348D02*
X101490277Y-38712110D01*
X101490277Y-38712110D02*
X101442658Y-38616872D01*
X101442658Y-38616872D02*
X101347420Y-38569253D01*
X101347420Y-38569253D02*
X101109325Y-38569253D01*
X101109325Y-38569253D02*
X101014087Y-38521634D01*
X100537896Y-38950206D02*
X100537896Y-38283539D01*
X100537896Y-38474015D02*
X100490277Y-38378777D01*
X100490277Y-38378777D02*
X100442658Y-38331158D01*
X100442658Y-38331158D02*
X100347420Y-38283539D01*
X100347420Y-38283539D02*
X100252182Y-38283539D01*
X99490277Y-38950206D02*
X99490277Y-37950206D01*
X99490277Y-38902587D02*
X99585515Y-38950206D01*
X99585515Y-38950206D02*
X99775991Y-38950206D01*
X99775991Y-38950206D02*
X99871229Y-38902587D01*
X99871229Y-38902587D02*
X99918848Y-38854967D01*
X99918848Y-38854967D02*
X99966467Y-38759729D01*
X99966467Y-38759729D02*
X99966467Y-38474015D01*
X99966467Y-38474015D02*
X99918848Y-38378777D01*
X99918848Y-38378777D02*
X99871229Y-38331158D01*
X99871229Y-38331158D02*
X99775991Y-38283539D01*
X99775991Y-38283539D02*
X99585515Y-38283539D01*
X99585515Y-38283539D02*
X99490277Y-38331158D01*
X130952550Y-123559204D02*
X131666835Y-123559204D01*
X131666835Y-123559204D02*
X131809692Y-123511585D01*
X131809692Y-123511585D02*
X131904931Y-123416347D01*
X131904931Y-123416347D02*
X131952550Y-123273490D01*
X131952550Y-123273490D02*
X131952550Y-123178252D01*
X131952550Y-124559204D02*
X131952550Y-123987776D01*
X131952550Y-124273490D02*
X130952550Y-124273490D01*
X130952550Y-124273490D02*
X131095407Y-124178252D01*
X131095407Y-124178252D02*
X131190645Y-124083014D01*
X131190645Y-124083014D02*
X131238264Y-123987776D01*
X131047788Y-124940157D02*
X131000169Y-124987776D01*
X131000169Y-124987776D02*
X130952550Y-125083014D01*
X130952550Y-125083014D02*
X130952550Y-125321109D01*
X130952550Y-125321109D02*
X131000169Y-125416347D01*
X131000169Y-125416347D02*
X131047788Y-125463966D01*
X131047788Y-125463966D02*
X131143026Y-125511585D01*
X131143026Y-125511585D02*
X131238264Y-125511585D01*
X131238264Y-125511585D02*
X131381121Y-125463966D01*
X131381121Y-125463966D02*
X131952550Y-124892538D01*
X131952550Y-124892538D02*
X131952550Y-125511585D01*
X128913327Y-80370749D02*
X129627612Y-80370749D01*
X129627612Y-80370749D02*
X129770469Y-80323130D01*
X129770469Y-80323130D02*
X129865708Y-80227892D01*
X129865708Y-80227892D02*
X129913327Y-80085035D01*
X129913327Y-80085035D02*
X129913327Y-79989797D01*
X129913327Y-81370749D02*
X129913327Y-80799321D01*
X129913327Y-81085035D02*
X128913327Y-81085035D01*
X128913327Y-81085035D02*
X129056184Y-80989797D01*
X129056184Y-80989797D02*
X129151422Y-80894559D01*
X129151422Y-80894559D02*
X129199041Y-80799321D01*
X129913327Y-82323130D02*
X129913327Y-81751702D01*
X129913327Y-82037416D02*
X128913327Y-82037416D01*
X128913327Y-82037416D02*
X129056184Y-81942178D01*
X129056184Y-81942178D02*
X129151422Y-81846940D01*
X129151422Y-81846940D02*
X129199041Y-81751702D01*
X125449473Y-60108426D02*
X124973282Y-59775093D01*
X125449473Y-59536998D02*
X124449473Y-59536998D01*
X124449473Y-59536998D02*
X124449473Y-59917950D01*
X124449473Y-59917950D02*
X124497092Y-60013188D01*
X124497092Y-60013188D02*
X124544711Y-60060807D01*
X124544711Y-60060807D02*
X124639949Y-60108426D01*
X124639949Y-60108426D02*
X124782806Y-60108426D01*
X124782806Y-60108426D02*
X124878044Y-60060807D01*
X124878044Y-60060807D02*
X124925663Y-60013188D01*
X124925663Y-60013188D02*
X124973282Y-59917950D01*
X124973282Y-59917950D02*
X124973282Y-59536998D01*
X125449473Y-60536998D02*
X124449473Y-60536998D01*
X124449473Y-60536998D02*
X124449473Y-60917950D01*
X124449473Y-60917950D02*
X124497092Y-61013188D01*
X124497092Y-61013188D02*
X124544711Y-61060807D01*
X124544711Y-61060807D02*
X124639949Y-61108426D01*
X124639949Y-61108426D02*
X124782806Y-61108426D01*
X124782806Y-61108426D02*
X124878044Y-61060807D01*
X124878044Y-61060807D02*
X124925663Y-61013188D01*
X124925663Y-61013188D02*
X124973282Y-60917950D01*
X124973282Y-60917950D02*
X124973282Y-60536998D01*
X124449473Y-61727474D02*
X124449473Y-61822712D01*
X124449473Y-61822712D02*
X124497092Y-61917950D01*
X124497092Y-61917950D02*
X124544711Y-61965569D01*
X124544711Y-61965569D02*
X124639949Y-62013188D01*
X124639949Y-62013188D02*
X124830425Y-62060807D01*
X124830425Y-62060807D02*
X125068520Y-62060807D01*
X125068520Y-62060807D02*
X125258996Y-62013188D01*
X125258996Y-62013188D02*
X125354234Y-61965569D01*
X125354234Y-61965569D02*
X125401854Y-61917950D01*
X125401854Y-61917950D02*
X125449473Y-61822712D01*
X125449473Y-61822712D02*
X125449473Y-61727474D01*
X125449473Y-61727474D02*
X125401854Y-61632236D01*
X125401854Y-61632236D02*
X125354234Y-61584617D01*
X125354234Y-61584617D02*
X125258996Y-61536998D01*
X125258996Y-61536998D02*
X125068520Y-61489379D01*
X125068520Y-61489379D02*
X124830425Y-61489379D01*
X124830425Y-61489379D02*
X124639949Y-61536998D01*
X124639949Y-61536998D02*
X124544711Y-61584617D01*
X124544711Y-61584617D02*
X124497092Y-61632236D01*
X124497092Y-61632236D02*
X124449473Y-61727474D01*
X136815522Y-46619091D02*
X136842459Y-46538278D01*
X136842459Y-46538278D02*
X136923272Y-46457466D01*
X136923272Y-46457466D02*
X137031021Y-46403591D01*
X137031021Y-46403591D02*
X137138771Y-46403591D01*
X137138771Y-46403591D02*
X137219583Y-46430529D01*
X137219583Y-46430529D02*
X137354270Y-46511341D01*
X137354270Y-46511341D02*
X137435082Y-46592153D01*
X137435082Y-46592153D02*
X137515895Y-46726840D01*
X137515895Y-46726840D02*
X137542832Y-46807653D01*
X137542832Y-46807653D02*
X137542832Y-46915402D01*
X137542832Y-46915402D02*
X137488957Y-47023152D01*
X137488957Y-47023152D02*
X137435082Y-47077027D01*
X137435082Y-47077027D02*
X137327333Y-47130901D01*
X137327333Y-47130901D02*
X137273458Y-47130901D01*
X137273458Y-47130901D02*
X137084896Y-46942340D01*
X137084896Y-46942340D02*
X137192646Y-46834590D01*
X137084896Y-47427213D02*
X136519211Y-46861527D01*
X136519211Y-46861527D02*
X136303711Y-47077027D01*
X136303711Y-47077027D02*
X136276774Y-47157839D01*
X136276774Y-47157839D02*
X136276774Y-47211714D01*
X136276774Y-47211714D02*
X136303711Y-47292526D01*
X136303711Y-47292526D02*
X136384524Y-47373338D01*
X136384524Y-47373338D02*
X136465336Y-47400275D01*
X136465336Y-47400275D02*
X136519211Y-47400275D01*
X136519211Y-47400275D02*
X136600023Y-47373338D01*
X136600023Y-47373338D02*
X136815522Y-47157839D01*
X136222899Y-48289210D02*
X136546148Y-47965961D01*
X136384524Y-48127585D02*
X135818838Y-47561900D01*
X135818838Y-47561900D02*
X135953525Y-47588837D01*
X135953525Y-47588837D02*
X136061275Y-47588837D01*
X136061275Y-47588837D02*
X136142087Y-47561900D01*
X135684151Y-48827958D02*
X136007400Y-48504709D01*
X135845775Y-48666333D02*
X135280090Y-48100648D01*
X135280090Y-48100648D02*
X135414777Y-48127585D01*
X135414777Y-48127585D02*
X135522527Y-48127585D01*
X135522527Y-48127585D02*
X135603339Y-48100648D01*
X119735894Y-72926966D02*
X119466520Y-73196340D01*
X119951393Y-73034716D02*
X119197146Y-72657592D01*
X119197146Y-72657592D02*
X119574269Y-73411839D01*
X118550648Y-73357964D02*
X118577586Y-73277152D01*
X118577586Y-73277152D02*
X118658398Y-73196340D01*
X118658398Y-73196340D02*
X118766148Y-73142465D01*
X118766148Y-73142465D02*
X118873897Y-73142465D01*
X118873897Y-73142465D02*
X118954709Y-73169403D01*
X118954709Y-73169403D02*
X119089396Y-73250215D01*
X119089396Y-73250215D02*
X119170209Y-73331027D01*
X119170209Y-73331027D02*
X119251021Y-73465714D01*
X119251021Y-73465714D02*
X119277958Y-73546526D01*
X119277958Y-73546526D02*
X119277958Y-73654276D01*
X119277958Y-73654276D02*
X119224083Y-73762025D01*
X119224083Y-73762025D02*
X119170209Y-73815900D01*
X119170209Y-73815900D02*
X119062459Y-73869775D01*
X119062459Y-73869775D02*
X119008584Y-73869775D01*
X119008584Y-73869775D02*
X118820022Y-73681213D01*
X118820022Y-73681213D02*
X118927772Y-73573464D01*
X118820022Y-74166086D02*
X118254337Y-73600401D01*
X118254337Y-73600401D02*
X118496774Y-74489335D01*
X118496774Y-74489335D02*
X117931088Y-73923650D01*
X118227400Y-74758709D02*
X117661714Y-74193024D01*
X117661714Y-74193024D02*
X117527027Y-74327711D01*
X117527027Y-74327711D02*
X117473152Y-74435460D01*
X117473152Y-74435460D02*
X117473152Y-74543210D01*
X117473152Y-74543210D02*
X117500090Y-74624022D01*
X117500090Y-74624022D02*
X117580902Y-74758709D01*
X117580902Y-74758709D02*
X117661714Y-74839521D01*
X117661714Y-74839521D02*
X117796401Y-74920334D01*
X117796401Y-74920334D02*
X117877214Y-74947271D01*
X117877214Y-74947271D02*
X117984963Y-74947271D01*
X117984963Y-74947271D02*
X118092713Y-74893396D01*
X118092713Y-74893396D02*
X118227400Y-74758709D01*
X144193085Y-72861528D02*
X144220022Y-72780716D01*
X144220022Y-72780716D02*
X144300834Y-72699904D01*
X144300834Y-72699904D02*
X144408584Y-72646029D01*
X144408584Y-72646029D02*
X144516334Y-72646029D01*
X144516334Y-72646029D02*
X144597146Y-72672966D01*
X144597146Y-72672966D02*
X144731833Y-72753778D01*
X144731833Y-72753778D02*
X144812645Y-72834591D01*
X144812645Y-72834591D02*
X144893457Y-72969278D01*
X144893457Y-72969278D02*
X144920395Y-73050090D01*
X144920395Y-73050090D02*
X144920395Y-73157839D01*
X144920395Y-73157839D02*
X144866520Y-73265589D01*
X144866520Y-73265589D02*
X144812645Y-73319464D01*
X144812645Y-73319464D02*
X144704895Y-73373339D01*
X144704895Y-73373339D02*
X144651021Y-73373339D01*
X144651021Y-73373339D02*
X144462459Y-73184777D01*
X144462459Y-73184777D02*
X144570208Y-73077027D01*
X144462459Y-73669650D02*
X143896773Y-73103965D01*
X143896773Y-73103965D02*
X144139210Y-73992899D01*
X144139210Y-73992899D02*
X143573525Y-73427213D01*
X143869836Y-74262273D02*
X143304151Y-73696587D01*
X143304151Y-73696587D02*
X143169464Y-73831274D01*
X143169464Y-73831274D02*
X143115589Y-73939024D01*
X143115589Y-73939024D02*
X143115589Y-74046773D01*
X143115589Y-74046773D02*
X143142526Y-74127586D01*
X143142526Y-74127586D02*
X143223339Y-74262273D01*
X143223339Y-74262273D02*
X143304151Y-74343085D01*
X143304151Y-74343085D02*
X143438838Y-74423897D01*
X143438838Y-74423897D02*
X143519650Y-74450834D01*
X143519650Y-74450834D02*
X143627400Y-74450834D01*
X143627400Y-74450834D02*
X143735149Y-74396960D01*
X143735149Y-74396960D02*
X143869836Y-74262273D01*
X101522239Y-72728499D02*
X101899363Y-73482746D01*
X101899363Y-73482746D02*
X101145116Y-73105622D01*
X101037366Y-73752120D02*
X100983492Y-73859869D01*
X100983492Y-73859869D02*
X100983492Y-73913744D01*
X100983492Y-73913744D02*
X101010429Y-73994556D01*
X101010429Y-73994556D02*
X101091241Y-74075369D01*
X101091241Y-74075369D02*
X101172053Y-74102306D01*
X101172053Y-74102306D02*
X101225928Y-74102306D01*
X101225928Y-74102306D02*
X101306740Y-74075369D01*
X101306740Y-74075369D02*
X101522240Y-73859869D01*
X101522240Y-73859869D02*
X100956554Y-73294184D01*
X100956554Y-73294184D02*
X100767992Y-73482746D01*
X100767992Y-73482746D02*
X100741055Y-73563558D01*
X100741055Y-73563558D02*
X100741055Y-73617433D01*
X100741055Y-73617433D02*
X100767992Y-73698245D01*
X100767992Y-73698245D02*
X100821867Y-73752120D01*
X100821867Y-73752120D02*
X100902679Y-73779057D01*
X100902679Y-73779057D02*
X100956554Y-73779057D01*
X100956554Y-73779057D02*
X101037366Y-73752120D01*
X101037366Y-73752120D02*
X101225928Y-73563558D01*
X100390869Y-73859869D02*
X100848805Y-74317805D01*
X100848805Y-74317805D02*
X100875742Y-74398617D01*
X100875742Y-74398617D02*
X100875742Y-74452492D01*
X100875742Y-74452492D02*
X100848805Y-74533304D01*
X100848805Y-74533304D02*
X100741055Y-74641054D01*
X100741055Y-74641054D02*
X100660243Y-74667991D01*
X100660243Y-74667991D02*
X100606368Y-74667991D01*
X100606368Y-74667991D02*
X100525556Y-74641054D01*
X100525556Y-74641054D02*
X100067620Y-74183118D01*
X100363931Y-74964303D02*
X100310057Y-75072052D01*
X100310057Y-75072052D02*
X100175370Y-75206739D01*
X100175370Y-75206739D02*
X100094557Y-75233677D01*
X100094557Y-75233677D02*
X100040683Y-75233677D01*
X100040683Y-75233677D02*
X99959870Y-75206739D01*
X99959870Y-75206739D02*
X99905996Y-75152864D01*
X99905996Y-75152864D02*
X99879058Y-75072052D01*
X99879058Y-75072052D02*
X99879058Y-75018177D01*
X99879058Y-75018177D02*
X99905996Y-74937365D01*
X99905996Y-74937365D02*
X99986808Y-74802678D01*
X99986808Y-74802678D02*
X100013745Y-74721866D01*
X100013745Y-74721866D02*
X100013745Y-74667991D01*
X100013745Y-74667991D02*
X99986808Y-74587179D01*
X99986808Y-74587179D02*
X99932933Y-74533304D01*
X99932933Y-74533304D02*
X99852121Y-74506367D01*
X99852121Y-74506367D02*
X99798246Y-74506367D01*
X99798246Y-74506367D02*
X99717434Y-74533304D01*
X99717434Y-74533304D02*
X99582747Y-74667991D01*
X99582747Y-74667991D02*
X99528872Y-74775741D01*
X106093085Y-72861528D02*
X106120022Y-72780716D01*
X106120022Y-72780716D02*
X106200834Y-72699904D01*
X106200834Y-72699904D02*
X106308584Y-72646029D01*
X106308584Y-72646029D02*
X106416334Y-72646029D01*
X106416334Y-72646029D02*
X106497146Y-72672966D01*
X106497146Y-72672966D02*
X106631833Y-72753778D01*
X106631833Y-72753778D02*
X106712645Y-72834591D01*
X106712645Y-72834591D02*
X106793457Y-72969278D01*
X106793457Y-72969278D02*
X106820395Y-73050090D01*
X106820395Y-73050090D02*
X106820395Y-73157839D01*
X106820395Y-73157839D02*
X106766520Y-73265589D01*
X106766520Y-73265589D02*
X106712645Y-73319464D01*
X106712645Y-73319464D02*
X106604895Y-73373339D01*
X106604895Y-73373339D02*
X106551021Y-73373339D01*
X106551021Y-73373339D02*
X106362459Y-73184777D01*
X106362459Y-73184777D02*
X106470208Y-73077027D01*
X106362459Y-73669650D02*
X105796773Y-73103965D01*
X105796773Y-73103965D02*
X106039210Y-73992899D01*
X106039210Y-73992899D02*
X105473525Y-73427213D01*
X105769836Y-74262273D02*
X105204151Y-73696587D01*
X105204151Y-73696587D02*
X105069464Y-73831274D01*
X105069464Y-73831274D02*
X105015589Y-73939024D01*
X105015589Y-73939024D02*
X105015589Y-74046773D01*
X105015589Y-74046773D02*
X105042526Y-74127586D01*
X105042526Y-74127586D02*
X105123339Y-74262273D01*
X105123339Y-74262273D02*
X105204151Y-74343085D01*
X105204151Y-74343085D02*
X105338838Y-74423897D01*
X105338838Y-74423897D02*
X105419650Y-74450834D01*
X105419650Y-74450834D02*
X105527400Y-74450834D01*
X105527400Y-74450834D02*
X105635149Y-74396960D01*
X105635149Y-74396960D02*
X105769836Y-74262273D01*
X141895522Y-46765091D02*
X141922459Y-46684278D01*
X141922459Y-46684278D02*
X142003272Y-46603466D01*
X142003272Y-46603466D02*
X142111021Y-46549591D01*
X142111021Y-46549591D02*
X142218771Y-46549591D01*
X142218771Y-46549591D02*
X142299583Y-46576529D01*
X142299583Y-46576529D02*
X142434270Y-46657341D01*
X142434270Y-46657341D02*
X142515082Y-46738153D01*
X142515082Y-46738153D02*
X142595895Y-46872840D01*
X142595895Y-46872840D02*
X142622832Y-46953653D01*
X142622832Y-46953653D02*
X142622832Y-47061402D01*
X142622832Y-47061402D02*
X142568957Y-47169152D01*
X142568957Y-47169152D02*
X142515082Y-47223027D01*
X142515082Y-47223027D02*
X142407333Y-47276901D01*
X142407333Y-47276901D02*
X142353458Y-47276901D01*
X142353458Y-47276901D02*
X142164896Y-47088340D01*
X142164896Y-47088340D02*
X142272646Y-46980590D01*
X142164896Y-47573213D02*
X141599211Y-47007527D01*
X141599211Y-47007527D02*
X141383711Y-47223027D01*
X141383711Y-47223027D02*
X141356774Y-47303839D01*
X141356774Y-47303839D02*
X141356774Y-47357714D01*
X141356774Y-47357714D02*
X141383711Y-47438526D01*
X141383711Y-47438526D02*
X141464524Y-47519338D01*
X141464524Y-47519338D02*
X141545336Y-47546275D01*
X141545336Y-47546275D02*
X141599211Y-47546275D01*
X141599211Y-47546275D02*
X141680023Y-47519338D01*
X141680023Y-47519338D02*
X141895522Y-47303839D01*
X141302899Y-48435210D02*
X141626148Y-48111961D01*
X141464524Y-48273585D02*
X140898838Y-47707900D01*
X140898838Y-47707900D02*
X141033525Y-47734837D01*
X141033525Y-47734837D02*
X141141275Y-47734837D01*
X141141275Y-47734837D02*
X141222087Y-47707900D01*
X140548652Y-48058086D02*
X140198466Y-48408272D01*
X140198466Y-48408272D02*
X140602527Y-48435210D01*
X140602527Y-48435210D02*
X140521714Y-48516022D01*
X140521714Y-48516022D02*
X140494777Y-48596834D01*
X140494777Y-48596834D02*
X140494777Y-48650709D01*
X140494777Y-48650709D02*
X140521714Y-48731521D01*
X140521714Y-48731521D02*
X140656401Y-48866208D01*
X140656401Y-48866208D02*
X140737214Y-48893146D01*
X140737214Y-48893146D02*
X140791088Y-48893146D01*
X140791088Y-48893146D02*
X140871901Y-48866208D01*
X140871901Y-48866208D02*
X141033525Y-48704584D01*
X141033525Y-48704584D02*
X141060462Y-48623772D01*
X141060462Y-48623772D02*
X141060462Y-48569897D01*
X114528703Y-72930157D02*
X114259329Y-73199531D01*
X114744203Y-73037906D02*
X113989955Y-72660783D01*
X113989955Y-72660783D02*
X114367079Y-73415030D01*
X114178517Y-73603592D02*
X113612832Y-73037906D01*
X113612832Y-73037906D02*
X113478145Y-73172593D01*
X113478145Y-73172593D02*
X113424270Y-73280343D01*
X113424270Y-73280343D02*
X113424270Y-73388092D01*
X113424270Y-73388092D02*
X113451207Y-73468905D01*
X113451207Y-73468905D02*
X113532020Y-73603592D01*
X113532020Y-73603592D02*
X113612832Y-73684404D01*
X113612832Y-73684404D02*
X113747519Y-73765216D01*
X113747519Y-73765216D02*
X113828331Y-73792153D01*
X113828331Y-73792153D02*
X113936081Y-73792153D01*
X113936081Y-73792153D02*
X114043830Y-73738279D01*
X114043830Y-73738279D02*
X114178517Y-73603592D01*
X113235708Y-74438651D02*
X113289583Y-74438651D01*
X113289583Y-74438651D02*
X113397333Y-74384776D01*
X113397333Y-74384776D02*
X113451207Y-74330901D01*
X113451207Y-74330901D02*
X113505082Y-74223152D01*
X113505082Y-74223152D02*
X113505082Y-74115402D01*
X113505082Y-74115402D02*
X113478145Y-74034590D01*
X113478145Y-74034590D02*
X113397333Y-73899903D01*
X113397333Y-73899903D02*
X113316520Y-73819091D01*
X113316520Y-73819091D02*
X113181833Y-73738279D01*
X113181833Y-73738279D02*
X113101021Y-73711341D01*
X113101021Y-73711341D02*
X112993272Y-73711341D01*
X112993272Y-73711341D02*
X112885522Y-73765216D01*
X112885522Y-73765216D02*
X112831647Y-73819091D01*
X112831647Y-73819091D02*
X112777772Y-73926840D01*
X112777772Y-73926840D02*
X112777772Y-73980715D01*
X113235708Y-74654150D02*
X112804710Y-75085149D01*
X112131275Y-74519463D02*
X112508398Y-75273711D01*
X112508398Y-75273711D02*
X111754151Y-74896587D01*
X111808026Y-75974083D02*
X111727214Y-75516147D01*
X112131275Y-75650834D02*
X111565589Y-75085149D01*
X111565589Y-75085149D02*
X111350090Y-75300648D01*
X111350090Y-75300648D02*
X111323153Y-75381460D01*
X111323153Y-75381460D02*
X111323153Y-75435335D01*
X111323153Y-75435335D02*
X111350090Y-75516147D01*
X111350090Y-75516147D02*
X111430902Y-75596959D01*
X111430902Y-75596959D02*
X111511715Y-75623897D01*
X111511715Y-75623897D02*
X111565589Y-75623897D01*
X111565589Y-75623897D02*
X111646402Y-75596959D01*
X111646402Y-75596959D02*
X111861901Y-75381460D01*
X111269278Y-75920208D02*
X111080716Y-76108770D01*
X111296215Y-76485893D02*
X111565589Y-76216519D01*
X111565589Y-76216519D02*
X110999904Y-75650834D01*
X110999904Y-75650834D02*
X110730530Y-75920208D01*
X110568905Y-76620581D02*
X110757467Y-76432019D01*
X111053779Y-76728330D02*
X110488093Y-76162645D01*
X110488093Y-76162645D02*
X110218719Y-76432019D01*
X113686148Y-47288465D02*
X113713085Y-47207653D01*
X113713085Y-47207653D02*
X113793897Y-47126841D01*
X113793897Y-47126841D02*
X113901647Y-47072966D01*
X113901647Y-47072966D02*
X114009396Y-47072966D01*
X114009396Y-47072966D02*
X114090209Y-47099903D01*
X114090209Y-47099903D02*
X114224896Y-47180716D01*
X114224896Y-47180716D02*
X114305708Y-47261528D01*
X114305708Y-47261528D02*
X114386520Y-47396215D01*
X114386520Y-47396215D02*
X114413457Y-47477027D01*
X114413457Y-47477027D02*
X114413457Y-47584777D01*
X114413457Y-47584777D02*
X114359583Y-47692526D01*
X114359583Y-47692526D02*
X114305708Y-47746401D01*
X114305708Y-47746401D02*
X114197958Y-47800276D01*
X114197958Y-47800276D02*
X114144083Y-47800276D01*
X114144083Y-47800276D02*
X113955522Y-47611714D01*
X113955522Y-47611714D02*
X114063271Y-47503964D01*
X113955522Y-48096587D02*
X113389836Y-47530902D01*
X113389836Y-47530902D02*
X113174337Y-47746401D01*
X113174337Y-47746401D02*
X113147400Y-47827213D01*
X113147400Y-47827213D02*
X113147400Y-47881088D01*
X113147400Y-47881088D02*
X113174337Y-47961900D01*
X113174337Y-47961900D02*
X113255149Y-48042712D01*
X113255149Y-48042712D02*
X113335961Y-48069650D01*
X113335961Y-48069650D02*
X113389836Y-48069650D01*
X113389836Y-48069650D02*
X113470648Y-48042712D01*
X113470648Y-48042712D02*
X113686148Y-47827213D01*
X112770276Y-48527586D02*
X113147400Y-48904709D01*
X112689464Y-48177399D02*
X113228212Y-48446773D01*
X113228212Y-48446773D02*
X112878026Y-48796960D01*
X123816148Y-47388465D02*
X123843085Y-47307653D01*
X123843085Y-47307653D02*
X123923897Y-47226841D01*
X123923897Y-47226841D02*
X124031647Y-47172966D01*
X124031647Y-47172966D02*
X124139396Y-47172966D01*
X124139396Y-47172966D02*
X124220209Y-47199903D01*
X124220209Y-47199903D02*
X124354896Y-47280716D01*
X124354896Y-47280716D02*
X124435708Y-47361528D01*
X124435708Y-47361528D02*
X124516520Y-47496215D01*
X124516520Y-47496215D02*
X124543457Y-47577027D01*
X124543457Y-47577027D02*
X124543457Y-47684777D01*
X124543457Y-47684777D02*
X124489583Y-47792526D01*
X124489583Y-47792526D02*
X124435708Y-47846401D01*
X124435708Y-47846401D02*
X124327958Y-47900276D01*
X124327958Y-47900276D02*
X124274083Y-47900276D01*
X124274083Y-47900276D02*
X124085522Y-47711714D01*
X124085522Y-47711714D02*
X124193271Y-47603964D01*
X124085522Y-48196587D02*
X123519836Y-47630902D01*
X123519836Y-47630902D02*
X123304337Y-47846401D01*
X123304337Y-47846401D02*
X123277400Y-47927213D01*
X123277400Y-47927213D02*
X123277400Y-47981088D01*
X123277400Y-47981088D02*
X123304337Y-48061900D01*
X123304337Y-48061900D02*
X123385149Y-48142712D01*
X123385149Y-48142712D02*
X123465961Y-48169650D01*
X123465961Y-48169650D02*
X123519836Y-48169650D01*
X123519836Y-48169650D02*
X123600648Y-48142712D01*
X123600648Y-48142712D02*
X123816148Y-47927213D01*
X123008026Y-48142712D02*
X122630902Y-48519836D01*
X122630902Y-48519836D02*
X123439024Y-48843085D01*
X149515522Y-46765091D02*
X149542459Y-46684278D01*
X149542459Y-46684278D02*
X149623272Y-46603466D01*
X149623272Y-46603466D02*
X149731021Y-46549591D01*
X149731021Y-46549591D02*
X149838771Y-46549591D01*
X149838771Y-46549591D02*
X149919583Y-46576529D01*
X149919583Y-46576529D02*
X150054270Y-46657341D01*
X150054270Y-46657341D02*
X150135082Y-46738153D01*
X150135082Y-46738153D02*
X150215895Y-46872840D01*
X150215895Y-46872840D02*
X150242832Y-46953653D01*
X150242832Y-46953653D02*
X150242832Y-47061402D01*
X150242832Y-47061402D02*
X150188957Y-47169152D01*
X150188957Y-47169152D02*
X150135082Y-47223027D01*
X150135082Y-47223027D02*
X150027333Y-47276901D01*
X150027333Y-47276901D02*
X149973458Y-47276901D01*
X149973458Y-47276901D02*
X149784896Y-47088340D01*
X149784896Y-47088340D02*
X149892646Y-46980590D01*
X149784896Y-47573213D02*
X149219211Y-47007527D01*
X149219211Y-47007527D02*
X149003711Y-47223027D01*
X149003711Y-47223027D02*
X148976774Y-47303839D01*
X148976774Y-47303839D02*
X148976774Y-47357714D01*
X148976774Y-47357714D02*
X149003711Y-47438526D01*
X149003711Y-47438526D02*
X149084524Y-47519338D01*
X149084524Y-47519338D02*
X149165336Y-47546275D01*
X149165336Y-47546275D02*
X149219211Y-47546275D01*
X149219211Y-47546275D02*
X149300023Y-47519338D01*
X149300023Y-47519338D02*
X149515522Y-47303839D01*
X148922899Y-48435210D02*
X149246148Y-48111961D01*
X149084524Y-48273585D02*
X148518838Y-47707900D01*
X148518838Y-47707900D02*
X148653525Y-47734837D01*
X148653525Y-47734837D02*
X148761275Y-47734837D01*
X148761275Y-47734837D02*
X148842087Y-47707900D01*
X147845403Y-48381335D02*
X148114777Y-48111961D01*
X148114777Y-48111961D02*
X148411088Y-48354398D01*
X148411088Y-48354398D02*
X148357214Y-48354398D01*
X148357214Y-48354398D02*
X148276401Y-48381335D01*
X148276401Y-48381335D02*
X148141714Y-48516022D01*
X148141714Y-48516022D02*
X148114777Y-48596834D01*
X148114777Y-48596834D02*
X148114777Y-48650709D01*
X148114777Y-48650709D02*
X148141714Y-48731521D01*
X148141714Y-48731521D02*
X148276401Y-48866208D01*
X148276401Y-48866208D02*
X148357214Y-48893146D01*
X148357214Y-48893146D02*
X148411088Y-48893146D01*
X148411088Y-48893146D02*
X148491901Y-48866208D01*
X148491901Y-48866208D02*
X148626588Y-48731521D01*
X148626588Y-48731521D02*
X148653525Y-48650709D01*
X148653525Y-48650709D02*
X148653525Y-48596834D01*
X146975522Y-72873091D02*
X147002459Y-72792278D01*
X147002459Y-72792278D02*
X147083272Y-72711466D01*
X147083272Y-72711466D02*
X147191021Y-72657591D01*
X147191021Y-72657591D02*
X147298771Y-72657591D01*
X147298771Y-72657591D02*
X147379583Y-72684529D01*
X147379583Y-72684529D02*
X147514270Y-72765341D01*
X147514270Y-72765341D02*
X147595082Y-72846153D01*
X147595082Y-72846153D02*
X147675895Y-72980840D01*
X147675895Y-72980840D02*
X147702832Y-73061653D01*
X147702832Y-73061653D02*
X147702832Y-73169402D01*
X147702832Y-73169402D02*
X147648957Y-73277152D01*
X147648957Y-73277152D02*
X147595082Y-73331027D01*
X147595082Y-73331027D02*
X147487333Y-73384901D01*
X147487333Y-73384901D02*
X147433458Y-73384901D01*
X147433458Y-73384901D02*
X147244896Y-73196340D01*
X147244896Y-73196340D02*
X147352646Y-73088590D01*
X147244896Y-73681213D02*
X146679211Y-73115527D01*
X146679211Y-73115527D02*
X146463711Y-73331027D01*
X146463711Y-73331027D02*
X146436774Y-73411839D01*
X146436774Y-73411839D02*
X146436774Y-73465714D01*
X146436774Y-73465714D02*
X146463711Y-73546526D01*
X146463711Y-73546526D02*
X146544524Y-73627338D01*
X146544524Y-73627338D02*
X146625336Y-73654275D01*
X146625336Y-73654275D02*
X146679211Y-73654275D01*
X146679211Y-73654275D02*
X146760023Y-73627338D01*
X146760023Y-73627338D02*
X146975522Y-73411839D01*
X146382899Y-74543210D02*
X146706148Y-74219961D01*
X146544524Y-74381585D02*
X145978838Y-73815900D01*
X145978838Y-73815900D02*
X146113525Y-73842837D01*
X146113525Y-73842837D02*
X146221275Y-73842837D01*
X146221275Y-73842837D02*
X146302087Y-73815900D01*
X145628652Y-74166086D02*
X145251528Y-74543210D01*
X145251528Y-74543210D02*
X146059650Y-74866459D01*
X124115522Y-72873091D02*
X124142459Y-72792278D01*
X124142459Y-72792278D02*
X124223272Y-72711466D01*
X124223272Y-72711466D02*
X124331021Y-72657591D01*
X124331021Y-72657591D02*
X124438771Y-72657591D01*
X124438771Y-72657591D02*
X124519583Y-72684529D01*
X124519583Y-72684529D02*
X124654270Y-72765341D01*
X124654270Y-72765341D02*
X124735082Y-72846153D01*
X124735082Y-72846153D02*
X124815895Y-72980840D01*
X124815895Y-72980840D02*
X124842832Y-73061653D01*
X124842832Y-73061653D02*
X124842832Y-73169402D01*
X124842832Y-73169402D02*
X124788957Y-73277152D01*
X124788957Y-73277152D02*
X124735082Y-73331027D01*
X124735082Y-73331027D02*
X124627333Y-73384901D01*
X124627333Y-73384901D02*
X124573458Y-73384901D01*
X124573458Y-73384901D02*
X124384896Y-73196340D01*
X124384896Y-73196340D02*
X124492646Y-73088590D01*
X124384896Y-73681213D02*
X123819211Y-73115527D01*
X123819211Y-73115527D02*
X123603711Y-73331027D01*
X123603711Y-73331027D02*
X123576774Y-73411839D01*
X123576774Y-73411839D02*
X123576774Y-73465714D01*
X123576774Y-73465714D02*
X123603711Y-73546526D01*
X123603711Y-73546526D02*
X123684524Y-73627338D01*
X123684524Y-73627338D02*
X123765336Y-73654275D01*
X123765336Y-73654275D02*
X123819211Y-73654275D01*
X123819211Y-73654275D02*
X123900023Y-73627338D01*
X123900023Y-73627338D02*
X124115522Y-73411839D01*
X123334337Y-73708150D02*
X123280463Y-73708150D01*
X123280463Y-73708150D02*
X123199650Y-73735088D01*
X123199650Y-73735088D02*
X123064963Y-73869775D01*
X123064963Y-73869775D02*
X123038026Y-73950587D01*
X123038026Y-73950587D02*
X123038026Y-74004462D01*
X123038026Y-74004462D02*
X123064963Y-74085274D01*
X123064963Y-74085274D02*
X123118838Y-74139149D01*
X123118838Y-74139149D02*
X123226588Y-74193023D01*
X123226588Y-74193023D02*
X123873085Y-74193023D01*
X123873085Y-74193023D02*
X123522899Y-74543210D01*
X122472340Y-74462398D02*
X122580090Y-74354648D01*
X122580090Y-74354648D02*
X122660902Y-74327711D01*
X122660902Y-74327711D02*
X122714777Y-74327711D01*
X122714777Y-74327711D02*
X122849464Y-74354648D01*
X122849464Y-74354648D02*
X122984151Y-74435460D01*
X122984151Y-74435460D02*
X123199650Y-74650959D01*
X123199650Y-74650959D02*
X123226588Y-74731772D01*
X123226588Y-74731772D02*
X123226588Y-74785646D01*
X123226588Y-74785646D02*
X123199650Y-74866459D01*
X123199650Y-74866459D02*
X123091901Y-74974208D01*
X123091901Y-74974208D02*
X123011088Y-75001146D01*
X123011088Y-75001146D02*
X122957214Y-75001146D01*
X122957214Y-75001146D02*
X122876401Y-74974208D01*
X122876401Y-74974208D02*
X122741714Y-74839521D01*
X122741714Y-74839521D02*
X122714777Y-74758709D01*
X122714777Y-74758709D02*
X122714777Y-74704834D01*
X122714777Y-74704834D02*
X122741714Y-74624022D01*
X122741714Y-74624022D02*
X122849464Y-74516272D01*
X122849464Y-74516272D02*
X122930276Y-74489335D01*
X122930276Y-74489335D02*
X122984151Y-74489335D01*
X122984151Y-74489335D02*
X123064963Y-74516272D01*
X151518854Y-53265568D02*
X151556949Y-53379854D01*
X151556949Y-53379854D02*
X151556949Y-53570330D01*
X151556949Y-53570330D02*
X151518854Y-53646521D01*
X151518854Y-53646521D02*
X151480758Y-53684616D01*
X151480758Y-53684616D02*
X151404568Y-53722711D01*
X151404568Y-53722711D02*
X151328377Y-53722711D01*
X151328377Y-53722711D02*
X151252187Y-53684616D01*
X151252187Y-53684616D02*
X151214092Y-53646521D01*
X151214092Y-53646521D02*
X151175996Y-53570330D01*
X151175996Y-53570330D02*
X151137901Y-53417949D01*
X151137901Y-53417949D02*
X151099806Y-53341759D01*
X151099806Y-53341759D02*
X151061711Y-53303664D01*
X151061711Y-53303664D02*
X150985520Y-53265568D01*
X150985520Y-53265568D02*
X150909330Y-53265568D01*
X150909330Y-53265568D02*
X150833139Y-53303664D01*
X150833139Y-53303664D02*
X150795044Y-53341759D01*
X150795044Y-53341759D02*
X150756949Y-53417949D01*
X150756949Y-53417949D02*
X150756949Y-53608426D01*
X150756949Y-53608426D02*
X150795044Y-53722711D01*
X150756949Y-53989378D02*
X151556949Y-54179854D01*
X151556949Y-54179854D02*
X150985520Y-54332235D01*
X150985520Y-54332235D02*
X151556949Y-54484616D01*
X151556949Y-54484616D02*
X150756949Y-54675093D01*
X151480758Y-55436998D02*
X151518854Y-55398902D01*
X151518854Y-55398902D02*
X151556949Y-55284617D01*
X151556949Y-55284617D02*
X151556949Y-55208426D01*
X151556949Y-55208426D02*
X151518854Y-55094140D01*
X151518854Y-55094140D02*
X151442663Y-55017950D01*
X151442663Y-55017950D02*
X151366473Y-54979855D01*
X151366473Y-54979855D02*
X151214092Y-54941759D01*
X151214092Y-54941759D02*
X151099806Y-54941759D01*
X151099806Y-54941759D02*
X150947425Y-54979855D01*
X150947425Y-54979855D02*
X150871234Y-55017950D01*
X150871234Y-55017950D02*
X150795044Y-55094140D01*
X150795044Y-55094140D02*
X150756949Y-55208426D01*
X150756949Y-55208426D02*
X150756949Y-55284617D01*
X150756949Y-55284617D02*
X150795044Y-55398902D01*
X150795044Y-55398902D02*
X150833139Y-55436998D01*
X151556949Y-56160807D02*
X151556949Y-55779855D01*
X151556949Y-55779855D02*
X150756949Y-55779855D01*
X151556949Y-56427474D02*
X150756949Y-56427474D01*
X151556949Y-56884617D02*
X151099806Y-56541759D01*
X150756949Y-56884617D02*
X151214092Y-56427474D01*
X108953238Y-72697500D02*
X108603052Y-73047686D01*
X108603052Y-73047686D02*
X109007113Y-73074624D01*
X109007113Y-73074624D02*
X108926300Y-73155436D01*
X108926300Y-73155436D02*
X108899363Y-73236248D01*
X108899363Y-73236248D02*
X108899363Y-73290123D01*
X108899363Y-73290123D02*
X108926300Y-73370935D01*
X108926300Y-73370935D02*
X109060987Y-73505622D01*
X109060987Y-73505622D02*
X109141800Y-73532560D01*
X109141800Y-73532560D02*
X109195674Y-73532560D01*
X109195674Y-73532560D02*
X109276487Y-73505622D01*
X109276487Y-73505622D02*
X109438111Y-73343998D01*
X109438111Y-73343998D02*
X109465048Y-73263186D01*
X109465048Y-73263186D02*
X109465048Y-73209311D01*
X108441427Y-73209311D02*
X108818551Y-73963558D01*
X108818551Y-73963558D02*
X108064303Y-73586435D01*
X107929617Y-73721121D02*
X107579430Y-74071308D01*
X107579430Y-74071308D02*
X107983491Y-74098245D01*
X107983491Y-74098245D02*
X107902679Y-74179057D01*
X107902679Y-74179057D02*
X107875742Y-74259869D01*
X107875742Y-74259869D02*
X107875742Y-74313744D01*
X107875742Y-74313744D02*
X107902679Y-74394557D01*
X107902679Y-74394557D02*
X108037366Y-74529244D01*
X108037366Y-74529244D02*
X108118178Y-74556181D01*
X108118178Y-74556181D02*
X108172053Y-74556181D01*
X108172053Y-74556181D02*
X108252865Y-74529244D01*
X108252865Y-74529244D02*
X108414490Y-74367619D01*
X108414490Y-74367619D02*
X108441427Y-74286807D01*
X108441427Y-74286807D02*
X108441427Y-74232932D01*
X108091241Y-74798618D02*
X107660242Y-75229616D01*
X107175369Y-75014117D02*
X106986807Y-75202679D01*
X107202306Y-75579802D02*
X107471680Y-75310428D01*
X107471680Y-75310428D02*
X106905995Y-74744743D01*
X106905995Y-74744743D02*
X106636621Y-75014117D01*
X106959869Y-75822239D02*
X106394184Y-75256554D01*
X106394184Y-75256554D02*
X106636621Y-76145488D01*
X106636621Y-76145488D02*
X106070935Y-75579803D01*
X111485522Y-72665216D02*
X111135336Y-73015402D01*
X111135336Y-73015402D02*
X111539397Y-73042340D01*
X111539397Y-73042340D02*
X111458585Y-73123152D01*
X111458585Y-73123152D02*
X111431647Y-73203964D01*
X111431647Y-73203964D02*
X111431647Y-73257839D01*
X111431647Y-73257839D02*
X111458585Y-73338651D01*
X111458585Y-73338651D02*
X111593272Y-73473338D01*
X111593272Y-73473338D02*
X111674084Y-73500275D01*
X111674084Y-73500275D02*
X111727959Y-73500275D01*
X111727959Y-73500275D02*
X111808771Y-73473338D01*
X111808771Y-73473338D02*
X111970395Y-73311714D01*
X111970395Y-73311714D02*
X111997333Y-73230901D01*
X111997333Y-73230901D02*
X111997333Y-73177027D01*
X110973711Y-73177027D02*
X111350835Y-73931274D01*
X111350835Y-73931274D02*
X110596588Y-73554150D01*
X110461901Y-73688837D02*
X110111715Y-74039023D01*
X110111715Y-74039023D02*
X110515776Y-74065961D01*
X110515776Y-74065961D02*
X110434963Y-74146773D01*
X110434963Y-74146773D02*
X110408026Y-74227585D01*
X110408026Y-74227585D02*
X110408026Y-74281460D01*
X110408026Y-74281460D02*
X110434963Y-74362272D01*
X110434963Y-74362272D02*
X110569650Y-74496959D01*
X110569650Y-74496959D02*
X110650463Y-74523897D01*
X110650463Y-74523897D02*
X110704337Y-74523897D01*
X110704337Y-74523897D02*
X110785150Y-74496959D01*
X110785150Y-74496959D02*
X110946774Y-74335335D01*
X110946774Y-74335335D02*
X110973711Y-74254523D01*
X110973711Y-74254523D02*
X110973711Y-74200648D01*
X126386148Y-47288465D02*
X126413085Y-47207653D01*
X126413085Y-47207653D02*
X126493897Y-47126841D01*
X126493897Y-47126841D02*
X126601647Y-47072966D01*
X126601647Y-47072966D02*
X126709396Y-47072966D01*
X126709396Y-47072966D02*
X126790209Y-47099903D01*
X126790209Y-47099903D02*
X126924896Y-47180716D01*
X126924896Y-47180716D02*
X127005708Y-47261528D01*
X127005708Y-47261528D02*
X127086520Y-47396215D01*
X127086520Y-47396215D02*
X127113457Y-47477027D01*
X127113457Y-47477027D02*
X127113457Y-47584777D01*
X127113457Y-47584777D02*
X127059583Y-47692526D01*
X127059583Y-47692526D02*
X127005708Y-47746401D01*
X127005708Y-47746401D02*
X126897958Y-47800276D01*
X126897958Y-47800276D02*
X126844083Y-47800276D01*
X126844083Y-47800276D02*
X126655522Y-47611714D01*
X126655522Y-47611714D02*
X126763271Y-47503964D01*
X126655522Y-48096587D02*
X126089836Y-47530902D01*
X126089836Y-47530902D02*
X125874337Y-47746401D01*
X125874337Y-47746401D02*
X125847400Y-47827213D01*
X125847400Y-47827213D02*
X125847400Y-47881088D01*
X125847400Y-47881088D02*
X125874337Y-47961900D01*
X125874337Y-47961900D02*
X125955149Y-48042712D01*
X125955149Y-48042712D02*
X126035961Y-48069650D01*
X126035961Y-48069650D02*
X126089836Y-48069650D01*
X126089836Y-48069650D02*
X126170648Y-48042712D01*
X126170648Y-48042712D02*
X126386148Y-47827213D01*
X125685775Y-48419836D02*
X125712713Y-48339024D01*
X125712713Y-48339024D02*
X125712713Y-48285149D01*
X125712713Y-48285149D02*
X125685775Y-48204337D01*
X125685775Y-48204337D02*
X125658838Y-48177399D01*
X125658838Y-48177399D02*
X125578026Y-48150462D01*
X125578026Y-48150462D02*
X125524151Y-48150462D01*
X125524151Y-48150462D02*
X125443339Y-48177399D01*
X125443339Y-48177399D02*
X125335589Y-48285149D01*
X125335589Y-48285149D02*
X125308652Y-48365961D01*
X125308652Y-48365961D02*
X125308652Y-48419836D01*
X125308652Y-48419836D02*
X125335589Y-48500648D01*
X125335589Y-48500648D02*
X125362526Y-48527586D01*
X125362526Y-48527586D02*
X125443339Y-48554523D01*
X125443339Y-48554523D02*
X125497213Y-48554523D01*
X125497213Y-48554523D02*
X125578026Y-48527586D01*
X125578026Y-48527586D02*
X125685775Y-48419836D01*
X125685775Y-48419836D02*
X125766587Y-48392899D01*
X125766587Y-48392899D02*
X125820462Y-48392899D01*
X125820462Y-48392899D02*
X125901274Y-48419836D01*
X125901274Y-48419836D02*
X126009024Y-48527586D01*
X126009024Y-48527586D02*
X126035961Y-48608398D01*
X126035961Y-48608398D02*
X126035961Y-48662273D01*
X126035961Y-48662273D02*
X126009024Y-48743085D01*
X126009024Y-48743085D02*
X125901274Y-48850834D01*
X125901274Y-48850834D02*
X125820462Y-48877772D01*
X125820462Y-48877772D02*
X125766587Y-48877772D01*
X125766587Y-48877772D02*
X125685775Y-48850834D01*
X125685775Y-48850834D02*
X125578026Y-48743085D01*
X125578026Y-48743085D02*
X125551088Y-48662273D01*
X125551088Y-48662273D02*
X125551088Y-48608398D01*
X125551088Y-48608398D02*
X125578026Y-48527586D01*
X149515522Y-72873091D02*
X149542459Y-72792278D01*
X149542459Y-72792278D02*
X149623272Y-72711466D01*
X149623272Y-72711466D02*
X149731021Y-72657591D01*
X149731021Y-72657591D02*
X149838771Y-72657591D01*
X149838771Y-72657591D02*
X149919583Y-72684529D01*
X149919583Y-72684529D02*
X150054270Y-72765341D01*
X150054270Y-72765341D02*
X150135082Y-72846153D01*
X150135082Y-72846153D02*
X150215895Y-72980840D01*
X150215895Y-72980840D02*
X150242832Y-73061653D01*
X150242832Y-73061653D02*
X150242832Y-73169402D01*
X150242832Y-73169402D02*
X150188957Y-73277152D01*
X150188957Y-73277152D02*
X150135082Y-73331027D01*
X150135082Y-73331027D02*
X150027333Y-73384901D01*
X150027333Y-73384901D02*
X149973458Y-73384901D01*
X149973458Y-73384901D02*
X149784896Y-73196340D01*
X149784896Y-73196340D02*
X149892646Y-73088590D01*
X149784896Y-73681213D02*
X149219211Y-73115527D01*
X149219211Y-73115527D02*
X149003711Y-73331027D01*
X149003711Y-73331027D02*
X148976774Y-73411839D01*
X148976774Y-73411839D02*
X148976774Y-73465714D01*
X148976774Y-73465714D02*
X149003711Y-73546526D01*
X149003711Y-73546526D02*
X149084524Y-73627338D01*
X149084524Y-73627338D02*
X149165336Y-73654275D01*
X149165336Y-73654275D02*
X149219211Y-73654275D01*
X149219211Y-73654275D02*
X149300023Y-73627338D01*
X149300023Y-73627338D02*
X149515522Y-73411839D01*
X148922899Y-74543210D02*
X149246148Y-74219961D01*
X149084524Y-74381585D02*
X148518838Y-73815900D01*
X148518838Y-73815900D02*
X148653525Y-73842837D01*
X148653525Y-73842837D02*
X148761275Y-73842837D01*
X148761275Y-73842837D02*
X148842087Y-73815900D01*
X147872340Y-74462398D02*
X147980090Y-74354648D01*
X147980090Y-74354648D02*
X148060902Y-74327711D01*
X148060902Y-74327711D02*
X148114777Y-74327711D01*
X148114777Y-74327711D02*
X148249464Y-74354648D01*
X148249464Y-74354648D02*
X148384151Y-74435460D01*
X148384151Y-74435460D02*
X148599650Y-74650959D01*
X148599650Y-74650959D02*
X148626588Y-74731772D01*
X148626588Y-74731772D02*
X148626588Y-74785646D01*
X148626588Y-74785646D02*
X148599650Y-74866459D01*
X148599650Y-74866459D02*
X148491901Y-74974208D01*
X148491901Y-74974208D02*
X148411088Y-75001146D01*
X148411088Y-75001146D02*
X148357214Y-75001146D01*
X148357214Y-75001146D02*
X148276401Y-74974208D01*
X148276401Y-74974208D02*
X148141714Y-74839521D01*
X148141714Y-74839521D02*
X148114777Y-74758709D01*
X148114777Y-74758709D02*
X148114777Y-74704834D01*
X148114777Y-74704834D02*
X148141714Y-74624022D01*
X148141714Y-74624022D02*
X148249464Y-74516272D01*
X148249464Y-74516272D02*
X148330276Y-74489335D01*
X148330276Y-74489335D02*
X148384151Y-74489335D01*
X148384151Y-74489335D02*
X148464963Y-74516272D01*
X131493085Y-72861528D02*
X131520022Y-72780716D01*
X131520022Y-72780716D02*
X131600834Y-72699904D01*
X131600834Y-72699904D02*
X131708584Y-72646029D01*
X131708584Y-72646029D02*
X131816334Y-72646029D01*
X131816334Y-72646029D02*
X131897146Y-72672966D01*
X131897146Y-72672966D02*
X132031833Y-72753778D01*
X132031833Y-72753778D02*
X132112645Y-72834591D01*
X132112645Y-72834591D02*
X132193457Y-72969278D01*
X132193457Y-72969278D02*
X132220395Y-73050090D01*
X132220395Y-73050090D02*
X132220395Y-73157839D01*
X132220395Y-73157839D02*
X132166520Y-73265589D01*
X132166520Y-73265589D02*
X132112645Y-73319464D01*
X132112645Y-73319464D02*
X132004895Y-73373339D01*
X132004895Y-73373339D02*
X131951021Y-73373339D01*
X131951021Y-73373339D02*
X131762459Y-73184777D01*
X131762459Y-73184777D02*
X131870208Y-73077027D01*
X131762459Y-73669650D02*
X131196773Y-73103965D01*
X131196773Y-73103965D02*
X131439210Y-73992899D01*
X131439210Y-73992899D02*
X130873525Y-73427213D01*
X131169836Y-74262273D02*
X130604151Y-73696587D01*
X130604151Y-73696587D02*
X130469464Y-73831274D01*
X130469464Y-73831274D02*
X130415589Y-73939024D01*
X130415589Y-73939024D02*
X130415589Y-74046773D01*
X130415589Y-74046773D02*
X130442526Y-74127586D01*
X130442526Y-74127586D02*
X130523339Y-74262273D01*
X130523339Y-74262273D02*
X130604151Y-74343085D01*
X130604151Y-74343085D02*
X130738838Y-74423897D01*
X130738838Y-74423897D02*
X130819650Y-74450834D01*
X130819650Y-74450834D02*
X130927400Y-74450834D01*
X130927400Y-74450834D02*
X131035149Y-74396960D01*
X131035149Y-74396960D02*
X131169836Y-74262273D01*
X118793085Y-47261528D02*
X118820022Y-47180716D01*
X118820022Y-47180716D02*
X118900834Y-47099904D01*
X118900834Y-47099904D02*
X119008584Y-47046029D01*
X119008584Y-47046029D02*
X119116334Y-47046029D01*
X119116334Y-47046029D02*
X119197146Y-47072966D01*
X119197146Y-47072966D02*
X119331833Y-47153778D01*
X119331833Y-47153778D02*
X119412645Y-47234591D01*
X119412645Y-47234591D02*
X119493457Y-47369278D01*
X119493457Y-47369278D02*
X119520395Y-47450090D01*
X119520395Y-47450090D02*
X119520395Y-47557839D01*
X119520395Y-47557839D02*
X119466520Y-47665589D01*
X119466520Y-47665589D02*
X119412645Y-47719464D01*
X119412645Y-47719464D02*
X119304895Y-47773339D01*
X119304895Y-47773339D02*
X119251021Y-47773339D01*
X119251021Y-47773339D02*
X119062459Y-47584777D01*
X119062459Y-47584777D02*
X119170208Y-47477027D01*
X119062459Y-48069650D02*
X118496773Y-47503965D01*
X118496773Y-47503965D02*
X118739210Y-48392899D01*
X118739210Y-48392899D02*
X118173525Y-47827213D01*
X118469836Y-48662273D02*
X117904151Y-48096587D01*
X117904151Y-48096587D02*
X117769464Y-48231274D01*
X117769464Y-48231274D02*
X117715589Y-48339024D01*
X117715589Y-48339024D02*
X117715589Y-48446773D01*
X117715589Y-48446773D02*
X117742526Y-48527586D01*
X117742526Y-48527586D02*
X117823339Y-48662273D01*
X117823339Y-48662273D02*
X117904151Y-48743085D01*
X117904151Y-48743085D02*
X118038838Y-48823897D01*
X118038838Y-48823897D02*
X118119650Y-48850834D01*
X118119650Y-48850834D02*
X118227400Y-48850834D01*
X118227400Y-48850834D02*
X118335149Y-48796960D01*
X118335149Y-48796960D02*
X118469836Y-48662273D01*
X116241522Y-72873091D02*
X116268459Y-72792278D01*
X116268459Y-72792278D02*
X116349272Y-72711466D01*
X116349272Y-72711466D02*
X116457021Y-72657591D01*
X116457021Y-72657591D02*
X116564771Y-72657591D01*
X116564771Y-72657591D02*
X116645583Y-72684529D01*
X116645583Y-72684529D02*
X116780270Y-72765341D01*
X116780270Y-72765341D02*
X116861082Y-72846153D01*
X116861082Y-72846153D02*
X116941895Y-72980840D01*
X116941895Y-72980840D02*
X116968832Y-73061653D01*
X116968832Y-73061653D02*
X116968832Y-73169402D01*
X116968832Y-73169402D02*
X116914957Y-73277152D01*
X116914957Y-73277152D02*
X116861082Y-73331027D01*
X116861082Y-73331027D02*
X116753333Y-73384901D01*
X116753333Y-73384901D02*
X116699458Y-73384901D01*
X116699458Y-73384901D02*
X116510896Y-73196340D01*
X116510896Y-73196340D02*
X116618646Y-73088590D01*
X116510896Y-73681213D02*
X115945211Y-73115527D01*
X115945211Y-73115527D02*
X115729711Y-73331027D01*
X115729711Y-73331027D02*
X115702774Y-73411839D01*
X115702774Y-73411839D02*
X115702774Y-73465714D01*
X115702774Y-73465714D02*
X115729711Y-73546526D01*
X115729711Y-73546526D02*
X115810524Y-73627338D01*
X115810524Y-73627338D02*
X115891336Y-73654275D01*
X115891336Y-73654275D02*
X115945211Y-73654275D01*
X115945211Y-73654275D02*
X116026023Y-73627338D01*
X116026023Y-73627338D02*
X116241522Y-73411839D01*
X115460337Y-73708150D02*
X115406463Y-73708150D01*
X115406463Y-73708150D02*
X115325650Y-73735088D01*
X115325650Y-73735088D02*
X115190963Y-73869775D01*
X115190963Y-73869775D02*
X115164026Y-73950587D01*
X115164026Y-73950587D02*
X115164026Y-74004462D01*
X115164026Y-74004462D02*
X115190963Y-74085274D01*
X115190963Y-74085274D02*
X115244838Y-74139149D01*
X115244838Y-74139149D02*
X115352588Y-74193023D01*
X115352588Y-74193023D02*
X115999085Y-74193023D01*
X115999085Y-74193023D02*
X115648899Y-74543210D01*
X115002401Y-74543210D02*
X115029339Y-74462398D01*
X115029339Y-74462398D02*
X115029339Y-74408523D01*
X115029339Y-74408523D02*
X115002401Y-74327711D01*
X115002401Y-74327711D02*
X114975464Y-74300773D01*
X114975464Y-74300773D02*
X114894652Y-74273836D01*
X114894652Y-74273836D02*
X114840777Y-74273836D01*
X114840777Y-74273836D02*
X114759965Y-74300773D01*
X114759965Y-74300773D02*
X114652215Y-74408523D01*
X114652215Y-74408523D02*
X114625278Y-74489335D01*
X114625278Y-74489335D02*
X114625278Y-74543210D01*
X114625278Y-74543210D02*
X114652215Y-74624022D01*
X114652215Y-74624022D02*
X114679153Y-74650959D01*
X114679153Y-74650959D02*
X114759965Y-74677897D01*
X114759965Y-74677897D02*
X114813840Y-74677897D01*
X114813840Y-74677897D02*
X114894652Y-74650959D01*
X114894652Y-74650959D02*
X115002401Y-74543210D01*
X115002401Y-74543210D02*
X115083214Y-74516272D01*
X115083214Y-74516272D02*
X115137088Y-74516272D01*
X115137088Y-74516272D02*
X115217901Y-74543210D01*
X115217901Y-74543210D02*
X115325650Y-74650959D01*
X115325650Y-74650959D02*
X115352588Y-74731772D01*
X115352588Y-74731772D02*
X115352588Y-74785646D01*
X115352588Y-74785646D02*
X115325650Y-74866459D01*
X115325650Y-74866459D02*
X115217901Y-74974208D01*
X115217901Y-74974208D02*
X115137088Y-75001146D01*
X115137088Y-75001146D02*
X115083214Y-75001146D01*
X115083214Y-75001146D02*
X115002401Y-74974208D01*
X115002401Y-74974208D02*
X114894652Y-74866459D01*
X114894652Y-74866459D02*
X114867714Y-74785646D01*
X114867714Y-74785646D02*
X114867714Y-74731772D01*
X114867714Y-74731772D02*
X114894652Y-74650959D01*
X128926148Y-47288465D02*
X128953085Y-47207653D01*
X128953085Y-47207653D02*
X129033897Y-47126841D01*
X129033897Y-47126841D02*
X129141647Y-47072966D01*
X129141647Y-47072966D02*
X129249396Y-47072966D01*
X129249396Y-47072966D02*
X129330209Y-47099903D01*
X129330209Y-47099903D02*
X129464896Y-47180716D01*
X129464896Y-47180716D02*
X129545708Y-47261528D01*
X129545708Y-47261528D02*
X129626520Y-47396215D01*
X129626520Y-47396215D02*
X129653457Y-47477027D01*
X129653457Y-47477027D02*
X129653457Y-47584777D01*
X129653457Y-47584777D02*
X129599583Y-47692526D01*
X129599583Y-47692526D02*
X129545708Y-47746401D01*
X129545708Y-47746401D02*
X129437958Y-47800276D01*
X129437958Y-47800276D02*
X129384083Y-47800276D01*
X129384083Y-47800276D02*
X129195522Y-47611714D01*
X129195522Y-47611714D02*
X129303271Y-47503964D01*
X129195522Y-48096587D02*
X128629836Y-47530902D01*
X128629836Y-47530902D02*
X128414337Y-47746401D01*
X128414337Y-47746401D02*
X128387400Y-47827213D01*
X128387400Y-47827213D02*
X128387400Y-47881088D01*
X128387400Y-47881088D02*
X128414337Y-47961900D01*
X128414337Y-47961900D02*
X128495149Y-48042712D01*
X128495149Y-48042712D02*
X128575961Y-48069650D01*
X128575961Y-48069650D02*
X128629836Y-48069650D01*
X128629836Y-48069650D02*
X128710648Y-48042712D01*
X128710648Y-48042712D02*
X128926148Y-47827213D01*
X128602899Y-48689210D02*
X128495149Y-48796960D01*
X128495149Y-48796960D02*
X128414337Y-48823897D01*
X128414337Y-48823897D02*
X128360462Y-48823897D01*
X128360462Y-48823897D02*
X128225775Y-48796960D01*
X128225775Y-48796960D02*
X128091088Y-48716147D01*
X128091088Y-48716147D02*
X127875589Y-48500648D01*
X127875589Y-48500648D02*
X127848652Y-48419836D01*
X127848652Y-48419836D02*
X127848652Y-48365961D01*
X127848652Y-48365961D02*
X127875589Y-48285149D01*
X127875589Y-48285149D02*
X127983339Y-48177399D01*
X127983339Y-48177399D02*
X128064151Y-48150462D01*
X128064151Y-48150462D02*
X128118026Y-48150462D01*
X128118026Y-48150462D02*
X128198838Y-48177399D01*
X128198838Y-48177399D02*
X128333525Y-48312086D01*
X128333525Y-48312086D02*
X128360462Y-48392899D01*
X128360462Y-48392899D02*
X128360462Y-48446773D01*
X128360462Y-48446773D02*
X128333525Y-48527586D01*
X128333525Y-48527586D02*
X128225775Y-48635335D01*
X128225775Y-48635335D02*
X128144963Y-48662273D01*
X128144963Y-48662273D02*
X128091088Y-48662273D01*
X128091088Y-48662273D02*
X128010276Y-48635335D01*
X151518854Y-64679854D02*
X151556949Y-64794140D01*
X151556949Y-64794140D02*
X151556949Y-64984616D01*
X151556949Y-64984616D02*
X151518854Y-65060807D01*
X151518854Y-65060807D02*
X151480758Y-65098902D01*
X151480758Y-65098902D02*
X151404568Y-65136997D01*
X151404568Y-65136997D02*
X151328377Y-65136997D01*
X151328377Y-65136997D02*
X151252187Y-65098902D01*
X151252187Y-65098902D02*
X151214092Y-65060807D01*
X151214092Y-65060807D02*
X151175996Y-64984616D01*
X151175996Y-64984616D02*
X151137901Y-64832235D01*
X151137901Y-64832235D02*
X151099806Y-64756045D01*
X151099806Y-64756045D02*
X151061711Y-64717950D01*
X151061711Y-64717950D02*
X150985520Y-64679854D01*
X150985520Y-64679854D02*
X150909330Y-64679854D01*
X150909330Y-64679854D02*
X150833139Y-64717950D01*
X150833139Y-64717950D02*
X150795044Y-64756045D01*
X150795044Y-64756045D02*
X150756949Y-64832235D01*
X150756949Y-64832235D02*
X150756949Y-65022712D01*
X150756949Y-65022712D02*
X150795044Y-65136997D01*
X150756949Y-65403664D02*
X151556949Y-65594140D01*
X151556949Y-65594140D02*
X150985520Y-65746521D01*
X150985520Y-65746521D02*
X151556949Y-65898902D01*
X151556949Y-65898902D02*
X150756949Y-66089379D01*
X151556949Y-66394141D02*
X150756949Y-66394141D01*
X150756949Y-66394141D02*
X150756949Y-66584617D01*
X150756949Y-66584617D02*
X150795044Y-66698903D01*
X150795044Y-66698903D02*
X150871234Y-66775093D01*
X150871234Y-66775093D02*
X150947425Y-66813188D01*
X150947425Y-66813188D02*
X151099806Y-66851284D01*
X151099806Y-66851284D02*
X151214092Y-66851284D01*
X151214092Y-66851284D02*
X151366473Y-66813188D01*
X151366473Y-66813188D02*
X151442663Y-66775093D01*
X151442663Y-66775093D02*
X151518854Y-66698903D01*
X151518854Y-66698903D02*
X151556949Y-66584617D01*
X151556949Y-66584617D02*
X151556949Y-66394141D01*
X151556949Y-67194141D02*
X150756949Y-67194141D01*
X150756949Y-67727474D02*
X150756949Y-67879855D01*
X150756949Y-67879855D02*
X150795044Y-67956045D01*
X150795044Y-67956045D02*
X150871234Y-68032236D01*
X150871234Y-68032236D02*
X151023615Y-68070331D01*
X151023615Y-68070331D02*
X151290282Y-68070331D01*
X151290282Y-68070331D02*
X151442663Y-68032236D01*
X151442663Y-68032236D02*
X151518854Y-67956045D01*
X151518854Y-67956045D02*
X151556949Y-67879855D01*
X151556949Y-67879855D02*
X151556949Y-67727474D01*
X151556949Y-67727474D02*
X151518854Y-67651283D01*
X151518854Y-67651283D02*
X151442663Y-67575093D01*
X151442663Y-67575093D02*
X151290282Y-67536997D01*
X151290282Y-67536997D02*
X151023615Y-67536997D01*
X151023615Y-67536997D02*
X150871234Y-67575093D01*
X150871234Y-67575093D02*
X150795044Y-67651283D01*
X150795044Y-67651283D02*
X150756949Y-67727474D01*
X116226148Y-47288465D02*
X116253085Y-47207653D01*
X116253085Y-47207653D02*
X116333897Y-47126841D01*
X116333897Y-47126841D02*
X116441647Y-47072966D01*
X116441647Y-47072966D02*
X116549396Y-47072966D01*
X116549396Y-47072966D02*
X116630209Y-47099903D01*
X116630209Y-47099903D02*
X116764896Y-47180716D01*
X116764896Y-47180716D02*
X116845708Y-47261528D01*
X116845708Y-47261528D02*
X116926520Y-47396215D01*
X116926520Y-47396215D02*
X116953457Y-47477027D01*
X116953457Y-47477027D02*
X116953457Y-47584777D01*
X116953457Y-47584777D02*
X116899583Y-47692526D01*
X116899583Y-47692526D02*
X116845708Y-47746401D01*
X116845708Y-47746401D02*
X116737958Y-47800276D01*
X116737958Y-47800276D02*
X116684083Y-47800276D01*
X116684083Y-47800276D02*
X116495522Y-47611714D01*
X116495522Y-47611714D02*
X116603271Y-47503964D01*
X116495522Y-48096587D02*
X115929836Y-47530902D01*
X115929836Y-47530902D02*
X115714337Y-47746401D01*
X115714337Y-47746401D02*
X115687400Y-47827213D01*
X115687400Y-47827213D02*
X115687400Y-47881088D01*
X115687400Y-47881088D02*
X115714337Y-47961900D01*
X115714337Y-47961900D02*
X115795149Y-48042712D01*
X115795149Y-48042712D02*
X115875961Y-48069650D01*
X115875961Y-48069650D02*
X115929836Y-48069650D01*
X115929836Y-48069650D02*
X116010648Y-48042712D01*
X116010648Y-48042712D02*
X116226148Y-47827213D01*
X115094777Y-48365961D02*
X115364151Y-48096587D01*
X115364151Y-48096587D02*
X115660462Y-48339024D01*
X115660462Y-48339024D02*
X115606587Y-48339024D01*
X115606587Y-48339024D02*
X115525775Y-48365961D01*
X115525775Y-48365961D02*
X115391088Y-48500648D01*
X115391088Y-48500648D02*
X115364151Y-48581460D01*
X115364151Y-48581460D02*
X115364151Y-48635335D01*
X115364151Y-48635335D02*
X115391088Y-48716147D01*
X115391088Y-48716147D02*
X115525775Y-48850834D01*
X115525775Y-48850834D02*
X115606587Y-48877772D01*
X115606587Y-48877772D02*
X115660462Y-48877772D01*
X115660462Y-48877772D02*
X115741274Y-48850834D01*
X115741274Y-48850834D02*
X115875961Y-48716147D01*
X115875961Y-48716147D02*
X115902899Y-48635335D01*
X115902899Y-48635335D02*
X115902899Y-48581460D01*
X100986148Y-47288465D02*
X101013085Y-47207653D01*
X101013085Y-47207653D02*
X101093897Y-47126841D01*
X101093897Y-47126841D02*
X101201647Y-47072966D01*
X101201647Y-47072966D02*
X101309396Y-47072966D01*
X101309396Y-47072966D02*
X101390209Y-47099903D01*
X101390209Y-47099903D02*
X101524896Y-47180716D01*
X101524896Y-47180716D02*
X101605708Y-47261528D01*
X101605708Y-47261528D02*
X101686520Y-47396215D01*
X101686520Y-47396215D02*
X101713457Y-47477027D01*
X101713457Y-47477027D02*
X101713457Y-47584777D01*
X101713457Y-47584777D02*
X101659583Y-47692526D01*
X101659583Y-47692526D02*
X101605708Y-47746401D01*
X101605708Y-47746401D02*
X101497958Y-47800276D01*
X101497958Y-47800276D02*
X101444083Y-47800276D01*
X101444083Y-47800276D02*
X101255522Y-47611714D01*
X101255522Y-47611714D02*
X101363271Y-47503964D01*
X101255522Y-48096587D02*
X100689836Y-47530902D01*
X100689836Y-47530902D02*
X100474337Y-47746401D01*
X100474337Y-47746401D02*
X100447400Y-47827213D01*
X100447400Y-47827213D02*
X100447400Y-47881088D01*
X100447400Y-47881088D02*
X100474337Y-47961900D01*
X100474337Y-47961900D02*
X100555149Y-48042712D01*
X100555149Y-48042712D02*
X100635961Y-48069650D01*
X100635961Y-48069650D02*
X100689836Y-48069650D01*
X100689836Y-48069650D02*
X100770648Y-48042712D01*
X100770648Y-48042712D02*
X100986148Y-47827213D01*
X100016401Y-48204337D02*
X99962526Y-48258212D01*
X99962526Y-48258212D02*
X99935589Y-48339024D01*
X99935589Y-48339024D02*
X99935589Y-48392899D01*
X99935589Y-48392899D02*
X99962526Y-48473711D01*
X99962526Y-48473711D02*
X100043339Y-48608398D01*
X100043339Y-48608398D02*
X100178026Y-48743085D01*
X100178026Y-48743085D02*
X100312713Y-48823897D01*
X100312713Y-48823897D02*
X100393525Y-48850834D01*
X100393525Y-48850834D02*
X100447400Y-48850834D01*
X100447400Y-48850834D02*
X100528212Y-48823897D01*
X100528212Y-48823897D02*
X100582087Y-48770022D01*
X100582087Y-48770022D02*
X100609024Y-48689210D01*
X100609024Y-48689210D02*
X100609024Y-48635335D01*
X100609024Y-48635335D02*
X100582087Y-48554523D01*
X100582087Y-48554523D02*
X100501274Y-48419836D01*
X100501274Y-48419836D02*
X100366587Y-48285149D01*
X100366587Y-48285149D02*
X100231900Y-48204337D01*
X100231900Y-48204337D02*
X100151088Y-48177399D01*
X100151088Y-48177399D02*
X100097213Y-48177399D01*
X100097213Y-48177399D02*
X100016401Y-48204337D01*
X111146148Y-47288465D02*
X111173085Y-47207653D01*
X111173085Y-47207653D02*
X111253897Y-47126841D01*
X111253897Y-47126841D02*
X111361647Y-47072966D01*
X111361647Y-47072966D02*
X111469396Y-47072966D01*
X111469396Y-47072966D02*
X111550209Y-47099903D01*
X111550209Y-47099903D02*
X111684896Y-47180716D01*
X111684896Y-47180716D02*
X111765708Y-47261528D01*
X111765708Y-47261528D02*
X111846520Y-47396215D01*
X111846520Y-47396215D02*
X111873457Y-47477027D01*
X111873457Y-47477027D02*
X111873457Y-47584777D01*
X111873457Y-47584777D02*
X111819583Y-47692526D01*
X111819583Y-47692526D02*
X111765708Y-47746401D01*
X111765708Y-47746401D02*
X111657958Y-47800276D01*
X111657958Y-47800276D02*
X111604083Y-47800276D01*
X111604083Y-47800276D02*
X111415522Y-47611714D01*
X111415522Y-47611714D02*
X111523271Y-47503964D01*
X111415522Y-48096587D02*
X110849836Y-47530902D01*
X110849836Y-47530902D02*
X110634337Y-47746401D01*
X110634337Y-47746401D02*
X110607400Y-47827213D01*
X110607400Y-47827213D02*
X110607400Y-47881088D01*
X110607400Y-47881088D02*
X110634337Y-47961900D01*
X110634337Y-47961900D02*
X110715149Y-48042712D01*
X110715149Y-48042712D02*
X110795961Y-48069650D01*
X110795961Y-48069650D02*
X110849836Y-48069650D01*
X110849836Y-48069650D02*
X110930648Y-48042712D01*
X110930648Y-48042712D02*
X111146148Y-47827213D01*
X110338026Y-48042712D02*
X109987839Y-48392899D01*
X109987839Y-48392899D02*
X110391900Y-48419836D01*
X110391900Y-48419836D02*
X110311088Y-48500648D01*
X110311088Y-48500648D02*
X110284151Y-48581460D01*
X110284151Y-48581460D02*
X110284151Y-48635335D01*
X110284151Y-48635335D02*
X110311088Y-48716147D01*
X110311088Y-48716147D02*
X110445775Y-48850834D01*
X110445775Y-48850834D02*
X110526587Y-48877772D01*
X110526587Y-48877772D02*
X110580462Y-48877772D01*
X110580462Y-48877772D02*
X110661274Y-48850834D01*
X110661274Y-48850834D02*
X110822899Y-48689210D01*
X110822899Y-48689210D02*
X110849836Y-48608398D01*
X110849836Y-48608398D02*
X110849836Y-48554523D01*
X144193085Y-47261528D02*
X144220022Y-47180716D01*
X144220022Y-47180716D02*
X144300834Y-47099904D01*
X144300834Y-47099904D02*
X144408584Y-47046029D01*
X144408584Y-47046029D02*
X144516334Y-47046029D01*
X144516334Y-47046029D02*
X144597146Y-47072966D01*
X144597146Y-47072966D02*
X144731833Y-47153778D01*
X144731833Y-47153778D02*
X144812645Y-47234591D01*
X144812645Y-47234591D02*
X144893457Y-47369278D01*
X144893457Y-47369278D02*
X144920395Y-47450090D01*
X144920395Y-47450090D02*
X144920395Y-47557839D01*
X144920395Y-47557839D02*
X144866520Y-47665589D01*
X144866520Y-47665589D02*
X144812645Y-47719464D01*
X144812645Y-47719464D02*
X144704895Y-47773339D01*
X144704895Y-47773339D02*
X144651021Y-47773339D01*
X144651021Y-47773339D02*
X144462459Y-47584777D01*
X144462459Y-47584777D02*
X144570208Y-47477027D01*
X144462459Y-48069650D02*
X143896773Y-47503965D01*
X143896773Y-47503965D02*
X144139210Y-48392899D01*
X144139210Y-48392899D02*
X143573525Y-47827213D01*
X143869836Y-48662273D02*
X143304151Y-48096587D01*
X143304151Y-48096587D02*
X143169464Y-48231274D01*
X143169464Y-48231274D02*
X143115589Y-48339024D01*
X143115589Y-48339024D02*
X143115589Y-48446773D01*
X143115589Y-48446773D02*
X143142526Y-48527586D01*
X143142526Y-48527586D02*
X143223339Y-48662273D01*
X143223339Y-48662273D02*
X143304151Y-48743085D01*
X143304151Y-48743085D02*
X143438838Y-48823897D01*
X143438838Y-48823897D02*
X143519650Y-48850834D01*
X143519650Y-48850834D02*
X143627400Y-48850834D01*
X143627400Y-48850834D02*
X143735149Y-48796960D01*
X143735149Y-48796960D02*
X143869836Y-48662273D01*
X106093085Y-47261528D02*
X106120022Y-47180716D01*
X106120022Y-47180716D02*
X106200834Y-47099904D01*
X106200834Y-47099904D02*
X106308584Y-47046029D01*
X106308584Y-47046029D02*
X106416334Y-47046029D01*
X106416334Y-47046029D02*
X106497146Y-47072966D01*
X106497146Y-47072966D02*
X106631833Y-47153778D01*
X106631833Y-47153778D02*
X106712645Y-47234591D01*
X106712645Y-47234591D02*
X106793457Y-47369278D01*
X106793457Y-47369278D02*
X106820395Y-47450090D01*
X106820395Y-47450090D02*
X106820395Y-47557839D01*
X106820395Y-47557839D02*
X106766520Y-47665589D01*
X106766520Y-47665589D02*
X106712645Y-47719464D01*
X106712645Y-47719464D02*
X106604895Y-47773339D01*
X106604895Y-47773339D02*
X106551021Y-47773339D01*
X106551021Y-47773339D02*
X106362459Y-47584777D01*
X106362459Y-47584777D02*
X106470208Y-47477027D01*
X106362459Y-48069650D02*
X105796773Y-47503965D01*
X105796773Y-47503965D02*
X106039210Y-48392899D01*
X106039210Y-48392899D02*
X105473525Y-47827213D01*
X105769836Y-48662273D02*
X105204151Y-48096587D01*
X105204151Y-48096587D02*
X105069464Y-48231274D01*
X105069464Y-48231274D02*
X105015589Y-48339024D01*
X105015589Y-48339024D02*
X105015589Y-48446773D01*
X105015589Y-48446773D02*
X105042526Y-48527586D01*
X105042526Y-48527586D02*
X105123339Y-48662273D01*
X105123339Y-48662273D02*
X105204151Y-48743085D01*
X105204151Y-48743085D02*
X105338838Y-48823897D01*
X105338838Y-48823897D02*
X105419650Y-48850834D01*
X105419650Y-48850834D02*
X105527400Y-48850834D01*
X105527400Y-48850834D02*
X105635149Y-48796960D01*
X105635149Y-48796960D02*
X105769836Y-48662273D01*
X136815522Y-72873091D02*
X136842459Y-72792278D01*
X136842459Y-72792278D02*
X136923272Y-72711466D01*
X136923272Y-72711466D02*
X137031021Y-72657591D01*
X137031021Y-72657591D02*
X137138771Y-72657591D01*
X137138771Y-72657591D02*
X137219583Y-72684529D01*
X137219583Y-72684529D02*
X137354270Y-72765341D01*
X137354270Y-72765341D02*
X137435082Y-72846153D01*
X137435082Y-72846153D02*
X137515895Y-72980840D01*
X137515895Y-72980840D02*
X137542832Y-73061653D01*
X137542832Y-73061653D02*
X137542832Y-73169402D01*
X137542832Y-73169402D02*
X137488957Y-73277152D01*
X137488957Y-73277152D02*
X137435082Y-73331027D01*
X137435082Y-73331027D02*
X137327333Y-73384901D01*
X137327333Y-73384901D02*
X137273458Y-73384901D01*
X137273458Y-73384901D02*
X137084896Y-73196340D01*
X137084896Y-73196340D02*
X137192646Y-73088590D01*
X137084896Y-73681213D02*
X136519211Y-73115527D01*
X136519211Y-73115527D02*
X136303711Y-73331027D01*
X136303711Y-73331027D02*
X136276774Y-73411839D01*
X136276774Y-73411839D02*
X136276774Y-73465714D01*
X136276774Y-73465714D02*
X136303711Y-73546526D01*
X136303711Y-73546526D02*
X136384524Y-73627338D01*
X136384524Y-73627338D02*
X136465336Y-73654275D01*
X136465336Y-73654275D02*
X136519211Y-73654275D01*
X136519211Y-73654275D02*
X136600023Y-73627338D01*
X136600023Y-73627338D02*
X136815522Y-73411839D01*
X136034337Y-73708150D02*
X135980463Y-73708150D01*
X135980463Y-73708150D02*
X135899650Y-73735088D01*
X135899650Y-73735088D02*
X135764963Y-73869775D01*
X135764963Y-73869775D02*
X135738026Y-73950587D01*
X135738026Y-73950587D02*
X135738026Y-74004462D01*
X135738026Y-74004462D02*
X135764963Y-74085274D01*
X135764963Y-74085274D02*
X135818838Y-74139149D01*
X135818838Y-74139149D02*
X135926588Y-74193023D01*
X135926588Y-74193023D02*
X136573085Y-74193023D01*
X136573085Y-74193023D02*
X136222899Y-74543210D01*
X135307027Y-74327711D02*
X135253153Y-74381585D01*
X135253153Y-74381585D02*
X135226215Y-74462398D01*
X135226215Y-74462398D02*
X135226215Y-74516272D01*
X135226215Y-74516272D02*
X135253153Y-74597085D01*
X135253153Y-74597085D02*
X135333965Y-74731772D01*
X135333965Y-74731772D02*
X135468652Y-74866459D01*
X135468652Y-74866459D02*
X135603339Y-74947271D01*
X135603339Y-74947271D02*
X135684151Y-74974208D01*
X135684151Y-74974208D02*
X135738026Y-74974208D01*
X135738026Y-74974208D02*
X135818838Y-74947271D01*
X135818838Y-74947271D02*
X135872713Y-74893396D01*
X135872713Y-74893396D02*
X135899650Y-74812584D01*
X135899650Y-74812584D02*
X135899650Y-74758709D01*
X135899650Y-74758709D02*
X135872713Y-74677897D01*
X135872713Y-74677897D02*
X135791901Y-74543210D01*
X135791901Y-74543210D02*
X135657214Y-74408523D01*
X135657214Y-74408523D02*
X135522527Y-74327711D01*
X135522527Y-74327711D02*
X135441714Y-74300773D01*
X135441714Y-74300773D02*
X135387840Y-74300773D01*
X135387840Y-74300773D02*
X135307027Y-74327711D01*
X139355522Y-72873091D02*
X139382459Y-72792278D01*
X139382459Y-72792278D02*
X139463272Y-72711466D01*
X139463272Y-72711466D02*
X139571021Y-72657591D01*
X139571021Y-72657591D02*
X139678771Y-72657591D01*
X139678771Y-72657591D02*
X139759583Y-72684529D01*
X139759583Y-72684529D02*
X139894270Y-72765341D01*
X139894270Y-72765341D02*
X139975082Y-72846153D01*
X139975082Y-72846153D02*
X140055895Y-72980840D01*
X140055895Y-72980840D02*
X140082832Y-73061653D01*
X140082832Y-73061653D02*
X140082832Y-73169402D01*
X140082832Y-73169402D02*
X140028957Y-73277152D01*
X140028957Y-73277152D02*
X139975082Y-73331027D01*
X139975082Y-73331027D02*
X139867333Y-73384901D01*
X139867333Y-73384901D02*
X139813458Y-73384901D01*
X139813458Y-73384901D02*
X139624896Y-73196340D01*
X139624896Y-73196340D02*
X139732646Y-73088590D01*
X139624896Y-73681213D02*
X139059211Y-73115527D01*
X139059211Y-73115527D02*
X138843711Y-73331027D01*
X138843711Y-73331027D02*
X138816774Y-73411839D01*
X138816774Y-73411839D02*
X138816774Y-73465714D01*
X138816774Y-73465714D02*
X138843711Y-73546526D01*
X138843711Y-73546526D02*
X138924524Y-73627338D01*
X138924524Y-73627338D02*
X139005336Y-73654275D01*
X139005336Y-73654275D02*
X139059211Y-73654275D01*
X139059211Y-73654275D02*
X139140023Y-73627338D01*
X139140023Y-73627338D02*
X139355522Y-73411839D01*
X138762899Y-74543210D02*
X139086148Y-74219961D01*
X138924524Y-74381585D02*
X138358838Y-73815900D01*
X138358838Y-73815900D02*
X138493525Y-73842837D01*
X138493525Y-73842837D02*
X138601275Y-73842837D01*
X138601275Y-73842837D02*
X138682087Y-73815900D01*
X138493525Y-74812584D02*
X138385775Y-74920333D01*
X138385775Y-74920333D02*
X138304963Y-74947271D01*
X138304963Y-74947271D02*
X138251088Y-74947271D01*
X138251088Y-74947271D02*
X138116401Y-74920333D01*
X138116401Y-74920333D02*
X137981714Y-74839521D01*
X137981714Y-74839521D02*
X137766215Y-74624022D01*
X137766215Y-74624022D02*
X137739278Y-74543210D01*
X137739278Y-74543210D02*
X137739278Y-74489335D01*
X137739278Y-74489335D02*
X137766215Y-74408523D01*
X137766215Y-74408523D02*
X137873965Y-74300773D01*
X137873965Y-74300773D02*
X137954777Y-74273836D01*
X137954777Y-74273836D02*
X138008652Y-74273836D01*
X138008652Y-74273836D02*
X138089464Y-74300773D01*
X138089464Y-74300773D02*
X138224151Y-74435460D01*
X138224151Y-74435460D02*
X138251088Y-74516272D01*
X138251088Y-74516272D02*
X138251088Y-74570147D01*
X138251088Y-74570147D02*
X138224151Y-74650959D01*
X138224151Y-74650959D02*
X138116401Y-74758709D01*
X138116401Y-74758709D02*
X138035589Y-74785646D01*
X138035589Y-74785646D02*
X137981714Y-74785646D01*
X137981714Y-74785646D02*
X137900902Y-74758709D01*
X108606148Y-47188465D02*
X108633085Y-47107653D01*
X108633085Y-47107653D02*
X108713897Y-47026841D01*
X108713897Y-47026841D02*
X108821647Y-46972966D01*
X108821647Y-46972966D02*
X108929396Y-46972966D01*
X108929396Y-46972966D02*
X109010209Y-46999903D01*
X109010209Y-46999903D02*
X109144896Y-47080716D01*
X109144896Y-47080716D02*
X109225708Y-47161528D01*
X109225708Y-47161528D02*
X109306520Y-47296215D01*
X109306520Y-47296215D02*
X109333457Y-47377027D01*
X109333457Y-47377027D02*
X109333457Y-47484777D01*
X109333457Y-47484777D02*
X109279583Y-47592526D01*
X109279583Y-47592526D02*
X109225708Y-47646401D01*
X109225708Y-47646401D02*
X109117958Y-47700276D01*
X109117958Y-47700276D02*
X109064083Y-47700276D01*
X109064083Y-47700276D02*
X108875522Y-47511714D01*
X108875522Y-47511714D02*
X108983271Y-47403964D01*
X108875522Y-47996587D02*
X108309836Y-47430902D01*
X108309836Y-47430902D02*
X108094337Y-47646401D01*
X108094337Y-47646401D02*
X108067400Y-47727213D01*
X108067400Y-47727213D02*
X108067400Y-47781088D01*
X108067400Y-47781088D02*
X108094337Y-47861900D01*
X108094337Y-47861900D02*
X108175149Y-47942712D01*
X108175149Y-47942712D02*
X108255961Y-47969650D01*
X108255961Y-47969650D02*
X108309836Y-47969650D01*
X108309836Y-47969650D02*
X108390648Y-47942712D01*
X108390648Y-47942712D02*
X108606148Y-47727213D01*
X107824963Y-48023525D02*
X107771088Y-48023525D01*
X107771088Y-48023525D02*
X107690276Y-48050462D01*
X107690276Y-48050462D02*
X107555589Y-48185149D01*
X107555589Y-48185149D02*
X107528652Y-48265961D01*
X107528652Y-48265961D02*
X107528652Y-48319836D01*
X107528652Y-48319836D02*
X107555589Y-48400648D01*
X107555589Y-48400648D02*
X107609464Y-48454523D01*
X107609464Y-48454523D02*
X107717213Y-48508398D01*
X107717213Y-48508398D02*
X108363711Y-48508398D01*
X108363711Y-48508398D02*
X108013525Y-48858584D01*
X141895522Y-72873091D02*
X141922459Y-72792278D01*
X141922459Y-72792278D02*
X142003272Y-72711466D01*
X142003272Y-72711466D02*
X142111021Y-72657591D01*
X142111021Y-72657591D02*
X142218771Y-72657591D01*
X142218771Y-72657591D02*
X142299583Y-72684529D01*
X142299583Y-72684529D02*
X142434270Y-72765341D01*
X142434270Y-72765341D02*
X142515082Y-72846153D01*
X142515082Y-72846153D02*
X142595895Y-72980840D01*
X142595895Y-72980840D02*
X142622832Y-73061653D01*
X142622832Y-73061653D02*
X142622832Y-73169402D01*
X142622832Y-73169402D02*
X142568957Y-73277152D01*
X142568957Y-73277152D02*
X142515082Y-73331027D01*
X142515082Y-73331027D02*
X142407333Y-73384901D01*
X142407333Y-73384901D02*
X142353458Y-73384901D01*
X142353458Y-73384901D02*
X142164896Y-73196340D01*
X142164896Y-73196340D02*
X142272646Y-73088590D01*
X142164896Y-73681213D02*
X141599211Y-73115527D01*
X141599211Y-73115527D02*
X141383711Y-73331027D01*
X141383711Y-73331027D02*
X141356774Y-73411839D01*
X141356774Y-73411839D02*
X141356774Y-73465714D01*
X141356774Y-73465714D02*
X141383711Y-73546526D01*
X141383711Y-73546526D02*
X141464524Y-73627338D01*
X141464524Y-73627338D02*
X141545336Y-73654275D01*
X141545336Y-73654275D02*
X141599211Y-73654275D01*
X141599211Y-73654275D02*
X141680023Y-73627338D01*
X141680023Y-73627338D02*
X141895522Y-73411839D01*
X141302899Y-74543210D02*
X141626148Y-74219961D01*
X141464524Y-74381585D02*
X140898838Y-73815900D01*
X140898838Y-73815900D02*
X141033525Y-73842837D01*
X141033525Y-73842837D02*
X141141275Y-73842837D01*
X141141275Y-73842837D02*
X141222087Y-73815900D01*
X140656401Y-74543210D02*
X140683339Y-74462398D01*
X140683339Y-74462398D02*
X140683339Y-74408523D01*
X140683339Y-74408523D02*
X140656401Y-74327711D01*
X140656401Y-74327711D02*
X140629464Y-74300773D01*
X140629464Y-74300773D02*
X140548652Y-74273836D01*
X140548652Y-74273836D02*
X140494777Y-74273836D01*
X140494777Y-74273836D02*
X140413965Y-74300773D01*
X140413965Y-74300773D02*
X140306215Y-74408523D01*
X140306215Y-74408523D02*
X140279278Y-74489335D01*
X140279278Y-74489335D02*
X140279278Y-74543210D01*
X140279278Y-74543210D02*
X140306215Y-74624022D01*
X140306215Y-74624022D02*
X140333153Y-74650959D01*
X140333153Y-74650959D02*
X140413965Y-74677897D01*
X140413965Y-74677897D02*
X140467840Y-74677897D01*
X140467840Y-74677897D02*
X140548652Y-74650959D01*
X140548652Y-74650959D02*
X140656401Y-74543210D01*
X140656401Y-74543210D02*
X140737214Y-74516272D01*
X140737214Y-74516272D02*
X140791088Y-74516272D01*
X140791088Y-74516272D02*
X140871901Y-74543210D01*
X140871901Y-74543210D02*
X140979650Y-74650959D01*
X140979650Y-74650959D02*
X141006588Y-74731772D01*
X141006588Y-74731772D02*
X141006588Y-74785646D01*
X141006588Y-74785646D02*
X140979650Y-74866459D01*
X140979650Y-74866459D02*
X140871901Y-74974208D01*
X140871901Y-74974208D02*
X140791088Y-75001146D01*
X140791088Y-75001146D02*
X140737214Y-75001146D01*
X140737214Y-75001146D02*
X140656401Y-74974208D01*
X140656401Y-74974208D02*
X140548652Y-74866459D01*
X140548652Y-74866459D02*
X140521714Y-74785646D01*
X140521714Y-74785646D02*
X140521714Y-74731772D01*
X140521714Y-74731772D02*
X140548652Y-74650959D01*
X121306148Y-47288465D02*
X121333085Y-47207653D01*
X121333085Y-47207653D02*
X121413897Y-47126841D01*
X121413897Y-47126841D02*
X121521647Y-47072966D01*
X121521647Y-47072966D02*
X121629396Y-47072966D01*
X121629396Y-47072966D02*
X121710209Y-47099903D01*
X121710209Y-47099903D02*
X121844896Y-47180716D01*
X121844896Y-47180716D02*
X121925708Y-47261528D01*
X121925708Y-47261528D02*
X122006520Y-47396215D01*
X122006520Y-47396215D02*
X122033457Y-47477027D01*
X122033457Y-47477027D02*
X122033457Y-47584777D01*
X122033457Y-47584777D02*
X121979583Y-47692526D01*
X121979583Y-47692526D02*
X121925708Y-47746401D01*
X121925708Y-47746401D02*
X121817958Y-47800276D01*
X121817958Y-47800276D02*
X121764083Y-47800276D01*
X121764083Y-47800276D02*
X121575522Y-47611714D01*
X121575522Y-47611714D02*
X121683271Y-47503964D01*
X121575522Y-48096587D02*
X121009836Y-47530902D01*
X121009836Y-47530902D02*
X120794337Y-47746401D01*
X120794337Y-47746401D02*
X120767400Y-47827213D01*
X120767400Y-47827213D02*
X120767400Y-47881088D01*
X120767400Y-47881088D02*
X120794337Y-47961900D01*
X120794337Y-47961900D02*
X120875149Y-48042712D01*
X120875149Y-48042712D02*
X120955961Y-48069650D01*
X120955961Y-48069650D02*
X121009836Y-48069650D01*
X121009836Y-48069650D02*
X121090648Y-48042712D01*
X121090648Y-48042712D02*
X121306148Y-47827213D01*
X120201714Y-48339024D02*
X120309464Y-48231274D01*
X120309464Y-48231274D02*
X120390276Y-48204337D01*
X120390276Y-48204337D02*
X120444151Y-48204337D01*
X120444151Y-48204337D02*
X120578838Y-48231274D01*
X120578838Y-48231274D02*
X120713525Y-48312086D01*
X120713525Y-48312086D02*
X120929024Y-48527586D01*
X120929024Y-48527586D02*
X120955961Y-48608398D01*
X120955961Y-48608398D02*
X120955961Y-48662273D01*
X120955961Y-48662273D02*
X120929024Y-48743085D01*
X120929024Y-48743085D02*
X120821274Y-48850834D01*
X120821274Y-48850834D02*
X120740462Y-48877772D01*
X120740462Y-48877772D02*
X120686587Y-48877772D01*
X120686587Y-48877772D02*
X120605775Y-48850834D01*
X120605775Y-48850834D02*
X120471088Y-48716147D01*
X120471088Y-48716147D02*
X120444151Y-48635335D01*
X120444151Y-48635335D02*
X120444151Y-48581460D01*
X120444151Y-48581460D02*
X120471088Y-48500648D01*
X120471088Y-48500648D02*
X120578838Y-48392899D01*
X120578838Y-48392899D02*
X120659650Y-48365961D01*
X120659650Y-48365961D02*
X120713525Y-48365961D01*
X120713525Y-48365961D02*
X120794337Y-48392899D01*
X134285522Y-72873091D02*
X134312459Y-72792278D01*
X134312459Y-72792278D02*
X134393272Y-72711466D01*
X134393272Y-72711466D02*
X134501021Y-72657591D01*
X134501021Y-72657591D02*
X134608771Y-72657591D01*
X134608771Y-72657591D02*
X134689583Y-72684529D01*
X134689583Y-72684529D02*
X134824270Y-72765341D01*
X134824270Y-72765341D02*
X134905082Y-72846153D01*
X134905082Y-72846153D02*
X134985895Y-72980840D01*
X134985895Y-72980840D02*
X135012832Y-73061653D01*
X135012832Y-73061653D02*
X135012832Y-73169402D01*
X135012832Y-73169402D02*
X134958957Y-73277152D01*
X134958957Y-73277152D02*
X134905082Y-73331027D01*
X134905082Y-73331027D02*
X134797333Y-73384901D01*
X134797333Y-73384901D02*
X134743458Y-73384901D01*
X134743458Y-73384901D02*
X134554896Y-73196340D01*
X134554896Y-73196340D02*
X134662646Y-73088590D01*
X134554896Y-73681213D02*
X133989211Y-73115527D01*
X133989211Y-73115527D02*
X133773711Y-73331027D01*
X133773711Y-73331027D02*
X133746774Y-73411839D01*
X133746774Y-73411839D02*
X133746774Y-73465714D01*
X133746774Y-73465714D02*
X133773711Y-73546526D01*
X133773711Y-73546526D02*
X133854524Y-73627338D01*
X133854524Y-73627338D02*
X133935336Y-73654275D01*
X133935336Y-73654275D02*
X133989211Y-73654275D01*
X133989211Y-73654275D02*
X134070023Y-73627338D01*
X134070023Y-73627338D02*
X134285522Y-73411839D01*
X133504337Y-73708150D02*
X133450463Y-73708150D01*
X133450463Y-73708150D02*
X133369650Y-73735088D01*
X133369650Y-73735088D02*
X133234963Y-73869775D01*
X133234963Y-73869775D02*
X133208026Y-73950587D01*
X133208026Y-73950587D02*
X133208026Y-74004462D01*
X133208026Y-74004462D02*
X133234963Y-74085274D01*
X133234963Y-74085274D02*
X133288838Y-74139149D01*
X133288838Y-74139149D02*
X133396588Y-74193023D01*
X133396588Y-74193023D02*
X134043085Y-74193023D01*
X134043085Y-74193023D02*
X133692899Y-74543210D01*
X133154151Y-75081958D02*
X133477400Y-74758709D01*
X133315775Y-74920333D02*
X132750090Y-74354648D01*
X132750090Y-74354648D02*
X132884777Y-74381585D01*
X132884777Y-74381585D02*
X132992527Y-74381585D01*
X132992527Y-74381585D02*
X133073339Y-74354648D01*
X129195522Y-72873091D02*
X129222459Y-72792278D01*
X129222459Y-72792278D02*
X129303272Y-72711466D01*
X129303272Y-72711466D02*
X129411021Y-72657591D01*
X129411021Y-72657591D02*
X129518771Y-72657591D01*
X129518771Y-72657591D02*
X129599583Y-72684529D01*
X129599583Y-72684529D02*
X129734270Y-72765341D01*
X129734270Y-72765341D02*
X129815082Y-72846153D01*
X129815082Y-72846153D02*
X129895895Y-72980840D01*
X129895895Y-72980840D02*
X129922832Y-73061653D01*
X129922832Y-73061653D02*
X129922832Y-73169402D01*
X129922832Y-73169402D02*
X129868957Y-73277152D01*
X129868957Y-73277152D02*
X129815082Y-73331027D01*
X129815082Y-73331027D02*
X129707333Y-73384901D01*
X129707333Y-73384901D02*
X129653458Y-73384901D01*
X129653458Y-73384901D02*
X129464896Y-73196340D01*
X129464896Y-73196340D02*
X129572646Y-73088590D01*
X129464896Y-73681213D02*
X128899211Y-73115527D01*
X128899211Y-73115527D02*
X128683711Y-73331027D01*
X128683711Y-73331027D02*
X128656774Y-73411839D01*
X128656774Y-73411839D02*
X128656774Y-73465714D01*
X128656774Y-73465714D02*
X128683711Y-73546526D01*
X128683711Y-73546526D02*
X128764524Y-73627338D01*
X128764524Y-73627338D02*
X128845336Y-73654275D01*
X128845336Y-73654275D02*
X128899211Y-73654275D01*
X128899211Y-73654275D02*
X128980023Y-73627338D01*
X128980023Y-73627338D02*
X129195522Y-73411839D01*
X128414337Y-73708150D02*
X128360463Y-73708150D01*
X128360463Y-73708150D02*
X128279650Y-73735088D01*
X128279650Y-73735088D02*
X128144963Y-73869775D01*
X128144963Y-73869775D02*
X128118026Y-73950587D01*
X128118026Y-73950587D02*
X128118026Y-74004462D01*
X128118026Y-74004462D02*
X128144963Y-74085274D01*
X128144963Y-74085274D02*
X128198838Y-74139149D01*
X128198838Y-74139149D02*
X128306588Y-74193023D01*
X128306588Y-74193023D02*
X128953085Y-74193023D01*
X128953085Y-74193023D02*
X128602899Y-74543210D01*
X127875589Y-74246898D02*
X127821714Y-74246898D01*
X127821714Y-74246898D02*
X127740902Y-74273836D01*
X127740902Y-74273836D02*
X127606215Y-74408523D01*
X127606215Y-74408523D02*
X127579278Y-74489335D01*
X127579278Y-74489335D02*
X127579278Y-74543210D01*
X127579278Y-74543210D02*
X127606215Y-74624022D01*
X127606215Y-74624022D02*
X127660090Y-74677897D01*
X127660090Y-74677897D02*
X127767840Y-74731772D01*
X127767840Y-74731772D02*
X128414337Y-74731772D01*
X128414337Y-74731772D02*
X128064151Y-75081958D01*
X131493085Y-47261528D02*
X131520022Y-47180716D01*
X131520022Y-47180716D02*
X131600834Y-47099904D01*
X131600834Y-47099904D02*
X131708584Y-47046029D01*
X131708584Y-47046029D02*
X131816334Y-47046029D01*
X131816334Y-47046029D02*
X131897146Y-47072966D01*
X131897146Y-47072966D02*
X132031833Y-47153778D01*
X132031833Y-47153778D02*
X132112645Y-47234591D01*
X132112645Y-47234591D02*
X132193457Y-47369278D01*
X132193457Y-47369278D02*
X132220395Y-47450090D01*
X132220395Y-47450090D02*
X132220395Y-47557839D01*
X132220395Y-47557839D02*
X132166520Y-47665589D01*
X132166520Y-47665589D02*
X132112645Y-47719464D01*
X132112645Y-47719464D02*
X132004895Y-47773339D01*
X132004895Y-47773339D02*
X131951021Y-47773339D01*
X131951021Y-47773339D02*
X131762459Y-47584777D01*
X131762459Y-47584777D02*
X131870208Y-47477027D01*
X131762459Y-48069650D02*
X131196773Y-47503965D01*
X131196773Y-47503965D02*
X131439210Y-48392899D01*
X131439210Y-48392899D02*
X130873525Y-47827213D01*
X131169836Y-48662273D02*
X130604151Y-48096587D01*
X130604151Y-48096587D02*
X130469464Y-48231274D01*
X130469464Y-48231274D02*
X130415589Y-48339024D01*
X130415589Y-48339024D02*
X130415589Y-48446773D01*
X130415589Y-48446773D02*
X130442526Y-48527586D01*
X130442526Y-48527586D02*
X130523339Y-48662273D01*
X130523339Y-48662273D02*
X130604151Y-48743085D01*
X130604151Y-48743085D02*
X130738838Y-48823897D01*
X130738838Y-48823897D02*
X130819650Y-48850834D01*
X130819650Y-48850834D02*
X130927400Y-48850834D01*
X130927400Y-48850834D02*
X131035149Y-48796960D01*
X131035149Y-48796960D02*
X131169836Y-48662273D01*
X146975522Y-46719091D02*
X147002459Y-46638278D01*
X147002459Y-46638278D02*
X147083272Y-46557466D01*
X147083272Y-46557466D02*
X147191021Y-46503591D01*
X147191021Y-46503591D02*
X147298771Y-46503591D01*
X147298771Y-46503591D02*
X147379583Y-46530529D01*
X147379583Y-46530529D02*
X147514270Y-46611341D01*
X147514270Y-46611341D02*
X147595082Y-46692153D01*
X147595082Y-46692153D02*
X147675895Y-46826840D01*
X147675895Y-46826840D02*
X147702832Y-46907653D01*
X147702832Y-46907653D02*
X147702832Y-47015402D01*
X147702832Y-47015402D02*
X147648957Y-47123152D01*
X147648957Y-47123152D02*
X147595082Y-47177027D01*
X147595082Y-47177027D02*
X147487333Y-47230901D01*
X147487333Y-47230901D02*
X147433458Y-47230901D01*
X147433458Y-47230901D02*
X147244896Y-47042340D01*
X147244896Y-47042340D02*
X147352646Y-46934590D01*
X147244896Y-47527213D02*
X146679211Y-46961527D01*
X146679211Y-46961527D02*
X146463711Y-47177027D01*
X146463711Y-47177027D02*
X146436774Y-47257839D01*
X146436774Y-47257839D02*
X146436774Y-47311714D01*
X146436774Y-47311714D02*
X146463711Y-47392526D01*
X146463711Y-47392526D02*
X146544524Y-47473338D01*
X146544524Y-47473338D02*
X146625336Y-47500275D01*
X146625336Y-47500275D02*
X146679211Y-47500275D01*
X146679211Y-47500275D02*
X146760023Y-47473338D01*
X146760023Y-47473338D02*
X146975522Y-47257839D01*
X146382899Y-48389210D02*
X146706148Y-48065961D01*
X146544524Y-48227585D02*
X145978838Y-47661900D01*
X145978838Y-47661900D02*
X146113525Y-47688837D01*
X146113525Y-47688837D02*
X146221275Y-47688837D01*
X146221275Y-47688837D02*
X146302087Y-47661900D01*
X145520902Y-48496959D02*
X145898026Y-48874083D01*
X145440090Y-48146773D02*
X145978838Y-48416147D01*
X145978838Y-48416147D02*
X145628652Y-48766333D01*
X104064896Y-72695842D02*
X104442020Y-73450089D01*
X104442020Y-73450089D02*
X103687772Y-73072966D01*
X104064896Y-73773338D02*
X104011021Y-73881088D01*
X104011021Y-73881088D02*
X103876334Y-74015775D01*
X103876334Y-74015775D02*
X103795522Y-74042712D01*
X103795522Y-74042712D02*
X103741647Y-74042712D01*
X103741647Y-74042712D02*
X103660835Y-74015775D01*
X103660835Y-74015775D02*
X103606960Y-73961900D01*
X103606960Y-73961900D02*
X103580023Y-73881088D01*
X103580023Y-73881088D02*
X103580023Y-73827213D01*
X103580023Y-73827213D02*
X103606960Y-73746401D01*
X103606960Y-73746401D02*
X103687772Y-73611714D01*
X103687772Y-73611714D02*
X103714710Y-73530901D01*
X103714710Y-73530901D02*
X103714710Y-73477027D01*
X103714710Y-73477027D02*
X103687772Y-73396214D01*
X103687772Y-73396214D02*
X103633898Y-73342340D01*
X103633898Y-73342340D02*
X103553085Y-73315402D01*
X103553085Y-73315402D02*
X103499211Y-73315402D01*
X103499211Y-73315402D02*
X103418398Y-73342340D01*
X103418398Y-73342340D02*
X103283711Y-73477027D01*
X103283711Y-73477027D02*
X103229837Y-73584776D01*
X103149024Y-74204337D02*
X103418398Y-74473711D01*
X103041275Y-73719463D02*
X103149024Y-74204337D01*
X103149024Y-74204337D02*
X102664151Y-74096587D01*
X103041275Y-74796959D02*
X102987400Y-74904709D01*
X102987400Y-74904709D02*
X102852713Y-75039396D01*
X102852713Y-75039396D02*
X102771901Y-75066333D01*
X102771901Y-75066333D02*
X102718026Y-75066333D01*
X102718026Y-75066333D02*
X102637214Y-75039396D01*
X102637214Y-75039396D02*
X102583339Y-74985521D01*
X102583339Y-74985521D02*
X102556402Y-74904709D01*
X102556402Y-74904709D02*
X102556402Y-74850834D01*
X102556402Y-74850834D02*
X102583339Y-74770022D01*
X102583339Y-74770022D02*
X102664151Y-74635335D01*
X102664151Y-74635335D02*
X102691089Y-74554523D01*
X102691089Y-74554523D02*
X102691089Y-74500648D01*
X102691089Y-74500648D02*
X102664151Y-74419836D01*
X102664151Y-74419836D02*
X102610276Y-74365961D01*
X102610276Y-74365961D02*
X102529464Y-74339023D01*
X102529464Y-74339023D02*
X102475589Y-74339023D01*
X102475589Y-74339023D02*
X102394777Y-74365961D01*
X102394777Y-74365961D02*
X102260090Y-74500648D01*
X102260090Y-74500648D02*
X102206215Y-74608397D01*
X139355522Y-46619091D02*
X139382459Y-46538278D01*
X139382459Y-46538278D02*
X139463272Y-46457466D01*
X139463272Y-46457466D02*
X139571021Y-46403591D01*
X139571021Y-46403591D02*
X139678771Y-46403591D01*
X139678771Y-46403591D02*
X139759583Y-46430529D01*
X139759583Y-46430529D02*
X139894270Y-46511341D01*
X139894270Y-46511341D02*
X139975082Y-46592153D01*
X139975082Y-46592153D02*
X140055895Y-46726840D01*
X140055895Y-46726840D02*
X140082832Y-46807653D01*
X140082832Y-46807653D02*
X140082832Y-46915402D01*
X140082832Y-46915402D02*
X140028957Y-47023152D01*
X140028957Y-47023152D02*
X139975082Y-47077027D01*
X139975082Y-47077027D02*
X139867333Y-47130901D01*
X139867333Y-47130901D02*
X139813458Y-47130901D01*
X139813458Y-47130901D02*
X139624896Y-46942340D01*
X139624896Y-46942340D02*
X139732646Y-46834590D01*
X139624896Y-47427213D02*
X139059211Y-46861527D01*
X139059211Y-46861527D02*
X138843711Y-47077027D01*
X138843711Y-47077027D02*
X138816774Y-47157839D01*
X138816774Y-47157839D02*
X138816774Y-47211714D01*
X138816774Y-47211714D02*
X138843711Y-47292526D01*
X138843711Y-47292526D02*
X138924524Y-47373338D01*
X138924524Y-47373338D02*
X139005336Y-47400275D01*
X139005336Y-47400275D02*
X139059211Y-47400275D01*
X139059211Y-47400275D02*
X139140023Y-47373338D01*
X139140023Y-47373338D02*
X139355522Y-47157839D01*
X138762899Y-48289210D02*
X139086148Y-47965961D01*
X138924524Y-48127585D02*
X138358838Y-47561900D01*
X138358838Y-47561900D02*
X138493525Y-47588837D01*
X138493525Y-47588837D02*
X138601275Y-47588837D01*
X138601275Y-47588837D02*
X138682087Y-47561900D01*
X138035589Y-47992898D02*
X137981714Y-47992898D01*
X137981714Y-47992898D02*
X137900902Y-48019836D01*
X137900902Y-48019836D02*
X137766215Y-48154523D01*
X137766215Y-48154523D02*
X137739278Y-48235335D01*
X137739278Y-48235335D02*
X137739278Y-48289210D01*
X137739278Y-48289210D02*
X137766215Y-48370022D01*
X137766215Y-48370022D02*
X137820090Y-48423897D01*
X137820090Y-48423897D02*
X137927840Y-48477772D01*
X137927840Y-48477772D02*
X138574337Y-48477772D01*
X138574337Y-48477772D02*
X138224151Y-48827958D01*
X103516148Y-47188465D02*
X103543085Y-47107653D01*
X103543085Y-47107653D02*
X103623897Y-47026841D01*
X103623897Y-47026841D02*
X103731647Y-46972966D01*
X103731647Y-46972966D02*
X103839396Y-46972966D01*
X103839396Y-46972966D02*
X103920209Y-46999903D01*
X103920209Y-46999903D02*
X104054896Y-47080716D01*
X104054896Y-47080716D02*
X104135708Y-47161528D01*
X104135708Y-47161528D02*
X104216520Y-47296215D01*
X104216520Y-47296215D02*
X104243457Y-47377027D01*
X104243457Y-47377027D02*
X104243457Y-47484777D01*
X104243457Y-47484777D02*
X104189583Y-47592526D01*
X104189583Y-47592526D02*
X104135708Y-47646401D01*
X104135708Y-47646401D02*
X104027958Y-47700276D01*
X104027958Y-47700276D02*
X103974083Y-47700276D01*
X103974083Y-47700276D02*
X103785522Y-47511714D01*
X103785522Y-47511714D02*
X103893271Y-47403964D01*
X103785522Y-47996587D02*
X103219836Y-47430902D01*
X103219836Y-47430902D02*
X103004337Y-47646401D01*
X103004337Y-47646401D02*
X102977400Y-47727213D01*
X102977400Y-47727213D02*
X102977400Y-47781088D01*
X102977400Y-47781088D02*
X103004337Y-47861900D01*
X103004337Y-47861900D02*
X103085149Y-47942712D01*
X103085149Y-47942712D02*
X103165961Y-47969650D01*
X103165961Y-47969650D02*
X103219836Y-47969650D01*
X103219836Y-47969650D02*
X103300648Y-47942712D01*
X103300648Y-47942712D02*
X103516148Y-47727213D01*
X102923525Y-48858584D02*
X103246774Y-48535335D01*
X103085149Y-48696960D02*
X102519464Y-48131274D01*
X102519464Y-48131274D02*
X102654151Y-48158212D01*
X102654151Y-48158212D02*
X102761900Y-48158212D01*
X102761900Y-48158212D02*
X102842713Y-48131274D01*
X134275522Y-46765091D02*
X134302459Y-46684278D01*
X134302459Y-46684278D02*
X134383272Y-46603466D01*
X134383272Y-46603466D02*
X134491021Y-46549591D01*
X134491021Y-46549591D02*
X134598771Y-46549591D01*
X134598771Y-46549591D02*
X134679583Y-46576529D01*
X134679583Y-46576529D02*
X134814270Y-46657341D01*
X134814270Y-46657341D02*
X134895082Y-46738153D01*
X134895082Y-46738153D02*
X134975895Y-46872840D01*
X134975895Y-46872840D02*
X135002832Y-46953653D01*
X135002832Y-46953653D02*
X135002832Y-47061402D01*
X135002832Y-47061402D02*
X134948957Y-47169152D01*
X134948957Y-47169152D02*
X134895082Y-47223027D01*
X134895082Y-47223027D02*
X134787333Y-47276901D01*
X134787333Y-47276901D02*
X134733458Y-47276901D01*
X134733458Y-47276901D02*
X134544896Y-47088340D01*
X134544896Y-47088340D02*
X134652646Y-46980590D01*
X134544896Y-47573213D02*
X133979211Y-47007527D01*
X133979211Y-47007527D02*
X133763711Y-47223027D01*
X133763711Y-47223027D02*
X133736774Y-47303839D01*
X133736774Y-47303839D02*
X133736774Y-47357714D01*
X133736774Y-47357714D02*
X133763711Y-47438526D01*
X133763711Y-47438526D02*
X133844524Y-47519338D01*
X133844524Y-47519338D02*
X133925336Y-47546275D01*
X133925336Y-47546275D02*
X133979211Y-47546275D01*
X133979211Y-47546275D02*
X134060023Y-47519338D01*
X134060023Y-47519338D02*
X134275522Y-47303839D01*
X133682899Y-48435210D02*
X134006148Y-48111961D01*
X133844524Y-48273585D02*
X133278838Y-47707900D01*
X133278838Y-47707900D02*
X133413525Y-47734837D01*
X133413525Y-47734837D02*
X133521275Y-47734837D01*
X133521275Y-47734837D02*
X133602087Y-47707900D01*
X132767027Y-48219711D02*
X132713153Y-48273585D01*
X132713153Y-48273585D02*
X132686215Y-48354398D01*
X132686215Y-48354398D02*
X132686215Y-48408272D01*
X132686215Y-48408272D02*
X132713153Y-48489085D01*
X132713153Y-48489085D02*
X132793965Y-48623772D01*
X132793965Y-48623772D02*
X132928652Y-48758459D01*
X132928652Y-48758459D02*
X133063339Y-48839271D01*
X133063339Y-48839271D02*
X133144151Y-48866208D01*
X133144151Y-48866208D02*
X133198026Y-48866208D01*
X133198026Y-48866208D02*
X133278838Y-48839271D01*
X133278838Y-48839271D02*
X133332713Y-48785396D01*
X133332713Y-48785396D02*
X133359650Y-48704584D01*
X133359650Y-48704584D02*
X133359650Y-48650709D01*
X133359650Y-48650709D02*
X133332713Y-48569897D01*
X133332713Y-48569897D02*
X133251901Y-48435210D01*
X133251901Y-48435210D02*
X133117214Y-48300523D01*
X133117214Y-48300523D02*
X132982527Y-48219711D01*
X132982527Y-48219711D02*
X132901714Y-48192773D01*
X132901714Y-48192773D02*
X132847840Y-48192773D01*
X132847840Y-48192773D02*
X132767027Y-48219711D01*
X126938364Y-73613744D02*
X126857552Y-73155809D01*
X127261613Y-73290496D02*
X126695928Y-72724810D01*
X126695928Y-72724810D02*
X126480429Y-72940309D01*
X126480429Y-72940309D02*
X126453491Y-73021122D01*
X126453491Y-73021122D02*
X126453491Y-73074996D01*
X126453491Y-73074996D02*
X126480429Y-73155809D01*
X126480429Y-73155809D02*
X126561241Y-73236621D01*
X126561241Y-73236621D02*
X126642053Y-73263558D01*
X126642053Y-73263558D02*
X126695928Y-73263558D01*
X126695928Y-73263558D02*
X126776740Y-73236621D01*
X126776740Y-73236621D02*
X126992239Y-73021122D01*
X126130242Y-73290496D02*
X126588178Y-73748431D01*
X126588178Y-73748431D02*
X126615116Y-73829244D01*
X126615116Y-73829244D02*
X126615116Y-73883118D01*
X126615116Y-73883118D02*
X126588178Y-73963931D01*
X126588178Y-73963931D02*
X126480429Y-74071680D01*
X126480429Y-74071680D02*
X126399616Y-74098618D01*
X126399616Y-74098618D02*
X126345742Y-74098618D01*
X126345742Y-74098618D02*
X126264929Y-74071680D01*
X126264929Y-74071680D02*
X125806994Y-73613744D01*
X126103305Y-74448804D02*
X125537620Y-73883118D01*
X125537620Y-73883118D02*
X125780056Y-74772052D01*
X125780056Y-74772052D02*
X125214371Y-74206367D01*
X121585522Y-72873091D02*
X121612459Y-72792278D01*
X121612459Y-72792278D02*
X121693272Y-72711466D01*
X121693272Y-72711466D02*
X121801021Y-72657591D01*
X121801021Y-72657591D02*
X121908771Y-72657591D01*
X121908771Y-72657591D02*
X121989583Y-72684529D01*
X121989583Y-72684529D02*
X122124270Y-72765341D01*
X122124270Y-72765341D02*
X122205082Y-72846153D01*
X122205082Y-72846153D02*
X122285895Y-72980840D01*
X122285895Y-72980840D02*
X122312832Y-73061653D01*
X122312832Y-73061653D02*
X122312832Y-73169402D01*
X122312832Y-73169402D02*
X122258957Y-73277152D01*
X122258957Y-73277152D02*
X122205082Y-73331027D01*
X122205082Y-73331027D02*
X122097333Y-73384901D01*
X122097333Y-73384901D02*
X122043458Y-73384901D01*
X122043458Y-73384901D02*
X121854896Y-73196340D01*
X121854896Y-73196340D02*
X121962646Y-73088590D01*
X121854896Y-73681213D02*
X121289211Y-73115527D01*
X121289211Y-73115527D02*
X121073711Y-73331027D01*
X121073711Y-73331027D02*
X121046774Y-73411839D01*
X121046774Y-73411839D02*
X121046774Y-73465714D01*
X121046774Y-73465714D02*
X121073711Y-73546526D01*
X121073711Y-73546526D02*
X121154524Y-73627338D01*
X121154524Y-73627338D02*
X121235336Y-73654275D01*
X121235336Y-73654275D02*
X121289211Y-73654275D01*
X121289211Y-73654275D02*
X121370023Y-73627338D01*
X121370023Y-73627338D02*
X121585522Y-73411839D01*
X120804337Y-73708150D02*
X120750463Y-73708150D01*
X120750463Y-73708150D02*
X120669650Y-73735088D01*
X120669650Y-73735088D02*
X120534963Y-73869775D01*
X120534963Y-73869775D02*
X120508026Y-73950587D01*
X120508026Y-73950587D02*
X120508026Y-74004462D01*
X120508026Y-74004462D02*
X120534963Y-74085274D01*
X120534963Y-74085274D02*
X120588838Y-74139149D01*
X120588838Y-74139149D02*
X120696588Y-74193023D01*
X120696588Y-74193023D02*
X121343085Y-74193023D01*
X121343085Y-74193023D02*
X120992899Y-74543210D01*
X120238652Y-74166086D02*
X119861528Y-74543210D01*
X119861528Y-74543210D02*
X120669650Y-74866459D01*
X97744463Y-80500541D02*
X98458748Y-80500541D01*
X98458748Y-80500541D02*
X98601605Y-80452922D01*
X98601605Y-80452922D02*
X98696844Y-80357684D01*
X98696844Y-80357684D02*
X98744463Y-80214827D01*
X98744463Y-80214827D02*
X98744463Y-80119589D01*
X98744463Y-81500541D02*
X98744463Y-80929113D01*
X98744463Y-81214827D02*
X97744463Y-81214827D01*
X97744463Y-81214827D02*
X97887320Y-81119589D01*
X97887320Y-81119589D02*
X97982558Y-81024351D01*
X97982558Y-81024351D02*
X98030177Y-80929113D01*
X97744463Y-82119589D02*
X97744463Y-82214827D01*
X97744463Y-82214827D02*
X97792082Y-82310065D01*
X97792082Y-82310065D02*
X97839701Y-82357684D01*
X97839701Y-82357684D02*
X97934939Y-82405303D01*
X97934939Y-82405303D02*
X98125415Y-82452922D01*
X98125415Y-82452922D02*
X98363510Y-82452922D01*
X98363510Y-82452922D02*
X98553986Y-82405303D01*
X98553986Y-82405303D02*
X98649224Y-82357684D01*
X98649224Y-82357684D02*
X98696844Y-82310065D01*
X98696844Y-82310065D02*
X98744463Y-82214827D01*
X98744463Y-82214827D02*
X98744463Y-82119589D01*
X98744463Y-82119589D02*
X98696844Y-82024351D01*
X98696844Y-82024351D02*
X98649224Y-81976732D01*
X98649224Y-81976732D02*
X98553986Y-81929113D01*
X98553986Y-81929113D02*
X98363510Y-81881494D01*
X98363510Y-81881494D02*
X98125415Y-81881494D01*
X98125415Y-81881494D02*
X97934939Y-81929113D01*
X97934939Y-81929113D02*
X97839701Y-81976732D01*
X97839701Y-81976732D02*
X97792082Y-82024351D01*
X97792082Y-82024351D02*
X97744463Y-82119589D01*
%TO.C,G\u002A\u002A\u002A*%
G36*
X170317456Y-56779616D02*
G01*
X170317456Y-56878372D01*
X170850737Y-56878372D01*
X171384019Y-56878372D01*
X171384019Y-56779616D01*
X171384019Y-56680861D01*
X171571655Y-56680861D01*
X171759291Y-56680861D01*
X171759291Y-57105511D01*
X171759291Y-57530161D01*
X171571655Y-57530161D01*
X171384019Y-57530161D01*
X171384019Y-57441280D01*
X171384019Y-57352400D01*
X170850737Y-57352400D01*
X170317456Y-57352400D01*
X170317456Y-57441280D01*
X170317456Y-57530161D01*
X170129820Y-57530161D01*
X169942184Y-57530161D01*
X169942184Y-57105511D01*
X169942184Y-56680861D01*
X170129820Y-56680861D01*
X170317456Y-56680861D01*
X170317456Y-56779616D01*
G37*
G36*
X170317456Y-55811809D02*
G01*
X170317456Y-55910565D01*
X170850737Y-55910565D01*
X171384019Y-55910565D01*
X171384019Y-55811809D01*
X171384019Y-55713053D01*
X171571655Y-55713053D01*
X171759291Y-55713053D01*
X171759291Y-56137703D01*
X171759291Y-56562354D01*
X171571655Y-56562354D01*
X171384019Y-56562354D01*
X171384019Y-56473473D01*
X171384019Y-56384593D01*
X170850737Y-56384593D01*
X170317456Y-56384593D01*
X170317456Y-56473473D01*
X170317456Y-56562354D01*
X170129820Y-56562354D01*
X169942184Y-56562354D01*
X169942184Y-56137703D01*
X169942184Y-55713053D01*
X170129820Y-55713053D01*
X170317456Y-55713053D01*
X170317456Y-55811809D01*
G37*
G36*
X171759291Y-44277128D02*
G01*
X171759291Y-45047424D01*
X171423521Y-45047424D01*
X171087751Y-45047424D01*
X171087751Y-44899774D01*
X171087751Y-44752125D01*
X171235700Y-44707200D01*
X171383649Y-44662276D01*
X171383834Y-44588209D01*
X171384019Y-44514142D01*
X170850737Y-44514142D01*
X170317456Y-44514142D01*
X170317456Y-44612898D01*
X170317456Y-44711654D01*
X170129820Y-44711654D01*
X169942184Y-44711654D01*
X169942184Y-44287004D01*
X169942184Y-43862354D01*
X170129820Y-43862354D01*
X170317456Y-43862354D01*
X170317456Y-43951234D01*
X170317456Y-44040114D01*
X170851929Y-44040114D01*
X171386403Y-44040114D01*
X171380273Y-43966591D01*
X171377717Y-43940760D01*
X171369484Y-43911595D01*
X171348747Y-43891528D01*
X171307036Y-43873825D01*
X171235885Y-43851749D01*
X171097627Y-43810429D01*
X171091858Y-43658631D01*
X171086090Y-43506833D01*
X171422690Y-43506833D01*
X171759291Y-43506833D01*
X171759291Y-44277128D01*
G37*
G36*
X170317456Y-40800923D02*
G01*
X170317456Y-40879927D01*
X170732230Y-40879927D01*
X171147005Y-40879927D01*
X171147005Y-41166319D01*
X171147005Y-41452711D01*
X170959369Y-41452711D01*
X170771733Y-41452711D01*
X170771733Y-41391607D01*
X170771733Y-41330503D01*
X170572447Y-41337291D01*
X170485670Y-41340906D01*
X170422615Y-41346259D01*
X170382332Y-41355042D01*
X170356159Y-41369207D01*
X170335433Y-41390708D01*
X170333929Y-41392589D01*
X170302428Y-41455135D01*
X170305089Y-41513852D01*
X170341602Y-41560223D01*
X170363784Y-41571240D01*
X170398144Y-41579399D01*
X170450096Y-41585056D01*
X170525115Y-41588605D01*
X170628675Y-41590444D01*
X170766252Y-41590969D01*
X171147005Y-41590969D01*
X171147005Y-41887237D01*
X171147005Y-42183504D01*
X170959369Y-42183504D01*
X170771733Y-42183504D01*
X170771733Y-42114375D01*
X170771733Y-42045246D01*
X170466875Y-42045246D01*
X170414852Y-42044948D01*
X170308002Y-42042453D01*
X170215360Y-42037831D01*
X170145354Y-42031576D01*
X170106416Y-42024179D01*
X170069493Y-42006903D01*
X169987781Y-41942453D01*
X169930563Y-41857610D01*
X169904716Y-41762966D01*
X169909244Y-41647275D01*
X169948896Y-41528326D01*
X170022568Y-41411467D01*
X170083761Y-41334204D01*
X170012972Y-41334204D01*
X169942184Y-41334204D01*
X169942184Y-41028061D01*
X169942184Y-40721918D01*
X170129820Y-40721918D01*
X170317456Y-40721918D01*
X170317456Y-40800923D01*
G37*
G36*
X170317456Y-37798745D02*
G01*
X170317456Y-37877750D01*
X170638412Y-37877781D01*
X170647718Y-37877785D01*
X170788434Y-37879264D01*
X170895945Y-37884665D01*
X170976153Y-37895831D01*
X171034966Y-37914605D01*
X171078285Y-37942830D01*
X171112018Y-37982349D01*
X171142067Y-38035007D01*
X171148245Y-38047795D01*
X171181894Y-38165353D01*
X171177824Y-38286867D01*
X171136759Y-38408047D01*
X171059423Y-38524601D01*
X171005235Y-38588792D01*
X171382263Y-38588792D01*
X171759291Y-38588792D01*
X171759291Y-38885060D01*
X171759291Y-39181327D01*
X171571655Y-39181327D01*
X171384019Y-39181327D01*
X171384019Y-39112198D01*
X171384019Y-39043069D01*
X170850737Y-39043069D01*
X170317456Y-39043069D01*
X170317456Y-39112198D01*
X170317456Y-39181327D01*
X170129820Y-39181327D01*
X169942184Y-39181327D01*
X169942184Y-38815931D01*
X169942184Y-38450534D01*
X170129820Y-38450534D01*
X170317456Y-38450534D01*
X170317456Y-38521960D01*
X170317456Y-38593387D01*
X170517355Y-38585357D01*
X170600483Y-38581409D01*
X170665305Y-38575682D01*
X170706818Y-38566759D01*
X170733635Y-38552682D01*
X170754369Y-38531494D01*
X170755525Y-38530053D01*
X170786842Y-38467860D01*
X170784078Y-38409160D01*
X170747587Y-38362774D01*
X170725404Y-38351757D01*
X170691044Y-38343597D01*
X170639092Y-38337940D01*
X170564073Y-38334391D01*
X170460513Y-38332552D01*
X170322937Y-38332027D01*
X169942184Y-38332027D01*
X169942184Y-38025884D01*
X169942184Y-37719741D01*
X170129820Y-37719741D01*
X170317456Y-37719741D01*
X170317456Y-37798745D01*
G37*
G36*
X170635735Y-42293493D02*
G01*
X170711759Y-42299186D01*
X170766958Y-42310617D01*
X170811235Y-42329160D01*
X170921762Y-42399583D01*
X171029736Y-42503926D01*
X171111457Y-42632945D01*
X171135712Y-42683849D01*
X171157796Y-42740217D01*
X171170067Y-42794749D01*
X171175314Y-42861214D01*
X171176325Y-42953385D01*
X171176311Y-42959359D01*
X171174211Y-43055317D01*
X171167249Y-43124750D01*
X171153433Y-43179899D01*
X171130767Y-43233005D01*
X171078964Y-43322903D01*
X170977206Y-43443563D01*
X170855754Y-43532239D01*
X170717697Y-43586890D01*
X170566128Y-43605478D01*
X170503859Y-43603474D01*
X170490536Y-43603045D01*
X170412532Y-43595999D01*
X170356276Y-43585974D01*
X170336762Y-43580091D01*
X170212116Y-43520240D01*
X170099569Y-43428521D01*
X170005654Y-43311330D01*
X169936899Y-43175068D01*
X169918614Y-43112931D01*
X169908266Y-43029275D01*
X169908570Y-42921121D01*
X169909256Y-42913449D01*
X170305465Y-42913449D01*
X170306055Y-42992999D01*
X170343559Y-43062566D01*
X170416486Y-43117824D01*
X170416866Y-43118021D01*
X170503859Y-43144992D01*
X170593267Y-43142941D01*
X170675458Y-43115120D01*
X170740802Y-43064783D01*
X170779666Y-42995181D01*
X170784416Y-42926864D01*
X170758265Y-42854512D01*
X170705169Y-42793822D01*
X170631741Y-42752071D01*
X170544594Y-42736537D01*
X170519840Y-42738206D01*
X170442258Y-42760879D01*
X170372536Y-42803285D01*
X170326461Y-42856727D01*
X170305465Y-42913449D01*
X169909256Y-42913449D01*
X169916303Y-42834633D01*
X169956729Y-42676458D01*
X170030430Y-42539568D01*
X170137480Y-42423841D01*
X170277953Y-42329160D01*
X170316205Y-42312550D01*
X170369466Y-42300292D01*
X170442294Y-42293946D01*
X170544594Y-42292136D01*
X170635735Y-42293493D01*
G37*
G36*
X170455714Y-39528828D02*
G01*
X170455714Y-39735942D01*
X170374039Y-39813637D01*
X170333996Y-39853304D01*
X170307465Y-39889336D01*
X170299425Y-39925401D01*
X170303689Y-39975762D01*
X170320032Y-40039484D01*
X170365690Y-40103783D01*
X170442090Y-40147633D01*
X170530047Y-40164538D01*
X170618468Y-40155505D01*
X170696390Y-40121656D01*
X170752852Y-40064116D01*
X170775941Y-40020049D01*
X170791175Y-39947889D01*
X170770408Y-39880659D01*
X170712479Y-39811097D01*
X170633474Y-39735942D01*
X170633474Y-39547515D01*
X170633474Y-39359088D01*
X170890240Y-39359088D01*
X171147005Y-39359088D01*
X171147005Y-39536848D01*
X171146622Y-39606937D01*
X171144159Y-39665321D01*
X171137932Y-39697715D01*
X171126270Y-39711638D01*
X171107502Y-39714609D01*
X171084543Y-39718312D01*
X171068000Y-39734360D01*
X171068511Y-39739029D01*
X171085989Y-39754111D01*
X171088849Y-39754409D01*
X171113954Y-39776370D01*
X171140042Y-39825715D01*
X171163343Y-39891974D01*
X171180088Y-39964674D01*
X171186507Y-40033345D01*
X171183848Y-40097925D01*
X171157821Y-40224916D01*
X171100752Y-40338665D01*
X171008608Y-40448584D01*
X170992444Y-40464400D01*
X170899120Y-40539664D01*
X170800062Y-40588633D01*
X170684957Y-40615175D01*
X170543492Y-40623162D01*
X170500986Y-40622063D01*
X170342450Y-40596655D01*
X170202696Y-40539416D01*
X170085180Y-40452732D01*
X169993359Y-40338985D01*
X169930692Y-40200560D01*
X169919761Y-40153606D01*
X169908778Y-40072940D01*
X169904002Y-39989772D01*
X169906173Y-39918579D01*
X169935010Y-39759090D01*
X169995794Y-39620196D01*
X170086744Y-39504429D01*
X170206079Y-39414324D01*
X170352020Y-39352414D01*
X170455714Y-39321714D01*
X170455714Y-39528828D01*
G37*
G36*
X170317456Y-47555822D02*
G01*
X170317456Y-47634826D01*
X170544594Y-47634826D01*
X170771733Y-47634826D01*
X170771733Y-47555822D01*
X170771733Y-47476817D01*
X170959369Y-47476817D01*
X171147005Y-47476817D01*
X171147005Y-47773084D01*
X171147005Y-48069352D01*
X171075212Y-48069352D01*
X171003419Y-48069352D01*
X171057942Y-48112240D01*
X171104911Y-48160224D01*
X171155273Y-48253456D01*
X171181240Y-48365630D01*
X171181209Y-48488354D01*
X171153578Y-48613233D01*
X171115131Y-48693762D01*
X171037352Y-48792832D01*
X170937140Y-48876581D01*
X170824140Y-48935574D01*
X170801030Y-48943429D01*
X170690305Y-48967233D01*
X170563944Y-48978032D01*
X170545806Y-48977598D01*
X170439295Y-48975050D01*
X170333705Y-48957512D01*
X170281749Y-48939263D01*
X170171492Y-48877671D01*
X170069525Y-48792694D01*
X169986153Y-48693746D01*
X169931679Y-48590240D01*
X169930831Y-48587839D01*
X169904827Y-48462286D01*
X169911497Y-48336802D01*
X169922485Y-48302939D01*
X170299514Y-48302939D01*
X170323234Y-48385601D01*
X170386016Y-48464375D01*
X170425658Y-48494055D01*
X170474381Y-48509666D01*
X170545806Y-48513753D01*
X170569413Y-48513530D01*
X170628690Y-48507796D01*
X170671016Y-48489589D01*
X170713564Y-48452655D01*
X170730657Y-48433919D01*
X170775032Y-48354105D01*
X170784913Y-48269962D01*
X170762135Y-48189478D01*
X170708535Y-48120643D01*
X170625949Y-48071446D01*
X170583859Y-48059778D01*
X170493058Y-48061769D01*
X170409614Y-48098238D01*
X170342789Y-48166091D01*
X170315024Y-48217530D01*
X170299514Y-48302939D01*
X169922485Y-48302939D01*
X169949141Y-48220794D01*
X170016056Y-48123668D01*
X170068081Y-48069352D01*
X170005132Y-48069352D01*
X169942184Y-48069352D01*
X169942184Y-47773084D01*
X169942184Y-47476817D01*
X170129820Y-47476817D01*
X170317456Y-47476817D01*
X170317456Y-47555822D01*
G37*
G36*
X171007203Y-53730531D02*
G01*
X171186804Y-53772805D01*
X171348816Y-53847616D01*
X171489447Y-53953917D01*
X171532960Y-53996601D01*
X171592272Y-54063024D01*
X171640405Y-54131708D01*
X171678487Y-54207300D01*
X171707643Y-54294448D01*
X171728999Y-54397800D01*
X171743681Y-54522004D01*
X171752816Y-54671707D01*
X171757530Y-54851557D01*
X171758948Y-55066203D01*
X171759291Y-55614298D01*
X171571655Y-55614298D01*
X171389587Y-55614298D01*
X171384019Y-55614298D01*
X171384019Y-55515542D01*
X171384019Y-55416786D01*
X170850737Y-55416786D01*
X170317456Y-55416786D01*
X170317456Y-55515542D01*
X170317456Y-55614298D01*
X170129820Y-55614298D01*
X169942184Y-55614298D01*
X169942526Y-55066203D01*
X169943094Y-54926959D01*
X169943163Y-54923007D01*
X170311888Y-54923007D01*
X170850737Y-54923007D01*
X171389587Y-54923007D01*
X171378982Y-54753026D01*
X171358622Y-54601153D01*
X171316061Y-54475576D01*
X171249810Y-54376880D01*
X171158127Y-54301503D01*
X171143457Y-54292513D01*
X171100554Y-54268693D01*
X171060389Y-54253749D01*
X171012404Y-54245623D01*
X170946040Y-54242256D01*
X170850737Y-54241591D01*
X170819094Y-54241628D01*
X170733394Y-54242874D01*
X170673529Y-54247426D01*
X170628939Y-54257343D01*
X170589065Y-54274683D01*
X170543348Y-54301503D01*
X170503429Y-54328603D01*
X170441231Y-54389145D01*
X170389770Y-54472230D01*
X170375127Y-54502256D01*
X170348261Y-54573158D01*
X170331996Y-54651407D01*
X170322492Y-54753026D01*
X170311888Y-54923007D01*
X169943163Y-54923007D01*
X169946452Y-54734730D01*
X169953814Y-54574374D01*
X169966304Y-54441243D01*
X169985051Y-54330690D01*
X170011178Y-54238067D01*
X170045814Y-54158725D01*
X170090083Y-54088019D01*
X170145112Y-54021298D01*
X170212027Y-53953917D01*
X170249604Y-53920209D01*
X170377043Y-53831728D01*
X170521016Y-53770866D01*
X170690468Y-53733502D01*
X170813801Y-53721838D01*
X171007203Y-53730531D01*
G37*
G36*
X170573712Y-49058508D02*
G01*
X170583202Y-49077555D01*
X170589383Y-49122625D01*
X170592689Y-49198194D01*
X170593550Y-49308738D01*
X170593129Y-49560565D01*
X170516297Y-49614903D01*
X170483228Y-49641146D01*
X170407961Y-49734181D01*
X170362442Y-49852507D01*
X170347131Y-49995091D01*
X170347527Y-50032131D01*
X170353491Y-50105792D01*
X170369717Y-50163951D01*
X170400149Y-50223615D01*
X170469557Y-50315712D01*
X170573406Y-50395292D01*
X170700618Y-50443216D01*
X170850737Y-50459243D01*
X170856262Y-50459224D01*
X171004956Y-50442388D01*
X171130034Y-50394840D01*
X171229991Y-50317729D01*
X171303322Y-50212204D01*
X171348521Y-50079412D01*
X171352319Y-50059100D01*
X171357070Y-49936487D01*
X171333497Y-49818223D01*
X171285120Y-49712433D01*
X171215463Y-49627240D01*
X171128047Y-49570769D01*
X171068000Y-49545897D01*
X171068000Y-49311279D01*
X171068000Y-49076661D01*
X171413645Y-49076661D01*
X171759291Y-49076661D01*
X171759291Y-49293924D01*
X171759291Y-49511187D01*
X171691497Y-49511187D01*
X171623704Y-49511187D01*
X171689720Y-49609286D01*
X171714348Y-49650286D01*
X171752870Y-49732265D01*
X171777265Y-49807770D01*
X171798602Y-49988937D01*
X171784805Y-50173728D01*
X171736768Y-50349591D01*
X171657179Y-50512171D01*
X171548725Y-50657110D01*
X171414095Y-50780054D01*
X171255975Y-50876646D01*
X171077055Y-50942531D01*
X171054753Y-50948037D01*
X170873561Y-50971201D01*
X170695225Y-50957881D01*
X170524166Y-50910715D01*
X170364801Y-50832341D01*
X170221551Y-50725396D01*
X170098835Y-50592518D01*
X170001071Y-50436345D01*
X169932679Y-50259513D01*
X169932625Y-50259321D01*
X169913338Y-50149816D01*
X169907354Y-50018248D01*
X169913967Y-49879457D01*
X169932473Y-49748284D01*
X169962164Y-49639570D01*
X170001567Y-49550965D01*
X170073043Y-49428838D01*
X170156004Y-49319007D01*
X170241277Y-49234775D01*
X170263639Y-49217790D01*
X170327530Y-49175219D01*
X170400476Y-49132219D01*
X170472041Y-49094442D01*
X170531789Y-49067539D01*
X170569283Y-49057160D01*
X170573712Y-49058508D01*
G37*
G36*
X170578994Y-45867567D02*
G01*
X170668374Y-45870237D01*
X170734595Y-45878156D01*
X170790952Y-45893637D01*
X170850737Y-45918992D01*
X170883391Y-45935614D01*
X170988015Y-46005481D01*
X171077220Y-46089570D01*
X171139261Y-46177363D01*
X171164659Y-46250352D01*
X171179925Y-46349267D01*
X171181530Y-46452830D01*
X171168121Y-46543834D01*
X171162848Y-46560642D01*
X171128963Y-46633060D01*
X171084874Y-46696905D01*
X171024406Y-46765775D01*
X171085705Y-46765775D01*
X171147005Y-46765775D01*
X171147005Y-47062042D01*
X171147005Y-47358310D01*
X170969244Y-47358310D01*
X170791484Y-47358310D01*
X170791484Y-47289181D01*
X170791484Y-47220052D01*
X170538675Y-47220052D01*
X170287829Y-47220052D01*
X169784174Y-47220052D01*
X169784174Y-47289181D01*
X169784174Y-47358310D01*
X169596538Y-47358310D01*
X169408902Y-47358310D01*
X169408902Y-46983038D01*
X169408902Y-46607766D01*
X169596538Y-46607766D01*
X169784174Y-46607766D01*
X169784174Y-46686770D01*
X169784174Y-46765775D01*
X169912150Y-46765775D01*
X170040125Y-46765775D01*
X169976341Y-46675284D01*
X169959040Y-46650184D01*
X169933678Y-46606422D01*
X169923816Y-46575669D01*
X170301103Y-46575669D01*
X170323507Y-46656354D01*
X170373702Y-46723182D01*
X170446991Y-46768699D01*
X170538675Y-46785452D01*
X170555766Y-46784804D01*
X170642285Y-46760820D01*
X170711253Y-46707093D01*
X170753496Y-46630251D01*
X170767155Y-46546481D01*
X170748945Y-46463951D01*
X170693236Y-46387972D01*
X170654623Y-46355076D01*
X170607615Y-46336038D01*
X170540633Y-46331249D01*
X170448552Y-46342730D01*
X170378529Y-46381055D01*
X170327218Y-46449974D01*
X170311188Y-46488579D01*
X170301103Y-46575669D01*
X169923816Y-46575669D01*
X169919710Y-46562866D01*
X169913787Y-46506287D01*
X169912557Y-46423456D01*
X169912558Y-46419881D01*
X169914504Y-46334147D01*
X169922150Y-46273329D01*
X169938481Y-46223414D01*
X169966485Y-46170384D01*
X170038446Y-46071505D01*
X170133312Y-45988902D01*
X170258202Y-45918256D01*
X170275001Y-45910500D01*
X170332066Y-45888101D01*
X170388840Y-45874973D01*
X170458561Y-45868847D01*
X170554470Y-45867454D01*
X170578994Y-45867567D01*
G37*
G36*
X170317456Y-51840875D02*
G01*
X170317819Y-51861865D01*
X170321874Y-51888713D01*
X170334249Y-51914288D01*
X170359567Y-51943627D01*
X170402451Y-51981772D01*
X170467524Y-52033761D01*
X170559407Y-52104633D01*
X170602300Y-52137458D01*
X170686131Y-52201054D01*
X170758463Y-52255203D01*
X170812712Y-52294999D01*
X170842297Y-52315534D01*
X170846862Y-52318163D01*
X170865170Y-52323679D01*
X170888373Y-52319510D01*
X170921646Y-52302637D01*
X170970163Y-52270044D01*
X171039098Y-52218711D01*
X171133627Y-52145621D01*
X171199974Y-52093773D01*
X171275021Y-52033901D01*
X171326299Y-51989960D01*
X171358324Y-51957094D01*
X171375609Y-51930451D01*
X171382669Y-51905176D01*
X171384019Y-51876416D01*
X171384019Y-51802322D01*
X171571655Y-51802322D01*
X171759291Y-51802322D01*
X171759291Y-52197346D01*
X171759291Y-52592369D01*
X171571655Y-52592369D01*
X171384019Y-52592369D01*
X171384019Y-52521980D01*
X171384019Y-52451591D01*
X171226009Y-52573826D01*
X171179375Y-52610154D01*
X171121910Y-52655761D01*
X171082580Y-52688060D01*
X171068000Y-52701696D01*
X171074291Y-52708322D01*
X171105340Y-52735226D01*
X171156466Y-52777524D01*
X171221072Y-52829702D01*
X171374143Y-52952073D01*
X171380273Y-52880852D01*
X171386403Y-52809632D01*
X171572847Y-52809632D01*
X171759291Y-52809632D01*
X171759291Y-53214531D01*
X171759291Y-53619430D01*
X171571655Y-53619430D01*
X171384019Y-53619430D01*
X171384019Y-53544216D01*
X171383448Y-53523184D01*
X171378547Y-53496937D01*
X171364888Y-53470511D01*
X171338080Y-53438974D01*
X171293731Y-53397394D01*
X171227448Y-53340839D01*
X171134842Y-53264377D01*
X171107066Y-53241600D01*
X171020767Y-53171719D01*
X170958237Y-53123472D01*
X170914477Y-53093748D01*
X170884487Y-53079440D01*
X170863270Y-53077438D01*
X170845825Y-53084632D01*
X170834516Y-53092272D01*
X170791984Y-53123038D01*
X170728000Y-53170607D01*
X170649075Y-53230118D01*
X170561720Y-53296711D01*
X170495132Y-53347870D01*
X170421654Y-53405523D01*
X170371862Y-53447702D01*
X170341152Y-53479401D01*
X170324917Y-53505612D01*
X170318554Y-53531329D01*
X170317456Y-53561544D01*
X170317456Y-53639181D01*
X170129820Y-53639181D01*
X169942184Y-53639181D01*
X169942184Y-53234282D01*
X169942184Y-52829383D01*
X170128627Y-52829383D01*
X170315071Y-52829383D01*
X170321201Y-52898784D01*
X170327331Y-52968186D01*
X170522078Y-52837783D01*
X170716826Y-52707380D01*
X170527457Y-52580746D01*
X170456872Y-52534033D01*
X170392645Y-52492554D01*
X170347308Y-52464452D01*
X170327772Y-52454111D01*
X170326429Y-52454698D01*
X170320050Y-52477521D01*
X170317456Y-52523240D01*
X170317456Y-52592369D01*
X170129820Y-52592369D01*
X169942184Y-52592369D01*
X169942184Y-52177595D01*
X169942184Y-51762820D01*
X170129820Y-51762820D01*
X170317456Y-51762820D01*
X170317456Y-51840875D01*
G37*
D12*
%TO.C,J12*%
X152937731Y-123038728D02*
X152937731Y-125698728D01*
X149827731Y-123038728D02*
X152937731Y-123038728D01*
X144747731Y-123038728D02*
X148307731Y-123038728D01*
X139667731Y-123038728D02*
X143227731Y-123038728D01*
X134587731Y-123038728D02*
X138147731Y-123038728D01*
X133067731Y-123038728D02*
X133067731Y-121518728D01*
X132497731Y-123038728D02*
X133067731Y-123038728D01*
X132497731Y-123038728D02*
X132497731Y-125698728D01*
X152367731Y-125698728D02*
X152937731Y-125698728D01*
X147287731Y-125698728D02*
X150847731Y-125698728D01*
X142207731Y-125698728D02*
X145767731Y-125698728D01*
X137127731Y-125698728D02*
X140687731Y-125698728D01*
X132497731Y-125698728D02*
X135607731Y-125698728D01*
%TO.C,G\u002A\u002A\u002A*%
G36*
X119494289Y-34599724D02*
G01*
X119494289Y-34787360D01*
X119405408Y-34787360D01*
X119316528Y-34787360D01*
X119316528Y-35320642D01*
X119316528Y-35853923D01*
X119405408Y-35853923D01*
X119494289Y-35853923D01*
X119494289Y-36041559D01*
X119494289Y-36229195D01*
X119069639Y-36229195D01*
X118644989Y-36229195D01*
X118644989Y-36041559D01*
X118644989Y-35853923D01*
X118743744Y-35853923D01*
X118842500Y-35853923D01*
X118842500Y-35320642D01*
X118842500Y-34787360D01*
X118743744Y-34787360D01*
X118644989Y-34787360D01*
X118644989Y-34599724D01*
X118644989Y-34412088D01*
X119069639Y-34412088D01*
X119494289Y-34412088D01*
X119494289Y-34599724D01*
G37*
G36*
X118526482Y-34599724D02*
G01*
X118526482Y-34787360D01*
X118437601Y-34787360D01*
X118348721Y-34787360D01*
X118348721Y-35320642D01*
X118348721Y-35853923D01*
X118437601Y-35853923D01*
X118526482Y-35853923D01*
X118526482Y-36041559D01*
X118526482Y-36229195D01*
X118101831Y-36229195D01*
X117677181Y-36229195D01*
X117677181Y-36041559D01*
X117677181Y-35853923D01*
X117775937Y-35853923D01*
X117874693Y-35853923D01*
X117874693Y-35320642D01*
X117874693Y-34787360D01*
X117775937Y-34787360D01*
X117677181Y-34787360D01*
X117677181Y-34599724D01*
X117677181Y-34412088D01*
X118101831Y-34412088D01*
X118526482Y-34412088D01*
X118526482Y-34599724D01*
G37*
G36*
X107011552Y-34747858D02*
G01*
X107011552Y-35083628D01*
X106863902Y-35083628D01*
X106716253Y-35083628D01*
X106671328Y-34935679D01*
X106626404Y-34787730D01*
X106552337Y-34787545D01*
X106478270Y-34787360D01*
X106478270Y-35320642D01*
X106478270Y-35853923D01*
X106577026Y-35853923D01*
X106675782Y-35853923D01*
X106675782Y-36041559D01*
X106675782Y-36229195D01*
X106251132Y-36229195D01*
X105826482Y-36229195D01*
X105826482Y-36041559D01*
X105826482Y-35853923D01*
X105915362Y-35853923D01*
X106004242Y-35853923D01*
X106004242Y-35319450D01*
X106004242Y-34784976D01*
X105930719Y-34791106D01*
X105904888Y-34793662D01*
X105875723Y-34801895D01*
X105855656Y-34822632D01*
X105837953Y-34864343D01*
X105815877Y-34935494D01*
X105774557Y-35073752D01*
X105622759Y-35079521D01*
X105470961Y-35085289D01*
X105470961Y-34748689D01*
X105470961Y-34412088D01*
X106241256Y-34412088D01*
X107011552Y-34412088D01*
X107011552Y-34747858D01*
G37*
G36*
X103416839Y-35212010D02*
G01*
X103416839Y-35399646D01*
X103355735Y-35399646D01*
X103294631Y-35399646D01*
X103301419Y-35598932D01*
X103305034Y-35685709D01*
X103310387Y-35748764D01*
X103319170Y-35789047D01*
X103333335Y-35815220D01*
X103354836Y-35835946D01*
X103356717Y-35837450D01*
X103419263Y-35868951D01*
X103477980Y-35866290D01*
X103524351Y-35829777D01*
X103535368Y-35807595D01*
X103543527Y-35773235D01*
X103549184Y-35721283D01*
X103552733Y-35646264D01*
X103554572Y-35542704D01*
X103555097Y-35405127D01*
X103555097Y-35024374D01*
X103851365Y-35024374D01*
X104147632Y-35024374D01*
X104147632Y-35212010D01*
X104147632Y-35399646D01*
X104078503Y-35399646D01*
X104009374Y-35399646D01*
X104009374Y-35704504D01*
X104009076Y-35756527D01*
X104006581Y-35863377D01*
X104001959Y-35956019D01*
X103995704Y-36026025D01*
X103988307Y-36064963D01*
X103971031Y-36101886D01*
X103906581Y-36183598D01*
X103821738Y-36240816D01*
X103727094Y-36266663D01*
X103611403Y-36262135D01*
X103492454Y-36222483D01*
X103375595Y-36148811D01*
X103298332Y-36087618D01*
X103298332Y-36158407D01*
X103298332Y-36229195D01*
X102992189Y-36229195D01*
X102686046Y-36229195D01*
X102686046Y-36041559D01*
X102686046Y-35853923D01*
X102765051Y-35853923D01*
X102844055Y-35853923D01*
X102844055Y-35439149D01*
X102844055Y-35024374D01*
X103130447Y-35024374D01*
X103416839Y-35024374D01*
X103416839Y-35212010D01*
G37*
G36*
X101145455Y-34599724D02*
G01*
X101145455Y-34787360D01*
X101076326Y-34787360D01*
X101007197Y-34787360D01*
X101007197Y-35320642D01*
X101007197Y-35853923D01*
X101076326Y-35853923D01*
X101145455Y-35853923D01*
X101145455Y-36041559D01*
X101145455Y-36229195D01*
X100780059Y-36229195D01*
X100414662Y-36229195D01*
X100414662Y-36041559D01*
X100414662Y-35853923D01*
X100486088Y-35853923D01*
X100557515Y-35853923D01*
X100549485Y-35654024D01*
X100545537Y-35570896D01*
X100539810Y-35506074D01*
X100530887Y-35464561D01*
X100516810Y-35437744D01*
X100495622Y-35417010D01*
X100494181Y-35415854D01*
X100431988Y-35384537D01*
X100373288Y-35387301D01*
X100326902Y-35423792D01*
X100315885Y-35445975D01*
X100307725Y-35480335D01*
X100302068Y-35532287D01*
X100298519Y-35607306D01*
X100296680Y-35710866D01*
X100296155Y-35848442D01*
X100296155Y-36229195D01*
X99990012Y-36229195D01*
X99683869Y-36229195D01*
X99683869Y-36041559D01*
X99683869Y-35853923D01*
X99762873Y-35853923D01*
X99841878Y-35853923D01*
X99841909Y-35532967D01*
X99841913Y-35523661D01*
X99843392Y-35382945D01*
X99848793Y-35275434D01*
X99859959Y-35195226D01*
X99878733Y-35136413D01*
X99906958Y-35093094D01*
X99946477Y-35059361D01*
X99999135Y-35029312D01*
X100011923Y-35023134D01*
X100129481Y-34989485D01*
X100250995Y-34993555D01*
X100372175Y-35034620D01*
X100488729Y-35111956D01*
X100552920Y-35166144D01*
X100552920Y-34789116D01*
X100552920Y-34412088D01*
X100849188Y-34412088D01*
X101145455Y-34412088D01*
X101145455Y-34599724D01*
G37*
G36*
X105567173Y-35680843D02*
G01*
X105560127Y-35758847D01*
X105550102Y-35815103D01*
X105544219Y-35834617D01*
X105484368Y-35959263D01*
X105392649Y-36071810D01*
X105275458Y-36165725D01*
X105139196Y-36234480D01*
X105077059Y-36252765D01*
X104993403Y-36263113D01*
X104885249Y-36262809D01*
X104798761Y-36255076D01*
X104640586Y-36214650D01*
X104503696Y-36140949D01*
X104387969Y-36033899D01*
X104293288Y-35893426D01*
X104276678Y-35855174D01*
X104264420Y-35801913D01*
X104258074Y-35729085D01*
X104256264Y-35626785D01*
X104700665Y-35626785D01*
X104702334Y-35651539D01*
X104725007Y-35729121D01*
X104767413Y-35798843D01*
X104820855Y-35844918D01*
X104877577Y-35865914D01*
X104957127Y-35865324D01*
X105026694Y-35827820D01*
X105081952Y-35754893D01*
X105082149Y-35754513D01*
X105109120Y-35667520D01*
X105107069Y-35578112D01*
X105079248Y-35495921D01*
X105028911Y-35430577D01*
X104959309Y-35391713D01*
X104890992Y-35386963D01*
X104818640Y-35413114D01*
X104757950Y-35466210D01*
X104716199Y-35539638D01*
X104700665Y-35626785D01*
X104256264Y-35626785D01*
X104257621Y-35535644D01*
X104263314Y-35459620D01*
X104274745Y-35404421D01*
X104293288Y-35360144D01*
X104363711Y-35249617D01*
X104468054Y-35141643D01*
X104597073Y-35059922D01*
X104647977Y-35035667D01*
X104704345Y-35013583D01*
X104758877Y-35001312D01*
X104825342Y-34996065D01*
X104917513Y-34995054D01*
X104923487Y-34995068D01*
X105019445Y-34997168D01*
X105088878Y-35004130D01*
X105144027Y-35017946D01*
X105197133Y-35040612D01*
X105287031Y-35092415D01*
X105407691Y-35194173D01*
X105496367Y-35315625D01*
X105551018Y-35453682D01*
X105569606Y-35605251D01*
X105567602Y-35667520D01*
X105567173Y-35680843D01*
G37*
G36*
X102062053Y-34987531D02*
G01*
X102189044Y-35013558D01*
X102302793Y-35070627D01*
X102412712Y-35162771D01*
X102428528Y-35178935D01*
X102503792Y-35272259D01*
X102552761Y-35371317D01*
X102579303Y-35486422D01*
X102587290Y-35627887D01*
X102586191Y-35670393D01*
X102560783Y-35828929D01*
X102503544Y-35968683D01*
X102416860Y-36086199D01*
X102303113Y-36178020D01*
X102164688Y-36240687D01*
X102117734Y-36251618D01*
X102037068Y-36262601D01*
X101953900Y-36267377D01*
X101882707Y-36265206D01*
X101723218Y-36236369D01*
X101584324Y-36175585D01*
X101468557Y-36084635D01*
X101378452Y-35965300D01*
X101316542Y-35819359D01*
X101285842Y-35715665D01*
X101492956Y-35715665D01*
X101700070Y-35715665D01*
X101777765Y-35797340D01*
X101817432Y-35837383D01*
X101853464Y-35863914D01*
X101889529Y-35871954D01*
X101939890Y-35867690D01*
X102003612Y-35851347D01*
X102067911Y-35805689D01*
X102111761Y-35729289D01*
X102128666Y-35641332D01*
X102119633Y-35552911D01*
X102085784Y-35474989D01*
X102028244Y-35418527D01*
X101984177Y-35395438D01*
X101912017Y-35380204D01*
X101844787Y-35400971D01*
X101775225Y-35458900D01*
X101700070Y-35537905D01*
X101511643Y-35537905D01*
X101323216Y-35537905D01*
X101323216Y-35281139D01*
X101323216Y-35024374D01*
X101500976Y-35024374D01*
X101571065Y-35024757D01*
X101629449Y-35027220D01*
X101661843Y-35033447D01*
X101675766Y-35045109D01*
X101678737Y-35063877D01*
X101682440Y-35086836D01*
X101698488Y-35103379D01*
X101703157Y-35102868D01*
X101718239Y-35085390D01*
X101718537Y-35082530D01*
X101740498Y-35057425D01*
X101789843Y-35031337D01*
X101856102Y-35008036D01*
X101928802Y-34991291D01*
X101997473Y-34984872D01*
X102062053Y-34987531D01*
G37*
G36*
X110939178Y-35732084D02*
G01*
X110921640Y-35837674D01*
X110903391Y-35889630D01*
X110841799Y-35999887D01*
X110756822Y-36101854D01*
X110657874Y-36185226D01*
X110554368Y-36239700D01*
X110551967Y-36240548D01*
X110426414Y-36266552D01*
X110300930Y-36259882D01*
X110184922Y-36222238D01*
X110087796Y-36155323D01*
X110033480Y-36103298D01*
X110033480Y-36166247D01*
X110033480Y-36229195D01*
X109737212Y-36229195D01*
X109440945Y-36229195D01*
X109440945Y-36041559D01*
X109440945Y-35853923D01*
X109519950Y-35853923D01*
X109598954Y-35853923D01*
X109598954Y-35626785D01*
X109598954Y-35587520D01*
X110023906Y-35587520D01*
X110025897Y-35678321D01*
X110062366Y-35761765D01*
X110130219Y-35828590D01*
X110181658Y-35856355D01*
X110267067Y-35871865D01*
X110349729Y-35848145D01*
X110428503Y-35785363D01*
X110458183Y-35745721D01*
X110473794Y-35696998D01*
X110477881Y-35625573D01*
X110477658Y-35601966D01*
X110471924Y-35542689D01*
X110453717Y-35500363D01*
X110416783Y-35457815D01*
X110398047Y-35440722D01*
X110318233Y-35396347D01*
X110234090Y-35386466D01*
X110153606Y-35409244D01*
X110084771Y-35462844D01*
X110035574Y-35545430D01*
X110023906Y-35587520D01*
X109598954Y-35587520D01*
X109598954Y-35399646D01*
X109519950Y-35399646D01*
X109440945Y-35399646D01*
X109440945Y-35212010D01*
X109440945Y-35024374D01*
X109737212Y-35024374D01*
X110033480Y-35024374D01*
X110033480Y-35096167D01*
X110033480Y-35167960D01*
X110076368Y-35113437D01*
X110124352Y-35066468D01*
X110217584Y-35016106D01*
X110329758Y-34990139D01*
X110452482Y-34990170D01*
X110577361Y-35017801D01*
X110657890Y-35056248D01*
X110756960Y-35134027D01*
X110840709Y-35234239D01*
X110899702Y-35347239D01*
X110907557Y-35370349D01*
X110931361Y-35481074D01*
X110942160Y-35607435D01*
X110941726Y-35625573D01*
X110939178Y-35732084D01*
G37*
G36*
X117578426Y-34787360D02*
G01*
X117479670Y-34787360D01*
X117380914Y-34787360D01*
X117380914Y-35320642D01*
X117380914Y-35853923D01*
X117479670Y-35853923D01*
X117578426Y-35853923D01*
X117578426Y-36041559D01*
X117578426Y-36229195D01*
X117030331Y-36228853D01*
X116891087Y-36228285D01*
X116698858Y-36224927D01*
X116538502Y-36217565D01*
X116405371Y-36205075D01*
X116294818Y-36186328D01*
X116202195Y-36160201D01*
X116122853Y-36125565D01*
X116052147Y-36081296D01*
X115985426Y-36026267D01*
X115918045Y-35959352D01*
X115884337Y-35921775D01*
X115795856Y-35794336D01*
X115734994Y-35650363D01*
X115697630Y-35480911D01*
X115685966Y-35357578D01*
X115687626Y-35320642D01*
X116205719Y-35320642D01*
X116205756Y-35352285D01*
X116207002Y-35437985D01*
X116211554Y-35497850D01*
X116221471Y-35542440D01*
X116238811Y-35582314D01*
X116265631Y-35628031D01*
X116292731Y-35667950D01*
X116353273Y-35730148D01*
X116436358Y-35781609D01*
X116466384Y-35796252D01*
X116537286Y-35823118D01*
X116615535Y-35839383D01*
X116717154Y-35848887D01*
X116887135Y-35859491D01*
X116887135Y-35320642D01*
X116887135Y-34781792D01*
X116717154Y-34792397D01*
X116565281Y-34812757D01*
X116439704Y-34855318D01*
X116341008Y-34921569D01*
X116265631Y-35013252D01*
X116256641Y-35027922D01*
X116232821Y-35070825D01*
X116217877Y-35110990D01*
X116209751Y-35158975D01*
X116206384Y-35225339D01*
X116205719Y-35320642D01*
X115687626Y-35320642D01*
X115694659Y-35164176D01*
X115736933Y-34984575D01*
X115811744Y-34822563D01*
X115918045Y-34681932D01*
X115960729Y-34638419D01*
X116027152Y-34579107D01*
X116095836Y-34530974D01*
X116171428Y-34492892D01*
X116258576Y-34463736D01*
X116361928Y-34442380D01*
X116486132Y-34427698D01*
X116635835Y-34418563D01*
X116815685Y-34413849D01*
X117030331Y-34412431D01*
X117578426Y-34412088D01*
X117578426Y-34599724D01*
X117578426Y-34781792D01*
X117578426Y-34787360D01*
G37*
G36*
X112137856Y-34386574D02*
G01*
X112313719Y-34434611D01*
X112476299Y-34514200D01*
X112621238Y-34622654D01*
X112744182Y-34757284D01*
X112840774Y-34915404D01*
X112906659Y-35094324D01*
X112912165Y-35116626D01*
X112935329Y-35297818D01*
X112922009Y-35476154D01*
X112874843Y-35647213D01*
X112796469Y-35806578D01*
X112689524Y-35949828D01*
X112556646Y-36072544D01*
X112400473Y-36170308D01*
X112223641Y-36238700D01*
X112223449Y-36238754D01*
X112113944Y-36258041D01*
X111982376Y-36264025D01*
X111843585Y-36257412D01*
X111712412Y-36238906D01*
X111603698Y-36209215D01*
X111515093Y-36169812D01*
X111392966Y-36098336D01*
X111283135Y-36015375D01*
X111198903Y-35930102D01*
X111181918Y-35907740D01*
X111139347Y-35843849D01*
X111096347Y-35770903D01*
X111058570Y-35699338D01*
X111031667Y-35639590D01*
X111021288Y-35602096D01*
X111022636Y-35597667D01*
X111041683Y-35588177D01*
X111086753Y-35581996D01*
X111162322Y-35578690D01*
X111272866Y-35577829D01*
X111524693Y-35578250D01*
X111579031Y-35655082D01*
X111605274Y-35688151D01*
X111698309Y-35763418D01*
X111816635Y-35808937D01*
X111959219Y-35824248D01*
X111996259Y-35823852D01*
X112069920Y-35817888D01*
X112128079Y-35801662D01*
X112187743Y-35771230D01*
X112279840Y-35701822D01*
X112359420Y-35597973D01*
X112407344Y-35470761D01*
X112423371Y-35320642D01*
X112423352Y-35315117D01*
X112406516Y-35166423D01*
X112358968Y-35041345D01*
X112281857Y-34941388D01*
X112176332Y-34868057D01*
X112043540Y-34822858D01*
X112023228Y-34819060D01*
X111900615Y-34814309D01*
X111782351Y-34837882D01*
X111676561Y-34886259D01*
X111591368Y-34955916D01*
X111534897Y-35043332D01*
X111510025Y-35103379D01*
X111275407Y-35103379D01*
X111040789Y-35103379D01*
X111040789Y-34757734D01*
X111040789Y-34412088D01*
X111258052Y-34412088D01*
X111475315Y-34412088D01*
X111475315Y-34479882D01*
X111475315Y-34547675D01*
X111573414Y-34481659D01*
X111614414Y-34457031D01*
X111696393Y-34418509D01*
X111771898Y-34394114D01*
X111953065Y-34372777D01*
X112137856Y-34386574D01*
G37*
G36*
X109184180Y-35883550D02*
G01*
X109184180Y-36387205D01*
X109253309Y-36387205D01*
X109322438Y-36387205D01*
X109322438Y-36574841D01*
X109322438Y-36762477D01*
X108947166Y-36762477D01*
X108571894Y-36762477D01*
X108571894Y-36574841D01*
X108571894Y-36387205D01*
X108650898Y-36387205D01*
X108729903Y-36387205D01*
X108729903Y-36259229D01*
X108729903Y-36131254D01*
X108639412Y-36195038D01*
X108614312Y-36212339D01*
X108570550Y-36237701D01*
X108526994Y-36251669D01*
X108470415Y-36257592D01*
X108387584Y-36258822D01*
X108384009Y-36258821D01*
X108298275Y-36256875D01*
X108237457Y-36249229D01*
X108187542Y-36232898D01*
X108134512Y-36204894D01*
X108035633Y-36132933D01*
X107953030Y-36038067D01*
X107882384Y-35913177D01*
X107874628Y-35896378D01*
X107852229Y-35839313D01*
X107839101Y-35782539D01*
X107832975Y-35712818D01*
X107831783Y-35630746D01*
X108295377Y-35630746D01*
X108306858Y-35722827D01*
X108345183Y-35792850D01*
X108414102Y-35844161D01*
X108452707Y-35860191D01*
X108539797Y-35870276D01*
X108620482Y-35847872D01*
X108687310Y-35797677D01*
X108732827Y-35724388D01*
X108749580Y-35632704D01*
X108748932Y-35615613D01*
X108724948Y-35529094D01*
X108671221Y-35460126D01*
X108594379Y-35417883D01*
X108510609Y-35404224D01*
X108428079Y-35422434D01*
X108352100Y-35478143D01*
X108319204Y-35516756D01*
X108300166Y-35563764D01*
X108295377Y-35630746D01*
X107831783Y-35630746D01*
X107831582Y-35616909D01*
X107831695Y-35592385D01*
X107834365Y-35503005D01*
X107842284Y-35436784D01*
X107857765Y-35380427D01*
X107883120Y-35320642D01*
X107899742Y-35287988D01*
X107969609Y-35183364D01*
X108053698Y-35094159D01*
X108141491Y-35032118D01*
X108214480Y-35006720D01*
X108313395Y-34991454D01*
X108416958Y-34989849D01*
X108507962Y-35003258D01*
X108524770Y-35008531D01*
X108597188Y-35042416D01*
X108661033Y-35086505D01*
X108729903Y-35146973D01*
X108729903Y-35085674D01*
X108729903Y-35024374D01*
X109026170Y-35024374D01*
X109322438Y-35024374D01*
X109322438Y-35202135D01*
X109322438Y-35379895D01*
X109253309Y-35379895D01*
X109184180Y-35379895D01*
X109184180Y-35632704D01*
X109184180Y-35883550D01*
G37*
G36*
X114556497Y-34599724D02*
G01*
X114556497Y-34787360D01*
X114486108Y-34787360D01*
X114415719Y-34787360D01*
X114537954Y-34945370D01*
X114574282Y-34992004D01*
X114619889Y-35049469D01*
X114652188Y-35088799D01*
X114665824Y-35103379D01*
X114672450Y-35097088D01*
X114699354Y-35066039D01*
X114741652Y-35014913D01*
X114793830Y-34950307D01*
X114916201Y-34797236D01*
X114844980Y-34791106D01*
X114773760Y-34784976D01*
X114773760Y-34598532D01*
X114773760Y-34412088D01*
X115178659Y-34412088D01*
X115583558Y-34412088D01*
X115583558Y-34599724D01*
X115583558Y-34787360D01*
X115508344Y-34787360D01*
X115487312Y-34787931D01*
X115461065Y-34792832D01*
X115434639Y-34806491D01*
X115403102Y-34833299D01*
X115361522Y-34877648D01*
X115304967Y-34943931D01*
X115228505Y-35036537D01*
X115205728Y-35064313D01*
X115135847Y-35150612D01*
X115087600Y-35213142D01*
X115057876Y-35256902D01*
X115043568Y-35286892D01*
X115041566Y-35308109D01*
X115048760Y-35325554D01*
X115056400Y-35336863D01*
X115087166Y-35379395D01*
X115134735Y-35443379D01*
X115194246Y-35522304D01*
X115260839Y-35609659D01*
X115311998Y-35676247D01*
X115369651Y-35749725D01*
X115411830Y-35799517D01*
X115443529Y-35830227D01*
X115469740Y-35846462D01*
X115495457Y-35852825D01*
X115525672Y-35853923D01*
X115603309Y-35853923D01*
X115603309Y-36041559D01*
X115603309Y-36229195D01*
X115198410Y-36229195D01*
X114793511Y-36229195D01*
X114793511Y-36042752D01*
X114793511Y-35856308D01*
X114862912Y-35850178D01*
X114932314Y-35844048D01*
X114801911Y-35649301D01*
X114671508Y-35454553D01*
X114544874Y-35643922D01*
X114498161Y-35714507D01*
X114456682Y-35778734D01*
X114428580Y-35824071D01*
X114418239Y-35843607D01*
X114418826Y-35844950D01*
X114441649Y-35851329D01*
X114487368Y-35853923D01*
X114556497Y-35853923D01*
X114556497Y-36041559D01*
X114556497Y-36229195D01*
X114141723Y-36229195D01*
X113726948Y-36229195D01*
X113726948Y-36041559D01*
X113726948Y-35853923D01*
X113805003Y-35853923D01*
X113825993Y-35853560D01*
X113852841Y-35849505D01*
X113878416Y-35837130D01*
X113907755Y-35811812D01*
X113945900Y-35768928D01*
X113997889Y-35703855D01*
X114068761Y-35611972D01*
X114101586Y-35569079D01*
X114165182Y-35485248D01*
X114219331Y-35412916D01*
X114259127Y-35358667D01*
X114279662Y-35329082D01*
X114282291Y-35324517D01*
X114287807Y-35306209D01*
X114283638Y-35283006D01*
X114266765Y-35249733D01*
X114234172Y-35201216D01*
X114182839Y-35132281D01*
X114109749Y-35037752D01*
X114057901Y-34971405D01*
X113998029Y-34896358D01*
X113954088Y-34845080D01*
X113921222Y-34813055D01*
X113894579Y-34795770D01*
X113869304Y-34788710D01*
X113840544Y-34787360D01*
X113766450Y-34787360D01*
X113766450Y-34599724D01*
X113766450Y-34412088D01*
X114161474Y-34412088D01*
X114556497Y-34412088D01*
X114556497Y-34599724D01*
G37*
%TO.C,J11*%
X145818508Y-79850273D02*
X145818508Y-82510273D01*
X133058508Y-79850273D02*
X145818508Y-79850273D01*
X133058508Y-79850273D02*
X133058508Y-82510273D01*
X131788508Y-79850273D02*
X130458508Y-79850273D01*
X130458508Y-79850273D02*
X130458508Y-81180273D01*
X133058508Y-82510273D02*
X145818508Y-82510273D01*
%TO.C,RP0*%
X147694654Y-50275093D02*
X148094654Y-50275093D01*
X145094654Y-50275093D02*
X145494654Y-50275093D01*
X142594654Y-50275093D02*
X142994654Y-50275093D01*
X140094654Y-50275093D02*
X140494654Y-50275093D01*
X137494654Y-50275093D02*
X137894654Y-50275093D01*
X134994654Y-50275093D02*
X135394654Y-50275093D01*
X132394654Y-50275093D02*
X132794654Y-50275093D01*
X129894654Y-50275093D02*
X130294654Y-50275093D01*
X127294654Y-50275093D02*
X127694654Y-50275093D01*
X124794654Y-50275093D02*
X125194654Y-50275093D01*
X122294654Y-50275093D02*
X122694654Y-50275093D01*
X119694654Y-50275093D02*
X120094654Y-50275093D01*
X117194654Y-50275093D02*
X117594654Y-50275093D01*
X114594654Y-50275093D02*
X114994654Y-50275093D01*
X112094654Y-50275093D02*
X112494654Y-50275093D01*
X109594654Y-50275093D02*
X109994654Y-50275093D01*
X106994654Y-50275093D02*
X107394654Y-50275093D01*
X104494654Y-50275093D02*
X104894654Y-50275093D01*
X102161654Y-50275093D02*
X102161654Y-53282093D01*
X101894654Y-50275093D02*
X102294654Y-50275093D01*
X99494654Y-50275093D02*
X99794654Y-50275093D01*
X99494654Y-50275093D02*
X99494654Y-71275093D01*
X102161654Y-53282093D02*
X99494654Y-53282093D01*
X150494654Y-57075093D02*
X150494654Y-50275093D01*
X150494654Y-59275093D02*
X150494654Y-59675093D01*
X150494654Y-61875093D02*
X150494654Y-62275093D01*
X150494654Y-71275093D02*
X150494654Y-64475093D01*
X147694654Y-71275093D02*
X148094654Y-71275093D01*
X145094654Y-71275093D02*
X145494654Y-71275093D01*
X142594654Y-71275093D02*
X142994654Y-71275093D01*
X140094654Y-71275093D02*
X140494654Y-71275093D01*
X137494654Y-71275093D02*
X137894654Y-71275093D01*
X134994654Y-71275093D02*
X135394654Y-71275093D01*
X132394654Y-71275093D02*
X132794654Y-71275093D01*
X129894654Y-71275093D02*
X130294654Y-71275093D01*
X127294654Y-71275093D02*
X127694654Y-71275093D01*
X124794654Y-71275093D02*
X125194654Y-71275093D01*
X122294654Y-71275093D02*
X122694654Y-71275093D01*
X119694654Y-71275093D02*
X120094654Y-71275093D01*
X117194654Y-71275093D02*
X117594654Y-71275093D01*
X114594654Y-71275093D02*
X114994654Y-71275093D01*
X112094654Y-71275093D02*
X112494654Y-71275093D01*
X109594654Y-71275093D02*
X109994654Y-71275093D01*
X106994654Y-71275093D02*
X107394654Y-71275093D01*
X104494654Y-71275093D02*
X104894654Y-71275093D01*
X101894654Y-71275093D02*
X102294654Y-71275093D01*
X99494654Y-71275093D02*
X99794654Y-71275093D01*
%TO.C,J10*%
X114649644Y-79980065D02*
X114649644Y-82640065D01*
X101889644Y-79980065D02*
X114649644Y-79980065D01*
X101889644Y-79980065D02*
X101889644Y-82640065D01*
X100619644Y-79980065D02*
X99289644Y-79980065D01*
X99289644Y-79980065D02*
X99289644Y-81310065D01*
X101889644Y-82640065D02*
X114649644Y-82640065D01*
%TD*%
M02*
