%TF.GenerationSoftware,KiCad,Pcbnew,7.0.7*%
%TF.CreationDate,2024-01-08T08:14:38+08:00*%
%TF.ProjectId,IIDX_Cap_Controller,49494458-5f43-4617-905f-436f6e74726f,rev?*%
%TF.SameCoordinates,Original*%
%TF.FileFunction,Legend,Top*%
%TF.FilePolarity,Positive*%
%FSLAX46Y46*%
G04 Gerber Fmt 4.6, Leading zero omitted, Abs format (unit mm)*
G04 Created by KiCad (PCBNEW 7.0.7) date 2024-01-08 08:14:38*
%MOMM*%
%LPD*%
G01*
G04 APERTURE LIST*
%ADD10C,0.150000*%
%ADD11C,0.300000*%
%ADD12C,0.120000*%
G04 APERTURE END LIST*
D10*
X167024652Y-80860661D02*
X167738937Y-80860661D01*
X167738937Y-80860661D02*
X167881794Y-80908280D01*
X167881794Y-80908280D02*
X167977033Y-81003518D01*
X167977033Y-81003518D02*
X168024652Y-81146375D01*
X168024652Y-81146375D02*
X168024652Y-81241613D01*
X167453223Y-80241613D02*
X167405604Y-80336851D01*
X167405604Y-80336851D02*
X167357985Y-80384470D01*
X167357985Y-80384470D02*
X167262747Y-80432089D01*
X167262747Y-80432089D02*
X167215128Y-80432089D01*
X167215128Y-80432089D02*
X167119890Y-80384470D01*
X167119890Y-80384470D02*
X167072271Y-80336851D01*
X167072271Y-80336851D02*
X167024652Y-80241613D01*
X167024652Y-80241613D02*
X167024652Y-80051137D01*
X167024652Y-80051137D02*
X167072271Y-79955899D01*
X167072271Y-79955899D02*
X167119890Y-79908280D01*
X167119890Y-79908280D02*
X167215128Y-79860661D01*
X167215128Y-79860661D02*
X167262747Y-79860661D01*
X167262747Y-79860661D02*
X167357985Y-79908280D01*
X167357985Y-79908280D02*
X167405604Y-79955899D01*
X167405604Y-79955899D02*
X167453223Y-80051137D01*
X167453223Y-80051137D02*
X167453223Y-80241613D01*
X167453223Y-80241613D02*
X167500842Y-80336851D01*
X167500842Y-80336851D02*
X167548461Y-80384470D01*
X167548461Y-80384470D02*
X167643699Y-80432089D01*
X167643699Y-80432089D02*
X167834175Y-80432089D01*
X167834175Y-80432089D02*
X167929413Y-80384470D01*
X167929413Y-80384470D02*
X167977033Y-80336851D01*
X167977033Y-80336851D02*
X168024652Y-80241613D01*
X168024652Y-80241613D02*
X168024652Y-80051137D01*
X168024652Y-80051137D02*
X167977033Y-79955899D01*
X167977033Y-79955899D02*
X167929413Y-79908280D01*
X167929413Y-79908280D02*
X167834175Y-79860661D01*
X167834175Y-79860661D02*
X167643699Y-79860661D01*
X167643699Y-79860661D02*
X167548461Y-79908280D01*
X167548461Y-79908280D02*
X167500842Y-79955899D01*
X167500842Y-79955899D02*
X167453223Y-80051137D01*
D11*
X164465829Y-90661044D02*
X164322972Y-90589615D01*
X164322972Y-90589615D02*
X164108686Y-90589615D01*
X164108686Y-90589615D02*
X163894400Y-90661044D01*
X163894400Y-90661044D02*
X163751543Y-90803901D01*
X163751543Y-90803901D02*
X163680114Y-90946758D01*
X163680114Y-90946758D02*
X163608686Y-91232472D01*
X163608686Y-91232472D02*
X163608686Y-91446758D01*
X163608686Y-91446758D02*
X163680114Y-91732472D01*
X163680114Y-91732472D02*
X163751543Y-91875329D01*
X163751543Y-91875329D02*
X163894400Y-92018187D01*
X163894400Y-92018187D02*
X164108686Y-92089615D01*
X164108686Y-92089615D02*
X164251543Y-92089615D01*
X164251543Y-92089615D02*
X164465829Y-92018187D01*
X164465829Y-92018187D02*
X164537257Y-91946758D01*
X164537257Y-91946758D02*
X164537257Y-91446758D01*
X164537257Y-91446758D02*
X164251543Y-91446758D01*
X165394400Y-90589615D02*
X165394400Y-90946758D01*
X165037257Y-90803901D02*
X165394400Y-90946758D01*
X165394400Y-90946758D02*
X165751543Y-90803901D01*
X165180114Y-91232472D02*
X165394400Y-90946758D01*
X165394400Y-90946758D02*
X165608686Y-91232472D01*
X166537257Y-90589615D02*
X166537257Y-90946758D01*
X166180114Y-90803901D02*
X166537257Y-90946758D01*
X166537257Y-90946758D02*
X166894400Y-90803901D01*
X166322971Y-91232472D02*
X166537257Y-90946758D01*
X166537257Y-90946758D02*
X166751543Y-91232472D01*
X167680114Y-90589615D02*
X167680114Y-90946758D01*
X167322971Y-90803901D02*
X167680114Y-90946758D01*
X167680114Y-90946758D02*
X168037257Y-90803901D01*
X167465828Y-91232472D02*
X167680114Y-90946758D01*
X167680114Y-90946758D02*
X167894400Y-91232472D01*
D12*
%TO.C,J8*%
X168569833Y-81857328D02*
X168569833Y-80527328D01*
X169899833Y-81857328D02*
X168569833Y-81857328D01*
X171169833Y-81857328D02*
X189009833Y-81857328D01*
X171169833Y-81857328D02*
X171169833Y-79197328D01*
X189009833Y-81857328D02*
X189009833Y-79197328D01*
X171169833Y-79197328D02*
X189009833Y-79197328D01*
%TD*%
M02*
